<svg height="258" viewBox="0 0 14 258" width="14" xmlns="http://www.w3.org/2000/svg" xmlns:xlink="http://www.w3.org/1999/xlink"><clipPath id="a"><path d="m0 0h14v258h-14z"/></clipPath><g clip-path="url(#a)" fill="#070203"><path d="m8 7.155a.119.119 0 0 0 -.1-.112 12.584 12.584 0 0 1 -7.28-5.4 2.013 2.013 0 0 1 -.4-.814c0-.32.605-.831.9-.831.155 0 .233.16.357.367a12.107 12.107 0 0 0 3.293 3.735 12.994 12.994 0 0 0 7.573 2.348c.342 0 .685-.016 1.025-.016s.45.08.45.335a9.57 9.57 0 0 1 -.14 1.117c-.031.177-.046.367-.2.367-.14 0-.2-.191-.264-.3a.241.241 0 0 0 -.233-.144c-.388-.016-.76-.031-1.149-.031-.108 0-.248.015-.357.015a13.082 13.082 0 0 0 -3.957.895 12.717 12.717 0 0 0 -6.148 5.225c-.078.128-.186.319-.326.319-.31 0-.884-.495-.884-.8a.656.656 0 0 1 .108-.288 12.578 12.578 0 0 1 2.142-2.665 13.387 13.387 0 0 1 5.49-3.21.119.119 0 0 0 .1-.112" transform="translate(-.005)"/><path d="m10.679 25.19c0 .319.124.447.434.447h1.242a8.746 8.746 0 0 0 1.148-.064c.047 0 .094-.016.141-.016.185 0 .233.128.233.287 0 .239-.078.782-.094 1.055-.015.223-.015.543-.216.543-.11 0-.141-.08-.234-.223-.124-.176-.357-.192-.822-.192h-1.4c-.31 0-.434.128-.434.431v2.954c0 .64.031 1.278.031 1.917 0 .367-.155.367-.652.367s-.652-.016-.652-.367c0-.639.046-1.277.046-1.917v-2.955c0-.3-.124-.431-.434-.431h-2.016c-.3 0-.42.128-.42.431v2.284c0 .623.032 1.246.032 1.869 0 .367-.171.367-.653.367-.465 0-.636 0-.636-.367 0-.623.047-1.246.047-1.869v-2.284c0-.3-.125-.431-.434-.431h-2.684c-.295 0-.42.128-.42.431v3.543c0 .655.031 1.293.031 1.932 0 .383-.171.383-.652.383-.465 0-.653 0-.653-.367 0-.655.048-1.293.048-1.948v-9.468c0-.639-.048-1.277-.048-1.932 0-.351.156-.367.653-.367s.652.016.652.367c0 .655-.031 1.293-.031 1.932v3.658c0 .319.125.447.42.447h2.685c.309 0 .434-.128.434-.447v-2.236c0-.607-.047-1.229-.047-1.853 0-.383.2-.383.636-.383.451 0 .653 0 .653.383 0 .624-.032 1.246-.032 1.853v2.236c0 .319.124.447.42.447h2.017c.31 0 .434-.128.434-.447v-2.62a.574.574 0 0 0 -.357-.607c-.434-.224-2.56-1.39-2.56-1.853 0-.255.31-.927.605-.927.124 0 .294.161.388.24a13.148 13.148 0 0 0 5.572 2.621c.109.032.248.08.248.223a6.294 6.294 0 0 1 -.14.67c-.14.559-.186.815-.372.815-.14 0-.2-.161-.248-.256-.124-.255-.279-.3-.729-.431-.2-.064-.451-.128-.792-.255a.351.351 0 0 0 -.124-.032c-.247 0-.264.255-.264.319z" transform="translate(-.017 -.043)"/><path d="m12.056 42.316c-.048.1-.125.271-.249.271-.093 0-.124-.048-.155-.128-.156-.335-.248-.415-.776-.623a15.384 15.384 0 0 0 -4.8-.831c-.311 0-2.221.064-2.221.415 0 .129.234.239.7.431.187.08.76.256.76.448 0 .16-.2.511-.371.511a1.589 1.589 0 0 1 -.3-.08 12.863 12.863 0 0 0 -2.437-.655c-.217 0-.434.016-.636.016-.342 0-.45-.208-.575-.495a1.808 1.808 0 0 1 -.139-.5c0-.223.31-.367.481-.447a10.837 10.837 0 0 1 4.7-.942 18.123 18.123 0 0 1 4.983.75c.434.128.869.271 1.3.383.108.016.248.064.248.192a10.4 10.4 0 0 1 -.527 1.278m.449 6.372c-.031.081-.062.145-.155.145s-.17-.081-.248-.145a2.362 2.362 0 0 0 -1.165-.176h-.343c-.34 0-.574.032-.574.336a12.854 12.854 0 0 0 .4 1.692.59.59 0 0 1 .063.239c0 .3-.916.4-1.056.4-.326 0-.388-.464-.622-2.077-.047-.287-.092-.527-.464-.527-.4 0-2.934.112-3.431.144-.388.016-.434.209-.574.511-.2.448-1.1 2.173-1.6 2.173-.326 0-.9-.464-.9-.751a.713.713 0 0 1 .248-.415 5.14 5.14 0 0 0 .963-1.374c0-.159-.125-.192-.249-.208-1.086-.192-1.443-1.2-1.443-2.219 0-1.182.527-2.572 1.877-2.572 1.32 0 1.816 1.214 1.816 2.38a6.173 6.173 0 0 1 -.047.767.558.558 0 0 0 -.016.16c0 .223.109.3.31.3.527 0 2.142-.08 2.717-.112.171-.016.559.016.559-.367 0-.08-.062-1.166-.062-1.773a13.017 13.017 0 0 1 .078-1.613c.062-.208.745-.208.946-.208s.357.016.357.223a2.252 2.252 0 0 1 -.031.32c-.062.686-.109 1.421-.109 2.107 0 .7-.03 1.166.357 1.166s1.909-.144 2.328-.208h.14a.167.167 0 0 1 .186.192 12.9 12.9 0 0 1 -.248 1.485m-8.699-1.362a3.726 3.726 0 0 0 .14-.942c0-.432-.156-1.31-.715-1.31-.574 0-.776.862-.776 1.325 0 .7.28 1.134 1.008 1.134a.343.343 0 0 0 .342-.208" transform="translate(-.026 -.089)"/><path d="m1.73 61.129c-.264 0-.978-.624-.978-.926 0-.145.124-.239.233-.32a9.6 9.6 0 0 0 2.064-2.428c.078-.111.14-.255.295-.255.249 0 .87.64.87.863a9.7 9.7 0 0 1 -2.484 3.066" transform="translate(-.023 -.128)"/><path d="m3.493 78.484c.124 0 .217-.048.217-.176 0-.048-.047-.1-.062-.144a17.39 17.39 0 0 1 -3-4.951 2.154 2.154 0 0 1 -.171-.592c0-.287.591-.655.823-.655.217 0 .295.287.372.511a16.59 16.59 0 0 0 2.468 4.536.19.19 0 0 0 .124.064c.109 0 .14-.095.14-.192v-2.553c0-.623-.031-1.245-.031-1.868 0-.336.155-.352.574-.352.434 0 .59.016.59.352 0 .623-.031 1.245-.031 1.868v3.768c0 .255.078.367.342.383l.59-.048a.615.615 0 0 1 .171-.016c.171 0 .2.128.2.271 0 .176-.031.415-.047.591-.047.56-.031.847-.248.847-.093 0-.124-.065-.2-.193-.124-.175-.279-.16-.465-.175-.265.015-.342.128-.342.382v3.758c0 .623.031 1.246.031 1.869 0 .335-.139.351-.59.351s-.574-.016-.574-.351c0-.623.031-1.246.031-1.869v-2.589c0-.144-.078-.176-.124-.176a.127.127 0 0 0 -.125.064 19.22 19.22 0 0 0 -2.5 4.456c-.125.3-.217.591-.419.591-.234 0-.823-.383-.823-.686a11.76 11.76 0 0 1 1.025-2.22 18.808 18.808 0 0 1 2.251-3.259.282.282 0 0 0 .061-.16c0-.159-.185-.159-.2-.159h-1.551c-.5 0-.994.031-1.489.031s-.511-.127-.511-.654c0-.511.016-.686.481-.686.513 0 1.009.032 1.521.032zm5.184-2.651c-.124 0-.2-.1-.295-.224-.559-.719-1.071-1.47-1.568-2.236-.155-.255-.171-.271-.295-.287-.109-.016-.264-.032-.264-.177 0-.191.946-.862 1.1-.862.124 0 .171.16.217.256a16.936 16.936 0 0 0 1.728 2.62.508.508 0 0 1 .14.271c0 .239-.543.639-.76.639m-2.254 9.535c0-.144.124-.271.217-.383a22.918 22.918 0 0 0 1.77-2.252c.077-.112.171-.256.31-.256.248 0 .729.416.729.671a8.087 8.087 0 0 1 -1.039 1.565c-.233.3-.777.99-1.024 1.245a.349.349 0 0 1 -.234.128 1.109 1.109 0 0 1 -.729-.718m5.975-4.7c0 .287.016.575.016.862 0 .4-.2.56-.59.56-.295 0-.605-.017-.9-.017h-2.81c-.325 0-.636.032-.962.032-.357 0-.372-.208-.372-.623 0-.271 0-.415.109-.543.078-.08.14-.128.155-.223v-3.11a.31.31 0 0 0 -.14-.225c-.124-.144-.124-.271-.124-.559 0-.383.016-.607.372-.607.326 0 .637.016.962.016h2.81c.295 0 .59-.016.884-.016.372 0 .605.144.605.56 0 .27-.016.542-.016.8a.583.583 0 0 0 .341.591 10.335 10.335 0 0 0 1.04.495c.109.032.217.064.217.192 0 .016-.341 1.406-.591 1.406-.108 0-.139-.128-.155-.208a.373.373 0 0 0 -.17-.32c-.079-.047-.28-.175-.372-.223a.187.187 0 0 0 -.124-.031c-.141 0-.172.095-.187.224zm-3.942-3.253a.369.369 0 0 0 -.373.4v2.7a.364.364 0 0 0 .373.383h.419a.355.355 0 0 0 .372-.383v-2.7a.36.36 0 0 0 -.372-.4zm2.529 3.485a.364.364 0 0 0 .373-.383v-2.7a.369.369 0 0 0 -.373-.4h-.4a.368.368 0 0 0 -.371.4v2.7a.364.364 0 0 0 .371.383zm1.273 4.871c0-.1-.108-.208-.185-.271-.311-.32-1.771-1.869-1.771-2.236a1.108 1.108 0 0 1 .668-.75c.139 0 .264.192.388.351a12.057 12.057 0 0 0 1.708 1.884c.061.065.171.144.171.24a3.337 3.337 0 0 1 -.839 1.133c-.186 0-.14-.3-.14-.351m.684-12.234c-.31.4-.653.8-.993 1.182-.172.208-.684.862-.932.862a1 1 0 0 1 -.668-.718c0-.161.141-.271.249-.384.543-.559 1.024-1.165 1.52-1.773.078-.095.171-.238.311-.238a1.063 1.063 0 0 1 .7.718.645.645 0 0 1 -.185.351" transform="translate(0 -.161)"/><path d="m12.323 95.71c-.031.128-.093.3-.233.3-.109 0-.171-.1-.233-.176a1.5 1.5 0 0 0 -.931-.319 36.7 36.7 0 0 0 -5.292-.351c-1.335 0-3.26.032-3.26 1.9a4.335 4.335 0 0 0 1.6 3.194 4.626 4.626 0 0 0 2.312.975c.218.031.482.064.482.271 0 .3-.621 1.07-1.055 1.07a5.5 5.5 0 0 1 -1.754-.623 5.6 5.6 0 0 1 -2.95-4.791 3.342 3.342 0 0 1 1.179-2.66 5.813 5.813 0 0 1 3.4-.751c1.924 0 3.848.144 5.773.3a8.506 8.506 0 0 0 .915.033c.217 0 .372.015.372.223a10.148 10.148 0 0 1 -.326 1.4" transform="translate(-.031 -.21)"/><path d="m10.712 111.2c-.031.112-.078.3-.216.3-.094 0-.155-.064-.218-.161-.155-.191-.372-.208-.652-.255a9.561 9.561 0 0 0 -1.5-.112 9.309 9.309 0 0 0 -3.508.559c-.512.223-1.5.831-1.5 1.47 0 .463.729.991 1.086 1.2.14.08.388.208.388.4 0 .271-.512.894-.745.894-.295 0-1.258-.894-1.506-1.133a1.8 1.8 0 0 1 -.683-1.342 2.908 2.908 0 0 1 1.49-2.236 9.7 9.7 0 0 1 5.345-1.184c.5 0 1.785.048 2.3.08.141 0 .218.064.218.208a11.031 11.031 0 0 1 -.3 1.309m.218 6.772a4.964 4.964 0 0 1 -1.829 2.061 8.046 8.046 0 0 1 -3.1 1.149 2.384 2.384 0 0 1 -.481.049.314.314 0 0 1 -.357-.24 2.48 2.48 0 0 1 -.14-.766c0-.463.2-.447.5-.479a5.9 5.9 0 0 0 4.425-2.38.27.27 0 0 1 .232-.128 1.085 1.085 0 0 1 .761.734" transform="translate(-.05 -.245)"/><path d="m.063 134.5v-.367c0-.48.063-.751.746-.751.217 0 .434.047.434.3 0 .112-.047.67-.047 1.038v.335c0 .448.031 1.007.419 1.23a.442.442 0 0 0 .14.032c.187 0 .248-.176.248-.335v-6.082c0-.239-.061-.336-.279-.383-.295-.08-.466-.064-.466-.368 0-.223.094-.974.389-.974.016 0 .465.112.667.16.839.16 2.577.479 2.716.511h.078a.3.3 0 0 0 .326-.335c.016-.479-.03-.958-.03-1.438 0-.318.2-.318.59-.318.435 0 .59 0 .59.334 0 .528-.031 1.055-.031 1.581a.421.421 0 0 0 .388.479c.761.113 1.521.192 2.282.271.45.049.621.209.621.815 0 .367-.03.718-.03 1.086v5.254c0 .351.03.7.03 1.054 0 .7-.154.863-.838.863-.481 0-1.536-.08-2.049-.128-.279 0-.4.112-.4.4-.016.543.031 1.1.031 1.645 0 .335-.171.335-.59.335s-.59 0-.59-.319c0-.592.047-1.181.03-1.773a.428.428 0 0 0 -.4-.495q-.745-.072-1.489-.193h-.103a.312.312 0 0 0 -.326.352c-.015.512.047 1.022.047 1.534 0 .335-.154.351-.605.351s-.59-.016-.59-.351c0-.527.048-1.166.031-1.709a.472.472 0 0 0 -.388-.544c-1.6-.478-1.552-1.325-1.552-3.1m3.477-4.648c-.031 0-.062-.016-.094-.016-.232 0-.326.176-.326.383v1.932c.032.3.11.447.4.495l1.506.208h.078c.233 0 .326-.175.326-.382v-1.869c0-.319-.093-.463-.4-.511zm-.42 6.34c.032.319.11.463.4.512.513.095 1.009.159 1.522.208.279.031.387-.145.387-.4v-1.964c0-.3-.093-.448-.4-.5l-1.489-.208h-.077c-.248 0-.342.176-.342.383zm3.756-5.829c-.247 0-.326.176-.326.4v1.853c0 .3.093.446.388.495l1.366.192h.096c.233 0 .326-.176.326-.383v-1.853c0-.463-.016-.463-1.071-.607q-.3-.048-.7-.1zm.078 3.944h-.077c-.247 0-.326.176-.326.4v1.917c0 .318.093.447.4.495.186.015 1.165.08 1.3.08.434 0 .465-.128.465-.544v-1.66c0-.3-.093-.447-.4-.495zm4.222-3.976a.7.7 0 0 0 -.31-.686c-.372-.3-2.142-1.725-2.142-2.124 0-.225.388-.783.606-.783.154 0 .326.224.433.335a15.976 15.976 0 0 0 3.989 3.067c.078.048.171.1.171.208a5.055 5.055 0 0 1 -.217.75c-.124.335-.171.559-.31.559-.124 0-.171-.128-.186-.223-.047-.208-.124-.239-.357-.4a2.375 2.375 0 0 1 -.234-.144.182.182 0 0 0 -.124-.032c-.139 0-.185.1-.185.224v7.011c0 .623.047 1.23.047 1.853 0 .319-.155.335-.606.335s-.605-.016-.605-.335c0-.623.031-1.23.031-1.853z" transform="translate(-.002 -.284)"/><path d="m1.036 154.979c.216 0 .294-.112.294-.319v-5.478c0-.223-.078-.318-.294-.318h-.25c-.388 0-.435-.129-.435-.7s.048-.717.435-.717c.575 0 1.165.048 1.739.048h7.975c.466 0 .931-.033 1.4-.033.59 0 .776.208.776.8 0 .431-.031.846-.031 1.262v4.806c0 .415.031.83.031 1.23 0 .7-.248.831-.885.831-.326 0-.744-.033-1.288-.033h-7.931c-.591 0-1.179.048-1.754.048-.388 0-.419-.16-.419-.719s.031-.7.419-.7zm1.939-6.148a.442.442 0 0 0 -.435.448v5.3c.032.271.172.432.435.432h3.151a.439.439 0 0 0 .434-.432v-5.3a.441.441 0 0 0 -.434-.448zm4.749 5.749c.031.271.171.432.434.432h2.872a.437.437 0 0 0 .434-.432v-5.3a.44.44 0 0 0 -.434-.448h-2.871a.441.441 0 0 0 -.434.448z" transform="translate(-.011 -.33)"/><path d="m3.181 169.173a3.977 3.977 0 0 0 -.87 2.923 7.062 7.062 0 0 0 .3 2.2.408.408 0 0 1 .016.128c0 .27-.4.27-.807.27-.265 0-.544.017-.622-.175a12.332 12.332 0 0 1 -.186-2.332 6.97 6.97 0 0 1 .636-3.338c.14-.225.528-.767.822-.767.218 0 .932.576.932.8 0 .1-.14.225-.217.287m9.871.608c-.078 0-.125-.064-.171-.113-.186-.3-.311-.334-1.1-.558l-.853-.239a.544.544 0 0 0 -.171-.033.2.2 0 0 0 -.186.208 4.6 4.6 0 0 0 .14.592 9.191 9.191 0 0 0 .45 1.4 1.38 1.38 0 0 1 .124.432c0 .27-.621.255-.807.255-.31 0-.5-.017-.575-.208a21.494 21.494 0 0 1 -.62-2.619c-.11-.544-.125-.592-.606-.751a47.758 47.758 0 0 1 -6.938-3c-.357-.192-.605-.3-.605-.543s.4-1.071.7-1.071c.124 0 .342.177.45.256a33.44 33.44 0 0 0 6.348 3.018.563.563 0 0 0 .14.031.219.219 0 0 0 .217-.239c0-.176-.078-1.038-.078-1.628 0-.367 0-.544.155-.639a3 3 0 0 1 .932-.145c.171 0 .264.049.264.239 0 .113-.079.751-.079 1.422 0 .367.016.719.047 1.071a.491.491 0 0 0 .141.383 11.832 11.832 0 0 0 2.933.686c.171.016.372 0 .372.177 0 .015-.357 1.612-.621 1.612m-4.7 1.406a10.059 10.059 0 0 1 -.419 3.05.263.263 0 0 1 -.279.192 3.52 3.52 0 0 1 -.808-.192c-.139-.064-.217-.128-.217-.288a1.13 1.13 0 0 1 .093-.3 7.147 7.147 0 0 0 .357-2.429c0-.208-.015-.415-.015-.623 0-.319.108-.367.357-.367.993 0 .931.192.931.959m2.592 3.1c-.217 0-.605-.495-.605-.7 0-.095.093-.16.17-.223a15.721 15.721 0 0 0 1.227-1.087.338.338 0 0 1 .218-.128c.155 0 .542.511.542.67a6.52 6.52 0 0 1 -1.551 1.469m.915 1.6c-.2 0-.605-.495-.605-.685 0-.113.094-.177.171-.24a12.831 12.831 0 0 0 1.226-1.087c.048-.047.124-.128.2-.128.172 0 .559.512.559.671a6.232 6.232 0 0 1 -1.552 1.47" transform="translate(-.031 -.366)"/><path d="m12.587 190.147c0 .192-.047.416-.062.607-.016.464-.047.99-.233.99s-.186-.223-.745-.223c-.248 0-1.273.064-1.552.095-.233.017-.45.1-.45.384 0 .08.217 1.133.248 1.31a.942.942 0 0 1 .031.208c0 .287-.714.319-.932.319-.4 0-.371-.225-.527-1.5-.046-.335-.109-.623-.512-.623-.481 0-.978.031-1.474.031a7.424 7.424 0 0 1 -5.416-2.145c-.156-.144-.451-.415-.451-.64s.575-.926.822-.926c.11 0 .14.048.2.128a6.359 6.359 0 0 0 1.583 1.39 6.04 6.04 0 0 0 3.507.878c.994 0 1.413.032 1.413-.415 0-.144-.326-2.188-.372-2.491a2.872 2.872 0 0 1 -.062-.511c0-.367.527-.4.807-.4.513 0 .481.095.527.83.048.575.187 1.916.265 2.428a.425.425 0 0 0 .419.4c.093 0 1.164-.128 1.351-.144a10.9 10.9 0 0 0 1.257-.223c.047 0 .124-.016.171-.016.14 0 .186.144.186.255m-.652-5.462c-.062.223-.109.478-.279.478-.109 0-.141-.079-.186-.143-.11-.239-.187-.335-.544-.48a13.681 13.681 0 0 0 -4.455-.83 7.914 7.914 0 0 0 -2.47.387c-.047.032-.109.065-.109.145 0 .112.7.335.854.415.512.192.853.287.853.479 0 .128-.186.495-.341.495a13 13 0 0 0 -2.871-.591h-.43c-.357 0-.465-.224-.59-.528a1.337 1.337 0 0 1 -.124-.495c0-.223.155-.318.4-.463a10.074 10.074 0 0 1 4.811-1.117 18.375 18.375 0 0 1 5.091.83 1.849 1.849 0 0 0 .4.1c.124.032.31.064.31.225 0 .112-.279.925-.326 1.1" transform="translate(-.016 -.409)"/><path d="m10.992 200.335c.124 2.332.371 4.648.636 6.964.139 1.133.279 2.554.464 3.657a.905.905 0 0 1 .032.208c0 .208-.171.239-.326.271a5.014 5.014 0 0 1 -.839.1c-.341 0-.341-.223-.341-.623a9.351 9.351 0 0 0 -.31-2.715 4.877 4.877 0 0 0 -2.344-2.828 6.073 6.073 0 0 0 -3-.878 2.237 2.237 0 0 0 -2.158 1.262 4.931 4.931 0 0 0 -.264 1.837c0 .208.015.43.015.623s0 .367-.216.367a3.081 3.081 0 0 1 -1.008-.223c-.2-.1-.234-.192-.234-.431 0-2.571.884-4.855 3.756-4.855a7.009 7.009 0 0 1 4.8 2.011c.216.224.279.3.357.3.109 0 .139-.128.139-.208 0-.239-.263-2.141-.309-2.523-.124-.83-.249-1.661-.451-2.475a1.391 1.391 0 0 1 -.047-.239c0-.352 1.211-.464 1.3-.464.342 0 .31.208.342.862m-2.525 9.965c-.124.112-.667.623-.838.623-.218 0-.59-.511-.59-.718 0-.1.092-.16.17-.208.435-.319.854-.687 1.273-1.055.047-.032.14-.128.2-.128.186 0 .528.528.528.687s-.4.495-.746.8m-.031 2.475c-.2 0-.59-.512-.59-.719 0-.095.109-.16.186-.222a13.622 13.622 0 0 0 1.261-1.035c.061-.048.139-.128.216-.128.171 0 .527.527.527.7a6.468 6.468 0 0 1 -1.6 1.406" transform="translate(-.033 -.447)"/><path d="m10.712 220.126c-.031.112-.078.3-.216.3-.094 0-.155-.065-.218-.161-.155-.192-.372-.208-.652-.255a9.56 9.56 0 0 0 -1.5-.112 9.309 9.309 0 0 0 -3.508.559c-.512.223-1.5.831-1.5 1.469 0 .464.729.992 1.086 1.2.14.08.388.208.388.4 0 .272-.512.895-.745.895-.295 0-1.258-.895-1.506-1.133a1.8 1.8 0 0 1 -.683-1.342 2.906 2.906 0 0 1 1.49-2.236 9.69 9.69 0 0 1 5.354-1.182c.5 0 1.785.048 2.3.08.141 0 .218.065.218.208a11 11 0 0 1 -.3 1.31m.218 6.772a4.957 4.957 0 0 1 -1.838 2.06 8.048 8.048 0 0 1 -3.1 1.15 2.459 2.459 0 0 1 -.481.049.314.314 0 0 1 -.357-.24 2.485 2.485 0 0 1 -.14-.766c0-.463.2-.447.5-.48a5.9 5.9 0 0 0 4.425-2.379.27.27 0 0 1 .232-.128 1.085 1.085 0 0 1 .761.734" transform="translate(-.05 -.489)"/><path d="m10.712 238.511c-.031.111-.078.3-.216.3-.094 0-.155-.064-.218-.161-.155-.191-.372-.208-.652-.254a9.444 9.444 0 0 0 -1.5-.113 9.309 9.309 0 0 0 -3.508.56c-.512.223-1.5.83-1.5 1.469 0 .463.729.991 1.086 1.2.14.08.388.208.388.4 0 .272-.512.895-.745.895-.295 0-1.258-.895-1.506-1.134a1.8 1.8 0 0 1 -.683-1.342 2.906 2.906 0 0 1 1.49-2.235 9.69 9.69 0 0 1 5.354-1.182c.5 0 1.785.048 2.3.08.141 0 .218.064.218.208a11.09 11.09 0 0 1 -.3 1.31m.218 6.771a4.964 4.964 0 0 1 -1.832 2.06 8.047 8.047 0 0 1 -3.1 1.15 2.457 2.457 0 0 1 -.481.048.313.313 0 0 1 -.357-.24 2.48 2.48 0 0 1 -.14-.766c0-.463.2-.447.5-.479a5.9 5.9 0 0 0 4.425-2.38.272.272 0 0 1 .232-.128 1.085 1.085 0 0 1 .761.734" transform="translate(-.05 -.53)"/><path d="m2.655 258.569a2.189 2.189 0 0 1 0-4.376 2.189 2.189 0 0 1 0 4.376m0-3.658a1.47 1.47 0 0 0 0 2.938 1.47 1.47 0 0 0 0-2.938" transform="translate(-.016 -.569)"/></g></svg>