<svg height="256" viewBox="0 0 512 512" width="256" xmlns="http://www.w3.org/2000/svg"><g fill="#4b4b4b"><path d="m326.253 147.826-70.253 70.254-70.253-70.254-37.928 37.921 70.253 70.253-70.253 70.253 37.928 37.929 70.253-70.253 70.262 70.253 37.928-37.929-70.262-70.253 70.262-70.262z"/><path d="m437.018 74.99c-46.258-46.291-110.394-74.998-181.018-74.981-70.615-.017-134.76 28.69-181.018 74.981-46.283 46.241-74.99 110.395-74.982 181.01-.008 70.615 28.699 134.76 74.982 181.01 46.258 46.291 110.403 74.999 181.018 74.981 70.624.017 134.76-28.69 181.018-74.982 46.283-46.249 74.99-110.394 74.982-181.009.016-70.615-28.699-134.769-74.982-181.01zm-31.947 330.081c-38.222 38.181-90.774 61.739-149.071 61.739-58.289 0-110.849-23.558-149.071-61.739-38.182-38.231-61.731-90.79-61.748-149.071.016-58.28 23.566-110.848 61.748-149.071 38.222-38.19 90.782-61.739 149.071-61.739 58.298 0 110.849 23.55 149.071 61.739 38.182 38.223 61.74 90.791 61.748 149.071-.008 58.281-23.566 110.84-61.748 149.071z"/></g></svg>