<svg height="60" viewBox="0 0 60 60" width="60" xmlns="http://www.w3.org/2000/svg" xmlns:xlink="http://www.w3.org/1999/xlink"><clipPath id="a"><path d="m0 0h60v60h-60z"/></clipPath><g clip-path="url(#a)" fill="#333"><path d="m30 5.405c8.01 0 8.959.031 12.122.175a16.6 16.6 0 0 1 5.571 1.033 9.3 9.3 0 0 1 3.449 2.244 9.3 9.3 0 0 1 2.244 3.449 16.6 16.6 0 0 1 1.033 5.571c.144 3.163.175 4.112.175 12.123s-.031 8.959-.175 12.123a16.6 16.6 0 0 1 -1.033 5.571 9.935 9.935 0 0 1 -5.693 5.694 16.6 16.6 0 0 1 -5.571 1.033c-3.163.144-4.112.175-12.122.175s-8.96-.031-12.123-.175a16.6 16.6 0 0 1 -5.571-1.033 9.3 9.3 0 0 1 -3.449-2.244 9.3 9.3 0 0 1 -2.244-3.449 16.6 16.6 0 0 1 -1.033-5.571c-.145-3.165-.18-4.114-.18-12.124s.031-8.959.175-12.123a16.6 16.6 0 0 1 1.033-5.571 9.3 9.3 0 0 1 2.248-3.449 9.3 9.3 0 0 1 3.449-2.244 16.6 16.6 0 0 1 5.571-1.033c3.164-.144 4.113-.175 12.124-.175m0-5.405c-8.148 0-9.17.035-12.37.181a22.022 22.022 0 0 0 -7.282 1.394 14.706 14.706 0 0 0 -5.313 3.46 14.705 14.705 0 0 0 -3.46 5.314 22.02 22.02 0 0 0 -1.395 7.282c-.146 3.2-.18 4.221-.18 12.369s.034 9.169.18 12.369a22.02 22.02 0 0 0 1.394 7.282 14.705 14.705 0 0 0 3.46 5.314 14.706 14.706 0 0 0 5.313 3.46 22.022 22.022 0 0 0 7.282 1.394c3.201.146 4.223.181 12.371.181s9.169-.035 12.369-.181a22.021 22.021 0 0 0 7.282-1.394 15.34 15.34 0 0 0 8.774-8.774 22.02 22.02 0 0 0 1.394-7.282c.146-3.2.18-4.221.18-12.369s-.034-9.169-.18-12.369a22.02 22.02 0 0 0 -1.394-7.282 14.708 14.708 0 0 0 -3.46-5.314 14.706 14.706 0 0 0 -5.314-3.46 22.021 22.021 0 0 0 -7.283-1.394c-3.2-.146-4.221-.181-12.368-.181" transform="translate(.001)"/><path d="m137.961 122.556a15.405 15.405 0 1 0 15.405 15.405 15.406 15.406 0 0 0 -15.405-15.405m0 25.405a10 10 0 1 1 10-10 10 10 0 0 1 -10 10" transform="translate(-107.961 -107.961)"/><path d="m363.366 90.815a3.6 3.6 0 1 1 -3.6-3.6 3.6 3.6 0 0 1 3.6 3.6" transform="translate(-313.752 -76.829)"/></g></svg>