<svg height="66.586" viewBox="0 0 70 66.586" width="70" xmlns="http://www.w3.org/2000/svg" xmlns:xlink="http://www.w3.org/1999/xlink"><clipPath id="a"><path d="m0 0h70v66.586h-70z"/></clipPath><g clip-path="url(#a)"><path d="m70 28.355c0-15.635-15.7-28.355-35-28.355s-35 12.72-35 28.355c0 14.016 12.452 25.756 29.271 27.976 1.139.245 2.69.751 3.083 1.723a7.144 7.144 0 0 1 .113 3.158s-.409 2.466-.5 2.992c-.152.883-.7 3.454 3.032 1.883s20.156-11.848 27.501-20.287c5.069-5.551 7.5-11.187 7.5-17.445m-48.7 9.3h-6.955a1.836 1.836 0 0 1 -1.835-1.833v-13.882a1.835 1.835 0 0 1 3.67 0v12.052h5.12a1.833 1.833 0 1 1 0 3.666m7.193-1.833a1.834 1.834 0 0 1 -3.669 0v-13.885a1.834 1.834 0 0 1 3.669 0zm16.741 0a1.838 1.838 0 0 1 -1.834 1.833 1.845 1.845 0 0 1 -1.467-.733l-7.133-9.69v8.589a1.835 1.835 0 0 1 -3.671 0v-13.884a1.835 1.835 0 0 1 3.3-1.1l7.129 9.69v-8.59a1.835 1.835 0 0 1 3.67 0zm11.251-8.775a1.832 1.832 0 1 1 0 3.665h-5.117v3.278h5.118a1.833 1.833 0 1 1 0 3.666h-6.955a1.837 1.837 0 0 1 -1.831-1.835v-13.884a1.836 1.836 0 0 1 1.835-1.832h6.954a1.832 1.832 0 1 1 0 3.664h-5.121v3.278z" fill="#333"/></g></svg>