<svg height="70" viewBox="0 0 70 70" width="70" xmlns="http://www.w3.org/2000/svg" xmlns:xlink="http://www.w3.org/1999/xlink"><clipPath id="a"><path d="m0 0h70v70h-70z"/></clipPath><g clip-path="url(#a)" fill="#333"><path d="m147.573 208.453-2.356-1.837a3.286 3.286 0 0 0 -2.039-.7 3.327 3.327 0 0 0 -2.246.871 10.6 10.6 0 0 0 -1.11 1.136l.058.1.023.069-.186-.142c-.985 0-4.435-3-5.357-3.959-.973-.935-4.005-4.423-3.922-5.455a10.652 10.652 0 0 0 1.137-1.111 3.317 3.317 0 0 0 .17-4.284l-1.837-2.356a3.429 3.429 0 0 0 -.549-.545 3.492 3.492 0 0 0 -.316-.225 3.314 3.314 0 0 0 -1.377-.479 3.554 3.554 0 0 0 -.406-.023 3.208 3.208 0 0 0 -.784.1c-.94.238-4.437 2.508-4.354 4.359a9.016 9.016 0 0 0 .835 2.564 36.314 36.314 0 0 0 18.869 18.864 9.006 9.006 0 0 0 2.564.835h.065c1.756 0 4.025-3.289 4.295-4.356a3.32 3.32 0 0 0 -1.177-3.432" transform="translate(-105.467 -163.494)"/><path d="m259.255 139.156a18.275 18.275 0 0 0 -10.049-5.156 1.921 1.921 0 0 0 -2.218 1.9 1.9 1.9 0 0 0 1.572 1.888 14.578 14.578 0 0 1 12.067 12.056 1.9 1.9 0 0 0 1.886 1.57 1.921 1.921 0 0 0 1.9-2.22 18.311 18.311 0 0 0 -5.158-10.043" transform="translate(-213.306 -115.531)"/><path d="m248.348 195.416a6.908 6.908 0 0 1 4.454 4.447 1.928 1.928 0 0 0 1.83 1.356 1.909 1.909 0 0 0 1.846-2.445 10.752 10.752 0 0 0 -7.049-7.047 1.91 1.91 0 0 0 -2.445 1.844v.011a1.93 1.93 0 0 0 1.361 1.834" transform="translate(-213.305 -165.331)"/><path d="m34.911 0a34.911 34.911 0 1 0 34.911 34.911 34.911 34.911 0 0 0 -34.911-34.911m0 61.095a26.183 26.183 0 1 1 26.184-26.184 26.213 26.213 0 0 1 -26.184 26.184" transform="translate(0 .178)"/></g></svg>