<svg height="90.164" viewBox="0 0 444.086 90.164" width="444.086" xmlns="http://www.w3.org/2000/svg" xmlns:xlink="http://www.w3.org/1999/xlink"><clipPath id="a"><path d="m0 0h444.086v90.164h-444.086z"/></clipPath><g clip-path="url(#a)" fill="#201513"><path d="m7.7 25.83c0-13.8 0-16.276-.178-19.107-.178-3.008-.889-4.43-3.8-5.049a16.5 16.5 0 0 0 -3.011-.263c-.355 0-.711-.178-.711-.533 0-.526.441-.7 1.415-.7 3.982 0 9.557.263 10 .263.974 0 7.7-.263 10.446-.263 5.568 0 11.5.526 16.191 3.89a15.493 15.493 0 0 1 6.1 12.038c0 6.549-2.745 13.091-10.7 20.436 7.248 9.283 13.265 17.158 18.399 22.644 4.778 5.049 8.583 6.023 10.794 6.378a21.347 21.347 0 0 0 3.449.263c.441 0 .8.263.8.533 0 .526-.533.7-2.126.7h-6.282c-4.956 0-7.168-.441-9.464-1.678-3.8-2.041-6.9-6.378-11.946-13.013-3.72-4.859-7.876-10.789-9.65-13.086a1.413 1.413 0 0 0 -1.145-.533l-10.887-.178c-.441 0-.619.27-.619.711v2.117c0 8.5 0 15.487.441 19.206.27 2.567.8 4.508 3.456 4.864a38.391 38.391 0 0 0 3.982.356c.526 0 .7.263.7.533 0 .441-.441.7-1.415.7-4.864 0-10.439-.263-10.887-.263-.085 0-5.66.263-8.312.263-.974 0-1.415-.178-1.415-.7 0-.27.178-.533.7-.533a13.509 13.509 0 0 0 2.652-.356c1.771-.356 2.219-2.3 2.567-4.864.456-3.717.456-10.706.456-19.206zm7.075 7.7a1.153 1.153 0 0 0 .619 1.06c1.33.8 5.4 1.415 9.294 1.415a11.46 11.46 0 0 0 6.634-1.678c3.093-2.126 5.4-6.9 5.4-13.624-.002-11.065-5.84-17.703-15.312-17.703a26.316 26.316 0 0 0 -5.923.533 1.058 1.058 0 0 0 -.711 1.067z" transform="translate(0 1.066)"/><path d="m17.7 26.441c0-13.8 0-16.276-.178-19.114-.178-3.008-.882-4.423-3.8-5.042a16.5 16.5 0 0 0 -3.008-.263c-.356 0-.711-.178-.711-.533 0-.533.448-.7 1.415-.7 2.041 0 4.43 0 6.371.085l3.634.178c.619 0 18.225 0 20.258-.092a23.168 23.168 0 0 0 3.8-.441c.441-.085.8-.441 1.237-.441.27 0 .356.356.356.8 0 .619-.441 1.685-.711 4.16-.085.882-.263 4.778-.441 5.838-.085.441-.263.974-.619.974-.526 0-.7-.441-.7-1.152a9.569 9.569 0 0 0 -.531-3.198c-.619-1.41-1.508-2.47-6.279-3-1.507-.178-11.15-.263-12.124-.263-.356 0-.533.263-.533.882v24.422c0 .619.092.882.533.882 1.152 0 12.031 0 14.065-.178 2.126-.178 3.363-.356 4.16-1.237.619-.711.974-1.152 1.33-1.152.263 0 .441.178.441.711s-.441 2.034-.711 4.956c-.171 1.763-.348 5.042-.348 5.66 0 .7 0 1.678-.619 1.678-.448 0-.626-.356-.626-.8a9.135 9.135 0 0 0 -.348-2.915c-.356-1.244-1.152-2.745-4.6-3.1-2.389-.263-11.15-.441-12.657-.441a.558.558 0 0 0 -.619.619v7.786c0 3.008-.085 13.269 0 15.132.27 6.108 1.593 7.253 10.268 7.253 2.3 0 6.193 0 8.49-.974s3.363-2.738 3.982-6.371c.178-.967.356-1.323.8-1.323.533 0 .533.7.533 1.323 0 .711-.711 6.727-1.152 8.59-.619 2.3-1.33 2.3-4.778 2.3-6.634 0-11.505-.178-14.954-.263-3.449-.178-5.575-.27-6.9-.27-.178 0-1.685 0-3.541.092-1.771 0-3.8.178-5.134.178-.974 0-1.415-.178-1.415-.711 0-.263.178-.526.711-.526a13.581 13.581 0 0 0 2.652-.356c1.771-.356 2.211-2.3 2.567-4.871.441-3.712.441-10.7.441-19.2z" transform="translate(61.132 .455)"/><path d="m37.754 47.069c0 14.335 0 19.818-2.652 26.1-1.863 4.423-5.753 8.583-12.92 13.539a36.277 36.277 0 0 1 -3.449 2.211 1.322 1.322 0 0 1 -.619.178.582.582 0 0 1 -.619-.533c0-.533.441-.8 1.237-1.33a17.3 17.3 0 0 0 3.093-2.475c5.753-5.838 8.5-10.531 8.5-33.356v-25.566c0-13.809 0-16.284-.178-19.114-.178-3.008-.889-4.423-3.8-5.042a16.49 16.49 0 0 0 -3.008-.27c-.356 0-.711-.178-.711-.526 0-.533.441-.711 1.415-.711 3.982 0 9.557.263 10 .263s6.008-.263 8.668-.263c.974 0 1.415.178 1.415.711 0 .348-.356.526-.711.526a13.238 13.238 0 0 0 -2.211.27c-2.389.441-3.093 1.941-3.271 5.042-.178 2.83-.178 5.3-.178 19.114z" transform="translate(106.913 1.066)"/><path d="m58.519 0c19.903 0 34.771 12.558 34.771 33.179 0 19.818-13.98 36.186-35.3 36.186-24.24 0-34.331-18.843-34.331-34.771-.004-14.336 10.435-34.594 34.86-34.594m1.856 66c7.964 0 24.418-4.6 24.418-30.349 0-21.23-12.913-32.643-26.893-32.643-14.776 0-25.84 9.727-25.84 29.1 0 20.625 12.387 33.892 28.315 33.892" transform="translate(144.549 .003)"/><path d="m42.971 25.83c0-13.8 0-16.276-.178-19.114-.178-3.008-.882-4.423-3.8-5.042a16.442 16.442 0 0 0 -3.008-.263c-.356 0-.7-.178-.7-.533 0-.533.441-.7 1.415-.7 3.982 0 9.379.263 10.175.263s6.1-.263 8.753-.263c.974 0 1.422.171 1.422.7 0 .356-.356.533-.711.533a12.993 12.993 0 0 0 -2.211.263c-2.389.356-3.1 1.948-3.271 5.042-.178 2.837-.178 5.312-.178 19.114v12.386c0 12.742 2.83 18.225 6.634 21.858 4.338 4.067 8.312 4.864 13.361 4.864a18.6 18.6 0 0 0 13.894-6.371c4.061-5.041 5.12-12.567 5.12-21.68v-11.057c0-13.8 0-16.276-.178-19.114-.178-3.008-.882-4.423-3.8-5.042a16.441 16.441 0 0 0 -3.01-.263c-.356 0-.7-.178-.7-.533 0-.533.441-.7 1.415-.7 3.982 0 8.846.263 9.379.263.619 0 4.778-.263 7.431-.263.974 0 1.415.171 1.415.7 0 .356-.356.533-.711.533a13.071 13.071 0 0 0 -2.211.263c-2.389.533-3.093 1.948-3.271 5.042-.178 2.837-.178 5.312-.178 19.114v9.464c0 9.557-1.06 20.18-8.142 26.459-6.377 5.667-13.011 6.547-18.227 6.547-3.008 0-11.946-.356-18.225-6.286-4.338-4.153-7.7-10.353-7.7-23.266z" transform="translate(215.568 1.066)"/><path d="m61.163 41.408c0 8.5 0 15.48.441 19.2.27 2.567.8 4.515 3.449 4.864a38.559 38.559 0 0 0 3.982.356c.533 0 .711.27.711.533 0 .441-.441.7-1.415.7-4.871 0-10.439-.263-10.887-.263s-6.016.263-8.668.263c-.974 0-1.415-.171-1.415-.7 0-.263.178-.533.7-.533a13.652 13.652 0 0 0 2.659-.356c1.771-.348 2.211-2.3 2.567-4.864.441-3.719.441-10.7.441-19.2v-15.572c0-13.8 0-16.284-.178-19.114-.178-3.008-1.059-4.508-3.008-4.956a11.713 11.713 0 0 0 -2.742-.349c-.356 0-.7-.178-.7-.533 0-.533.441-.711 1.415-.711 2.915 0 8.49.27 8.931.27s6.016-.27 8.675-.27c.974 0 1.415.178 1.415.711 0 .356-.356.533-.711.533a13.07 13.07 0 0 0 -2.211.263c-2.389.441-3.093 1.948-3.271 5.042-.178 2.83-.178 5.312-.178 19.114z" transform="translate(287.803 1.06)"/><path d="m60.74 25.83c0-13.8 0-16.276-.171-19.107-.178-3.008-.889-4.43-3.8-5.049a16.576 16.576 0 0 0 -3.015-.263c-.348 0-.7-.178-.7-.533 0-.526.441-.7 1.415-.7 3.982 0 9.557.263 10 .263.974 0 7.7-.263 10.439-.263 5.564-.004 11.492.522 16.18 3.886a15.5 15.5 0 0 1 6.112 12.036c0 6.549-2.745 13.091-10.709 20.436 7.26 9.287 13.276 17.165 18.41 22.648 4.778 5.049 8.576 6.023 10.794 6.378a21.347 21.347 0 0 0 3.449.263c.441 0 .8.263.8.533 0 .526-.533.7-2.126.7h-6.279c-4.956 0-7.168-.441-9.464-1.678-3.8-2.041-6.9-6.378-11.953-13.013-3.722-4.857-7.879-10.787-9.65-13.084a1.426 1.426 0 0 0 -1.152-.533l-10.879-.178c-.441 0-.619.27-.619.711v2.117c0 8.5 0 15.487.441 19.206.263 2.567.8 4.508 3.449 4.864a38.559 38.559 0 0 0 3.982.356c.533 0 .711.263.711.533 0 .441-.441.7-1.415.7-4.871 0-10.439-.263-10.886-.263-.085 0-5.66.263-8.312.263-.974 0-1.415-.178-1.415-.7 0-.27.171-.533.7-.533a13.581 13.581 0 0 0 2.652-.356c1.771-.356 2.211-2.3 2.567-4.864.441-3.719.441-10.709.441-19.206zm7.082 7.7a1.153 1.153 0 0 0 .619 1.06c1.33.8 5.4 1.415 9.287 1.415a11.482 11.482 0 0 0 6.641-1.678c3.093-2.126 5.4-6.9 5.4-13.624-.003-11.065-5.848-17.703-15.313-17.703a26.443 26.443 0 0 0 -5.93.533 1.061 1.061 0 0 0 -.7 1.059z" transform="translate(324.15 1.066)"/></g></svg>