<svg height="20.116" viewBox="0 0 108.033 20.116" width="108.033" xmlns="http://www.w3.org/2000/svg" xmlns:xlink="http://www.w3.org/1999/xlink"><clipPath id="a"><path d="m0 0h108.033v20.116h-108.033z"/></clipPath><g clip-path="url(#a)" fill="#201513"><path d="m10.241 19.556c-5.781 0-7.837-2.653-7.837-8.7 0-2.5 0-5.662-.031-6.675-.089-2.953-.566-3.07-2.206-3.25-.208-.031-.237-.331 0-.331.925.029 2.354.089 3.19.089.443.004 1.967-.056 2.921-.089.237 0 .208.3 0 .327-1.283.179-1.639.356-1.73 3.248-.029.894 0 3.963 0 6.527 0 4.8.865 8.016 5.812 8.016 4.739 0 5.87-4.022 5.87-8.343 0-1.283.031-4.292-.06-7.093-.06-2-.536-2.235-1.788-2.354a.164.164 0 1 1 0-.327c.834.029 2.057.089 2.564.089s1.638-.057 2.383-.09a.164.164 0 1 1 0 .327c-1.1.119-1.489.655-1.549 2.354-.06 2.264-.091 5.244-.091 6.914 0 5.721-2.086 9.357-7.449 9.357" transform="translate(0 .56)"/><path d="m19.178 3.9c2.294 0 3.845 1.192 3.845 4.2 0 2.057 0 4.531.058 5.989.06 1.312.6 1.491 1.551 1.639a.164.164 0 1 1 0 .327c-1.044 0-1.639-.089-2.385-.089-.536 0-1.549.06-2.115.089-.208 0-.179-.3 0-.327.715-.089.925-.6.954-1.609.06-1.52.06-4.113-.029-5.93-.091-1.73-.746-3.1-2.8-3.1a4.764 4.764 0 0 0 -3.009 1.192c-.089 2.622-.089 5.691.031 7.688.089 1.489.416 1.578 1.549 1.757a.164.164 0 1 1 0 .327c-.984 0-1.878-.089-2.533-.089-.476 0-1.668.089-2.146.089-.208 0-.179-.3 0-.327.657-.148 1.013-.268 1.133-1.757.119-1.46.091-5.693.031-6.617-.095-1.635-.423-2.233-1.313-2.233h-.358a.164.164 0 1 1 -.029-.327 24.149 24.149 0 0 1 3.159-.715c.387 0 .476.208.476.894v.834a5.223 5.223 0 0 1 3.93-1.905" transform="translate(10.612 3.612)"/><path d="m29.108 9.135a48.282 48.282 0 0 0 5.036-.029c.865-.06.894-.449 1.1-.358.148.06-.06.746-.15 1.221-.119.746-.208 1.4-.208 1.4-.029.179-.358.208-.327 0 0-1.192-.774-1.192-2-1.252-.536-.029-2.5-.029-3.456 0 0 2.325.029 4.768.089 6.259.091 2.086.746 2.325 2.086 2.414a.164.164 0 1 1 0 .327c-1.013-.029-2.294-.089-3.217-.089-.865 0-2.057.06-2.951.089-.208 0-.208-.3 0-.327 1.372-.148 1.819-.447 1.878-2.622.029-1.013.06-4.739.06-5.752 0-2.323-.031-5.184-.06-6.2-.06-2.445-.119-3.04-2.027-3.279a.164.164 0 1 1 0-.327c.954 0 2.593.089 3.069.089 2.892 0 4.113 0 6.646-.089 1.429-.06 1.46-.091 1.281 1.549-.089.805-.179 1.668-.268 2.265-.031.239-.387.179-.358 0-.029-1.013.089-2.533-2-2.741a35.234 35.234 0 0 0 -4.173-.119c-.031 1.162-.091 5.423-.06 7.569" transform="translate(22.973 .55)"/><path d="m34.129 11.056c.031-3.4-.029-6.348-.119-7.777-.089-1.639-.416-2.237-1.31-2.237h-.358c-.208.031-.208-.3-.031-.327a24.149 24.149 0 0 1 3.159-.715c.387 0 .478.208.478.894.029 2.146 0 5.812 0 10.162 0 2.294 0 4.381.089 6.527.06 1.429.387 1.58 1.52 1.757.208 0 .268.329 0 .329-.982 0-1.878-.091-2.533-.091-.476 0-1.907.091-2.383.091-.239 0-.21-.3 0-.329.894-.148 1.281-.268 1.4-1.757.089-1.431.089-3.427.089-6.527" transform="translate(29.813 .001)"/><path d="m42.162 3.836a4.261 4.261 0 0 1 3.993 4.471c0 .119-.091.536-.418.536-.894-.029-2.385-.029-3.755-.029-1.281 0-2.593 0-3.1.029a8.929 8.929 0 0 0 -.06 1.192c0 3.367 1.52 5.215 4.082 5.215a4.234 4.234 0 0 0 3.19-1.31c.119-.119.327 0 .208.208a4.881 4.881 0 0 1 -4.2 2.294c-3.219 0-5.275-2.175-5.275-6.139 0-2.98 1.7-6.467 5.334-6.467m-3.218 4.352c.566.029 1.876.029 2.653.029.923 0 2-.029 2.562-.029.119-1.073-.148-3.726-2.294-3.726-1.907 0-2.682 1.759-2.92 3.726" transform="translate(34.118 3.554)"/><path d="m51.373 5.065a4.361 4.361 0 0 0 -.566.029c-.208.06-.268-.268-.029-.327 1.46-.3 2.562-.744 3.157-.774.626-.029.657.208.686.865 0 1.907-.06 4.381-.029 7 .029 3.308.356 3.487 1.907 3.487.179 0 .208.327 0 .327a20.023 20.023 0 0 0 -2.533.387c-1.013.179-1.164 0-1.252-1.847a5.732 5.732 0 0 1 -4.232 1.907c-1.729.002-3.482-.919-3.482-4.111 0-2.741.029-3.755 0-4.708-.091-1.639-.449-2.206-1.343-2.206a4.091 4.091 0 0 0 -.566.031c-.208.06-.268-.268-.029-.327 1.46-.3 2.562-.746 3.159-.774.626-.031.655.208.686.894 0 2.383-.091 4.708 0 7.211a2.518 2.518 0 0 0 2.682 2.741 4.67 4.67 0 0 0 3.128-1.191c0-.717.089-4.292 0-6.407-.06-1.639-.447-2.206-1.341-2.206" transform="translate(39.747 3.697)"/><path d="m55.231 7.029a4.48 4.48 0 0 1 4.022-3.1c1.073 0 1.4.387 1.223 1.551-.06.387-.119.894-.21 1.31-.06.15-.327.15-.327-.029.031-1.1-.774-1.4-1.668-1.372a3.25 3.25 0 0 0 -2.354 1.192 3.439 3.439 0 0 0 -.686 2.385c-.031.863-.06 3.038.06 5.036.089 1.341.3 1.549 2.115 1.7a.164.164 0 1 1 0 .327c-1.37 0-2.5-.091-3.129-.091-.507 0-1.372.091-2.115.091a.164.164 0 1 1 0-.327c.715-.119 1.042-.447 1.131-1.7.119-1.46.091-5.752.031-6.675-.089-1.639-.418-2.235-1.312-2.235a3.733 3.733 0 0 0 -.566.029c-.208.029-.208-.3-.029-.327 1.58-.327 2.562-.715 3.188-.746s.626.208.655.894c0 .894 0 1.162-.029 2.086" transform="translate(47.512 3.641)"/></g></svg>