<svg height="19.682" viewBox="0 0 108.996 19.682" width="108.996" xmlns="http://www.w3.org/2000/svg" xmlns:xlink="http://www.w3.org/1999/xlink"><clipPath id="a"><path d="m0 0h108.996v19.682h-108.996z"/></clipPath><g clip-path="url(#a)" fill="#201513"><path d="m18.343.2.43 5.134h-.442a8.558 8.558 0 0 0 -1.131-2.459 5.3 5.3 0 0 0 -1.656-1.594 3.841 3.841 0 0 0 -1.98-.558 2.845 2.845 0 0 0 -1.415.337 2.128 2.128 0 0 0 -.889.932 4.417 4.417 0 0 0 -.277 1.823v11.013a7.088 7.088 0 0 0 .167 1.8 2.139 2.139 0 0 0 .634 1 4.509 4.509 0 0 0 2.458.98v.428h-9.729v-.426a4.286 4.286 0 0 0 2.622-1.132 2.129 2.129 0 0 0 .512-.98 7.639 7.639 0 0 0 .139-1.67v-11.013a4.007 4.007 0 0 0 -.373-1.988 2.022 2.022 0 0 0 -.869-.807 2.892 2.892 0 0 0 -1.344-.297 4.035 4.035 0 0 0 -2.845 1.235 7.5 7.5 0 0 0 -1.925 3.375h-.43l.43-5.133zm-17.46.509-.192 2.028a8.649 8.649 0 0 1 1.009-1.269 4.9 4.9 0 0 1 1.075-.759zm6.13 17.624h4.044l-.538-.4a2.909 2.909 0 0 1 -.622-.566 1.154 1.154 0 0 1 -.124-.606v-.456a1.266 1.266 0 0 0 -.006-.153.548.548 0 0 1 -.006-.082v-12.904a.6.6 0 0 1 .006-.084 1.226 1.226 0 0 0 .006-.151v-.455a1.16 1.16 0 0 1 .153-.642 2.28 2.28 0 0 1 .594-.53l.787-.58h-4.254l.647.576a1.872 1.872 0 0 1 .47.558 1.4 1.4 0 0 1 .124.614v.456c.008.082.014.161.014.235v12.9c0 .074-.006.153-.014.235v.456a1.19 1.19 0 0 1 -.131.62 2.533 2.533 0 0 1 -.6.552zm10.282-17.624h-2a5.207 5.207 0 0 1 1.229.7 5.784 5.784 0 0 1 1.036 1.138z" transform="translate(0 .201)"/><path d="m9.872 19.04v-.43a3.241 3.241 0 0 0 2.166-1.144 4.573 4.573 0 0 0 .524-2.636v-10.421a8.5 8.5 0 0 0 -.139-1.823 2.137 2.137 0 0 0 -.51-.966 3.373 3.373 0 0 0 -2.041-.993v-.427h8.6v.427a3.306 3.306 0 0 0 -2.18 1.146 2.309 2.309 0 0 0 -.4.96 8.757 8.757 0 0 0 -.124 1.676v10.421a8.121 8.121 0 0 0 .145 1.773 2.269 2.269 0 0 0 .518 1.014 3.351 3.351 0 0 0 2.042.994v.43zm1.931-.7h4.03l-.538-.4a2.577 2.577 0 0 1 -.6-.552 1.193 1.193 0 0 1 -.131-.622c0-.147 0-.245-.008-.3s-.006-.1-.006-.161v-13.373c0-.054 0-.11.006-.165s.008-.153.008-.291a1.19 1.19 0 0 1 .131-.62 2.534 2.534 0 0 1 .6-.552l.787-.58h-4.527l.787.58a2.616 2.616 0 0 1 .608.538 1.229 1.229 0 0 1 .122.634c.01.157.014.309.014.456v13.373c0 .149 0 .3-.014.456a1.233 1.233 0 0 1 -.122.628 2.466 2.466 0 0 1 -.608.546z" transform="translate(9.949 .201)"/><path d="m31.555.634 1.588 4.983h-.413a11.249 11.249 0 0 0 -3.01-3.851 6.22 6.22 0 0 0 -3.809-1.186 7.229 7.229 0 0 0 -3.072.675 7.564 7.564 0 0 0 -2.56 1.962 8.671 8.671 0 0 0 -2.03 5.907 11.383 11.383 0 0 0 1.05 4.941 8.47 8.47 0 0 0 2.9 3.463 7.145 7.145 0 0 0 4.1 1.257 6.307 6.307 0 0 0 2.486-.464 3.078 3.078 0 0 0 1.544-1.249 4.923 4.923 0 0 0 .43-2.373v-.47a7.178 7.178 0 0 0 -.173-1.821 2.306 2.306 0 0 0 -.614-1.036 4.023 4.023 0 0 0 -2.472-.924v-.428h8.5v.428a2.489 2.489 0 0 0 -1.656 1.144 6.06 6.06 0 0 0 -.388 2.636v2.512l.843 1.271c-.128-.011-.276-.011-.441-.011a11.453 11.453 0 0 0 -2.044.179 21.72 21.72 0 0 0 -2.538.677 17.875 17.875 0 0 1 -2.548.657 13.964 13.964 0 0 1 -2.243.173 9.617 9.617 0 0 1 -7.053-2.514 9.932 9.932 0 0 1 -2.172-3.277 10 10 0 0 1 -.781-3.859 9.584 9.584 0 0 1 .8-3.877 10.014 10.014 0 0 1 2.221-3.22 10.48 10.48 0 0 1 7.317-2.939 19.172 19.172 0 0 1 2.883.261c.165.02.361.048.586.09s.655.116 1.291.229a4.452 4.452 0 0 0 .813.1c.038 0 .1-.006.195-.014a2.8 2.8 0 0 1 .3-.014.786.786 0 0 0 .165-.014m-7.838 18.55a12.911 12.911 0 0 1 -2.512-1.132 8.547 8.547 0 0 1 -1.837-1.546 9.561 9.561 0 0 1 -1.8-3.076 10.719 10.719 0 0 1 -.628-3.658 11.529 11.529 0 0 1 .456-3.216 8.948 8.948 0 0 1 1.325-2.775 11.936 11.936 0 0 1 2.913-2.733 12.367 12.367 0 0 0 -3.347 2.3 9.144 9.144 0 0 0 -2.068 3.048 9.521 9.521 0 0 0 -.7 3.644 9.5 9.5 0 0 0 1.028 4.4 8.474 8.474 0 0 0 2.907 3.245 9.351 9.351 0 0 0 4.264 1.49m6-8.668.815.608a2.58 2.58 0 0 1 .6.55 1.193 1.193 0 0 1 .131.622c0 .092 0 .175.006.249s.008.143.008.207v2.331a4.81 4.81 0 0 1 -.243 1.727 4.031 4.031 0 0 1 -.93 1.3 10.26 10.26 0 0 1 2.634-.7v-4.65c0-.149.006-.3.014-.456a1.18 1.18 0 0 1 .147-.642 2.123 2.123 0 0 1 .586-.53l.813-.608z" transform="translate(15.095)"/><path d="m42.5.634 1.588 4.983h-.416a11.222 11.222 0 0 0 -3.008-3.851 6.22 6.22 0 0 0 -3.809-1.186 7.222 7.222 0 0 0 -3.072.675 7.545 7.545 0 0 0 -2.56 1.962 8.671 8.671 0 0 0 -2.03 5.907 11.382 11.382 0 0 0 1.05 4.941 8.459 8.459 0 0 0 2.9 3.463 7.129 7.129 0 0 0 4.1 1.257 6.29 6.29 0 0 0 2.484-.464 3.083 3.083 0 0 0 1.546-1.249 4.923 4.923 0 0 0 .427-2.372v-.47a7.178 7.178 0 0 0 -.173-1.821 2.306 2.306 0 0 0 -.614-1.036 4.023 4.023 0 0 0 -2.472-.924v-.428h8.5v.428a2.489 2.489 0 0 0 -1.656 1.144 6.059 6.059 0 0 0 -.388 2.636v2.512l.843 1.271c-.125-.012-.273-.012-.44-.012a11.453 11.453 0 0 0 -2.044.179 21.72 21.72 0 0 0 -2.538.677 17.943 17.943 0 0 1 -2.548.657 13.964 13.964 0 0 1 -2.243.173 9.617 9.617 0 0 1 -7.053-2.514 9.932 9.932 0 0 1 -2.174-3.28 10 10 0 0 1 -.781-3.859 9.584 9.584 0 0 1 .8-3.877 10.014 10.014 0 0 1 2.223-3.216 10.47 10.47 0 0 1 7.319-2.94 19.172 19.172 0 0 1 2.885.261c.165.02.361.048.586.09s.655.116 1.291.229a4.452 4.452 0 0 0 .813.1c.038 0 .1-.006.193-.014a2.862 2.862 0 0 1 .305-.014.786.786 0 0 0 .166-.018m-7.838 18.55a12.912 12.912 0 0 1 -2.512-1.132 8.547 8.547 0 0 1 -1.837-1.546 9.561 9.561 0 0 1 -1.8-3.076 10.671 10.671 0 0 1 -.628-3.658 11.529 11.529 0 0 1 .456-3.216 8.9 8.9 0 0 1 1.325-2.775 11.936 11.936 0 0 1 2.913-2.733 12.336 12.336 0 0 0 -3.347 2.3 9.144 9.144 0 0 0 -2.074 3.052 9.521 9.521 0 0 0 -.7 3.644 9.5 9.5 0 0 0 1.028 4.4 8.485 8.485 0 0 0 2.905 3.245 9.368 9.368 0 0 0 4.267 1.49m6-8.668.813.608a2.5 2.5 0 0 1 .6.55 1.171 1.171 0 0 1 .133.622c0 .092 0 .175.006.249s.008.143.008.207v2.331a4.855 4.855 0 0 1 -.243 1.727 4.041 4.041 0 0 1 -.932 1.3 10.3 10.3 0 0 1 2.636-.7v-4.65c0-.149.006-.3.014-.456a1.18 1.18 0 0 1 .147-.642 2.123 2.123 0 0 1 .586-.53l.813-.608z" transform="translate(26.124)"/><path d="m45.671.2v.427a3.69 3.69 0 0 0 -2.387 1.132 2.3 2.3 0 0 0 -.462.994 8.179 8.179 0 0 0 -.131 1.656v10.531a9 9 0 0 0 .116 1.628 2.317 2.317 0 0 0 .422.98 2.885 2.885 0 0 0 2.361.787h.287a5.883 5.883 0 0 0 1.809-.283 6.982 6.982 0 0 0 1.8-.912 12.953 12.953 0 0 0 1.865-1.58 23.777 23.777 0 0 0 1.94-2.249h.428l-1.655 5.729h-15.264v-.43a3.236 3.236 0 0 0 2.164-1.144 4.537 4.537 0 0 0 .526-2.636v-10.421a8.372 8.372 0 0 0 -.139-1.823 2.121 2.121 0 0 0 -.512-.966 3.367 3.367 0 0 0 -2.039-.993v-.427zm-6.939 18.135h4.03l-.54-.4a2.577 2.577 0 0 1 -.6-.552 1.193 1.193 0 0 1 -.131-.622c0-.147 0-.245-.008-.3s0-.1 0-.161v-13.368c0-.054 0-.11 0-.165s.008-.153.008-.291a1.191 1.191 0 0 1 .145-.64 2.185 2.185 0 0 1 .586-.532l.789-.58h-4.511l.771.58a2.572 2.572 0 0 1 .608.538 1.226 1.226 0 0 1 .121.634c.006.157.014.309.014.456v13.373c0 .149-.008.3-.014.456a1.231 1.231 0 0 1 -.124.628 2.428 2.428 0 0 1 -.608.546zm12.352 0 .745-2.568a10.238 10.238 0 0 1 -3.216 2.568z" transform="translate(37.085 .201)"/><path d="m61.065.2.524 5.134h-.442a6.862 6.862 0 0 0 -2.132-3.5 5.729 5.729 0 0 0 -3.678-1.123h-.773a3.727 3.727 0 0 0 -2.56.7 3.051 3.051 0 0 0 -.753 2.325v4.689h1.835a5.476 5.476 0 0 0 3.036-.655 3.64 3.64 0 0 0 1.313-2.37h.414v6.983h-.414a6.313 6.313 0 0 0 -.739-2.1 2.483 2.483 0 0 0 -1.296-1.023 7.031 7.031 0 0 0 -2.271-.3h-1.878v5.98a6.578 6.578 0 0 0 .255 2.09 1.666 1.666 0 0 0 .9 1.016 4.5 4.5 0 0 0 1.8.289h1.269a6.173 6.173 0 0 0 3.562-1.158 17.113 17.113 0 0 0 3.658-3.618l.11-.151h.482l-1.63 5.632h-16.3v-.43a3.241 3.241 0 0 0 2.166-1.144 4.573 4.573 0 0 0 .524-2.636v-10.421a8.5 8.5 0 0 0 -.139-1.823 2.137 2.137 0 0 0 -.51-.966 3.373 3.373 0 0 0 -2.04-.993v-.427zm-13.776 18.135h4.03l-.538-.4a2.577 2.577 0 0 1 -.6-.552 1.173 1.173 0 0 1 -.131-.622c0-.147 0-.245-.008-.3s-.006-.1-.006-.161v-13.368c0-.054 0-.11.006-.165s.008-.153.008-.291a1.192 1.192 0 0 1 .145-.64 2.123 2.123 0 0 1 .586-.532l.787-.58h-4.527l.787.58a2.534 2.534 0 0 1 .6.552 1.17 1.17 0 0 1 .131.62c.01.157.014.309.014.456v13.373c0 .149 0 .3-.014.456a1.233 1.233 0 0 1 -.122.628 2.466 2.466 0 0 1 -.608.546zm9.565-10.5a4.382 4.382 0 0 1 -.6.49 6.763 6.763 0 0 1 -.891.394 3.665 3.665 0 0 1 1.492.9zm3.175-7.124h-1.988a5.1 5.1 0 0 1 1.243.689 6.349 6.349 0 0 1 1.048 1.146zm.649 17.624.773-2.568q-.5.554-.988 1a8.353 8.353 0 0 1 -1.1.847 12.08 12.08 0 0 1 -1.251.719z" transform="translate(45.71 .201)"/></g></svg>