<svg height="31.152" viewBox="0 0 71.009 31.152" width="71.009" xmlns="http://www.w3.org/2000/svg" xmlns:xlink="http://www.w3.org/1999/xlink"><clipPath id="a"><path d="m0 0h71.009v31.152h-71.009z"/></clipPath><g fill="#201513"><path d="m70.695 9.123h.314v21.873h-.314z"/><path d="m.002 30.838h71.007v.314h-71.007z"/><path d="m0 9.123h.314v21.873h-.314z"/><path d="m0 0h26.416v.314h-26.416z" transform="matrix(.93848097 -.34533096 .34533096 .93848097 .002 9.122)"/><g clip-path="url(#a)"><path d="m5.585 15.782h.415c0 .979 1.019 1.645 2.234 1.645 1.135 0 2.174-.666 2.174-1.665 0-.979-1.039-1.625-2.174-1.625-1.429 0-2.644-.823-2.644-2.056a2.339 2.339 0 0 1 2.599-2.081 3.273 3.273 0 0 1 1.645.43l-.274.294a2.908 2.908 0 0 0 -1.371-.314c-1.1 0-2.212.608-2.212 1.625a1.943 1.943 0 0 0 2.154 1.685c1.351 0 2.682.743 2.682 2a2.364 2.364 0 0 1 -2.584 2.114c-1.509 0-2.644-.939-2.644-2.056" transform="translate(3.697 6.623)"/><path d="m16.391 8.935a.391.391 0 1 1 .392.392.393.393 0 0 1 -.392-.392m.214 2.234h.411v7.638h-.411z" transform="translate(10.85 5.655)"/><path d="m25.016 10.2h.411v1.978a3.956 3.956 0 0 1 3.544-2.178v.412a3.5 3.5 0 0 0 -3.545 3.465v3.963h-.411z" transform="translate(16.56 6.623)"/><path d="m33.257 14.692a3.919 3.919 0 1 1 3.073 3.073 3.927 3.927 0 0 1 -3.073-3.073m7.319-.334a3.506 3.506 0 1 0 -3.021 3.021 3.506 3.506 0 0 0 3.021-3.021" transform="translate(21.965 6.623)"/></g></g></svg>