<svg height="38.044" viewBox="0 0 77.612 38.044" width="77.612" xmlns="http://www.w3.org/2000/svg" xmlns:xlink="http://www.w3.org/1999/xlink"><clipPath id="a"><path d="m0 0h77.612v38.044h-77.612z"/></clipPath><g clip-path="url(#a)" fill="#201513"><path d="m13.584 4.065q-.174.616-.4.617a.355.355 0 0 1 -.332-.206 2.66 2.66 0 0 1 -.2-.554 4.677 4.677 0 0 0 -1.061-1.822 2.107 2.107 0 0 0 -1.533-.743q-2.214 0-3.179 2.989a22.847 22.847 0 0 0 -.964 7.006 16.448 16.448 0 0 0 2.135-.3q1.185-.237 1.564-.3a18.368 18.368 0 0 1 2.974-.475q.632 0 .632.57a2.707 2.707 0 0 1 -.19.948q-.19.508-.569.507a1.692 1.692 0 0 1 -.633-.126 3.114 3.114 0 0 0 -1.2-.19 13.7 13.7 0 0 0 -2.088.314l-2.53.379q0 .792.19 4.4.316 5.569.316 8.888a1.948 1.948 0 0 1 -.126.838.517.517 0 0 1 -.505.238.713.713 0 0 1 -.665-.505 2.822 2.822 0 0 1 -.22-1.138q0-3.64-.477-11.42l-.063-1.013q-.255.032-1.629.286a12.535 12.535 0 0 1 -2.008.253 1.03 1.03 0 0 1 -.585-.158.533.533 0 0 1 -.238-.476q0-.79.57-.821.821-.032 1.992-.143t1.8-.238a21.376 21.376 0 0 1 1.41-8.428q1.408-3.242 4.191-3.242a3.687 3.687 0 0 1 1.882.507 4.41 4.41 0 0 1 1.391 1.233 2.349 2.349 0 0 1 .522 1.328 3.874 3.874 0 0 1 -.175 1"/><path d="m23.167 18.966a.664.664 0 0 1 .221.4 1.663 1.663 0 0 1 -.316.869c-.211.328-.421.49-.632.49q-.539 0-.823-.663a3.917 3.917 0 0 1 -.284-1.549q0-.76.095-4.555l.032-1.2a1.291 1.291 0 0 0 -.379-1.044q-1.424 2.405-2.657 4.176a16.834 16.834 0 0 1 -3.132 3.337 6.188 6.188 0 0 1 -3.985 1.564 1.97 1.97 0 0 1 -1.566-.632 2.408 2.408 0 0 1 -.554-1.644 8.291 8.291 0 0 1 1.139-3.464 28.581 28.581 0 0 1 2.911-4.459 23.562 23.562 0 0 1 3.541-3.722 10.364 10.364 0 0 1 1.867-1.282 2.928 2.928 0 0 1 1.234-.332 2.057 2.057 0 0 1 1.042.317 2.806 2.806 0 0 1 .918.885 2.29 2.29 0 0 1 .379 1.3 3.542 3.542 0 0 1 -.537 1.867l.537-.158q.35 0 .412.853.032.508.078 2.056t.08 2.562q.032 1.042.063 2.023c.021.654.042 1.17.063 1.551a.874.874 0 0 0 .253.457m-8.128-1.154a14.885 14.885 0 0 0 2.831-3.021q1.248-1.756 2.766-4.317a5.481 5.481 0 0 0 .381-2.055 1.791 1.791 0 0 0 -.4-1.155 1.293 1.293 0 0 0 -1.061-.489 3.508 3.508 0 0 0 -2.023 1.074 22.047 22.047 0 0 0 -3 3.21 26.827 26.827 0 0 0 -2.625 3.97 7.236 7.236 0 0 0 -1.044 3.1q0 .95.885.949a5.206 5.206 0 0 0 3.29-1.265" transform="translate(4.633 2.651)"/><path d="m36.224 5.576a2.538 2.538 0 0 0 -.522.411 19.026 19.026 0 0 0 -3.067 5.345 41.77 41.77 0 0 0 -2.246 7.528q-.095.474-.316 1.9l-.158 1.106a1.322 1.322 0 0 1 -.427.791 1.8 1.8 0 0 1 -1.155.284 6.9 6.9 0 0 1 -1.074-1.913q-.918-1.913-1.93-4.126l-1.36-2.974q-1.234-2.687-2.056-4.206t-1.201-1.522a.234.234 0 0 0 -.206.158c-.053.105-.111.158-.174.158a.328.328 0 0 1 -.268-.141.476.476 0 0 1 -.111-.3 2.086 2.086 0 0 1 .458-1.075q.458-.663.9-.663a.749.749 0 0 1 .474.126 1.892 1.892 0 0 1 .286.284q.124.158.19.253a31.826 31.826 0 0 1 2.625 5q.663 1.424 3.288 7.433l.728 1.676a17.767 17.767 0 0 1 .316-2.657 43.048 43.048 0 0 1 2.088-7.4 24.573 24.573 0 0 1 3.257-6.136 4.924 4.924 0 0 1 .617-.716.909.909 0 0 1 .62-.2q.158 0 .507.49a1.657 1.657 0 0 1 .347.648c0 .105-.143.253-.427.442" transform="translate(10.062 2.015)"/><path d="m42.2 16.482a8.406 8.406 0 0 1 -2.593 2.768 6.592 6.592 0 0 1 -3.823 1.15 3.917 3.917 0 0 1 -3.13-1.17 4.284 4.284 0 0 1 -1.012-2.909 16.2 16.2 0 0 1 .554-3.764 15.521 15.521 0 0 1 1.566-4.017c.041-.084.215-.4.521-.933a3.922 3.922 0 0 1 1.027-1.23 1.971 1.971 0 0 1 1.2-.427.987.987 0 0 1 .522.143.416.416 0 0 1 .236.363.855.855 0 0 1 -.173.3c-.117.158-.206.28-.269.364a14.814 14.814 0 0 0 -1.739 2.562 17.245 17.245 0 0 0 -1.376 3.194 11.61 11.61 0 0 0 -.49 3.448q0 2.5 3.036 2.5a4.622 4.622 0 0 0 2.643-.824 6.54 6.54 0 0 0 1.945-2.008 4.225 4.225 0 0 0 .727-2.166 2.817 2.817 0 0 0 -.727-1.929 12.361 12.361 0 0 0 -1.993-1.74 10.643 10.643 0 0 1 -1.2-.981 1.031 1.031 0 0 1 -.381-.632q0-.379.539-.617a3.112 3.112 0 0 1 1.265-.238 1.879 1.879 0 0 1 .537.048.174.174 0 0 1 .126.173.43.43 0 0 1 -.111.206.424.424 0 0 0 -.11.238q0 .095.632.632a14.376 14.376 0 0 1 2.12 2.12 3.944 3.944 0 0 1 .854 2.53 5.951 5.951 0 0 1 -.918 2.846" transform="translate(15.957 3.001)"/><path d="m51.3 7.9a1.111 1.111 0 0 1 -.68.364.628.628 0 0 1 -.427-.19 3.655 3.655 0 0 1 -.459-.539 1.92 1.92 0 0 0 -.584-.535 1.41 1.41 0 0 0 -.743-.221q-.916 0-2.467 2.419a37.5 37.5 0 0 0 -3.04 6.084q.032.729.111 1.835c.051.737.089 1.286.11 1.644l.095 1.265a1.536 1.536 0 0 1 -.19.775.731.731 0 0 1 -.695.332q-.539 0-.7-1.44t-.19-4.191q-.032-.695-.048-1.992t-.078-3.1q-.095-2.719-.095-3.89 0-.727.885-.727a.584.584 0 0 1 .648.459 8.96 8.96 0 0 1 .111 1.756v5.027a25.269 25.269 0 0 1 2.065-4.205 12.2 12.2 0 0 1 2.166-2.7 3.042 3.042 0 0 1 1.882-.934 2.942 2.942 0 0 1 1.328.317 2.883 2.883 0 0 1 1.011.806 1.543 1.543 0 0 1 .381.933.983.983 0 0 1 -.4.648" transform="translate(20.792 2.619)"/><path d="m51.968 3.286h-1.044a1.756 1.756 0 0 1 -1.091-.442c-.369-.295-.554-.539-.554-.728a.92.92 0 0 1 .332-.663.987.987 0 0 1 .68-.316 1.826 1.826 0 0 1 .79.505 6.694 6.694 0 0 1 .57.663 1.564 1.564 0 0 1 .316.507zm.522 19.914a.956.956 0 0 1 -.617.143q-.442-.034-.648-1.423t-.425-5.288q-.126-2.561-.221-5.012t-.129-3.779a.973.973 0 0 1 .111-.522.466.466 0 0 1 .426-.175.853.853 0 0 1 .918.6 9.1 9.1 0 0 1 .19 2.308l-.032 3.732q0 3.2.19 5.124 0 .095.286 2.025a13.863 13.863 0 0 1 .221 1.771.553.553 0 0 1 -.269.49" transform="translate(24.853 .573)"/><path d="m14.362 25.686a.3.3 0 0 1 -.2.071.248.248 0 0 1 -.141-.038.117.117 0 0 1 -.059-.1c0-.23.017-.584.05-1.065.033-.513.05-.942.05-1.282s-.009-.6-.029-.809-.066-.314-.138-.314c-.19 0-.4.236-.624.709s-.484 1.094-.775 1.865l-.126.334a.283.283 0 0 1 -.113.135.306.306 0 0 1 -.164.05.366.366 0 0 1 -.134-.017c-.023-.012-.036-.045-.042-.1l-.066-.687-.126-1.206q-.059-.72-.141-1.258a.951.951 0 0 1 -.026-.193.244.244 0 0 1 .108-.2.417.417 0 0 1 .251-.08q.083 0 .122.4c.026.269.051.7.08 1.3l.033.444q.068.846.077 1.073a.8.8 0 0 0 .045-.113 1.3 1.3 0 0 1 .054-.138 21.317 21.317 0 0 1 .851-1.957q.4-.783.766-.784c.173 0 .292.147.357.441a6.479 6.479 0 0 1 .122 1.127q.025.763.026 2.229a.221.221 0 0 1 -.084.171" transform="translate(5.827 10.839)"/><path d="m17.721 25.069a.175.175 0 0 1 .059.105.438.438 0 0 1 -.084.23c-.056.087-.111.129-.167.129a.238.238 0 0 1 -.218-.174 1.021 1.021 0 0 1 -.075-.411c0-.135.008-.537.024-1.208l.009-.317a.344.344 0 0 0 -.1-.278q-.377.639-.7 1.107a4.5 4.5 0 0 1 -.829.885 1.639 1.639 0 0 1 -1.056.415.519.519 0 0 1 -.415-.168.637.637 0 0 1 -.147-.435 2.184 2.184 0 0 1 .3-.918 7.66 7.66 0 0 1 .77-1.182 6.328 6.328 0 0 1 .939-.985 2.822 2.822 0 0 1 .495-.34.8.8 0 0 1 .326-.087.531.531 0 0 1 .277.084.753.753 0 0 1 .244.235.613.613 0 0 1 .1.344.937.937 0 0 1 -.143.493l.143-.042c.06 0 .1.077.108.227.006.089.012.271.021.545s.015.5.021.678.011.364.017.537.011.31.017.411a.235.235 0 0 0 .068.12m-2.154-.305a3.934 3.934 0 0 0 .751-.8q.329-.465.733-1.145a1.437 1.437 0 0 0 .1-.545.478.478 0 0 0 -.105-.307.344.344 0 0 0 -.28-.128.922.922 0 0 0 -.537.284 5.8 5.8 0 0 0 -.8.851 7.168 7.168 0 0 0 -.7 1.052 1.922 1.922 0 0 0 -.275.821c0 .167.078.251.235.251a1.377 1.377 0 0 0 .871-.335" transform="translate(7.069 10.81)"/><path d="m17.682 20.914h-.282a.465.465 0 0 1 -.289-.117c-.1-.078-.146-.141-.146-.193a.242.242 0 0 1 .087-.176.262.262 0 0 1 .181-.083.47.47 0 0 1 .209.134 1.537 1.537 0 0 1 .15.176.419.419 0 0 1 .084.134zm.138 5.276a.254.254 0 0 1 -.164.038c-.078-.006-.135-.131-.171-.378s-.074-.712-.113-1.4q-.034-.679-.059-1.328c-.017-.433-.029-.767-.033-1a.26.26 0 0 1 .029-.138.122.122 0 0 1 .113-.047.225.225 0 0 1 .244.159 2.431 2.431 0 0 1 .05.611l-.008.99q0 .846.05 1.357c0 .017.026.2.075.537a3.6 3.6 0 0 1 .059.469.146.146 0 0 1 -.071.129" transform="translate(8.558 10.26)"/><path d="m18.931 26.037a.576.576 0 0 1 -.242.05c-.068 0-.131-.078-.19-.238a2.241 2.241 0 0 1 -.087-.725q.007-.948.029-2.288t.038-2.019a1.385 1.385 0 0 1 .089-.453.283.283 0 0 1 .28-.209.087.087 0 0 1 .089.071 1.165 1.165 0 0 1 .021.272v.054.164q-.151 2.2-.15 4.3a1.521 1.521 0 0 0 .122.57c.08.2.12.308.12.319 0 .056-.036.1-.108.134" transform="translate(9.286 10.164)"/><path d="m24.366 24.123a.459.459 0 0 1 -.117.113c-.042.029-.069.045-.08.051a1 1 0 0 1 -.432-.214q-.3-.214-.784-.591a5.74 5.74 0 0 0 -1 1.157.907.907 0 0 1 -.105.146.116.116 0 0 1 -.087.038.258.258 0 0 1 -.147-.059.18.18 0 0 1 -.08-.15q0-.259.52-.779l.594-.6q-.636-.519-.892-.754c-.17-.156-.256-.281-.256-.378a.147.147 0 0 1 .05-.117.167.167 0 0 1 .1-.042.382.382 0 0 1 .147.093c.075.062.143.119.2.171l.134.113q.454.4.781.662c.307-.307.6-.591.883-.85a1.948 1.948 0 0 1 .49-.39.15.15 0 0 1 .117.059.2.2 0 0 1 .05.134.535.535 0 0 1 -.174.331c-.117.125-.311.3-.579.533l-.477.427c-.006-.006.069.047.226.159.167.128.308.229.423.3a.575.575 0 0 0 .265.11.289.289 0 0 0 .087-.018.341.341 0 0 1 .089-.017.089.089 0 0 1 .08.059.319.319 0 0 1 .029.143.252.252 0 0 1 -.054.155" transform="translate(10.841 10.968)"/><path d="m29.558 23.483a2.33 2.33 0 0 1 -.221.662 3 3 0 0 1 -.671.948 1.523 1.523 0 0 1 -1.1.436 1.272 1.272 0 0 1 -.9-.335 1.348 1.348 0 0 1 -.36-1.03 3.188 3.188 0 0 1 1.094-2.343 1.555 1.555 0 0 1 1-.408.951.951 0 0 1 .525.138.451.451 0 0 1 .214.4.77.77 0 0 1 -.331.57 3.174 3.174 0 0 1 -.859.486 5.165 5.165 0 0 1 -1.091.3 3.021 3.021 0 0 0 -.1.755 1.123 1.123 0 0 0 .23.754.819.819 0 0 0 .657.268 1.324 1.324 0 0 0 1.047-.46 4.336 4.336 0 0 0 .671-1.039c.011-.023.03-.065.059-.129s.053-.1.075-.1c.039 0 .059.042.059.125m-.934-1.65a.669.669 0 0 0 -.322-.075 1.034 1.034 0 0 0 -.612.209 1.945 1.945 0 0 0 -.49.5 1.769 1.769 0 0 0 -.256.52 3.006 3.006 0 0 0 .812-.218 3.524 3.524 0 0 0 .718-.385c.193-.14.289-.254.289-.344a.231.231 0 0 0 -.138-.209" transform="translate(13.267 10.799)"/><path d="m31.656 22.6q-.1.738-.108.829-.111 1.031-.155 1.572c-.032.36-.047.686-.047.976a2.374 2.374 0 0 0 .054.57 1.643 1.643 0 0 0 .117.331.57.57 0 0 1 .063.146c0 .051-.045.095-.134.134a.688.688 0 0 1 -.277.059q-.108 0-.171-.293a4.753 4.753 0 0 1 -.063-.913 11.535 11.535 0 0 1 .092-1.265l.126-1.157a4.672 4.672 0 0 1 -.558.835.914.914 0 0 1 -.683.4q-.325 0-.587-.57a7.209 7.209 0 0 1 -.552-2.345c0-.14.042-.211.125-.211.123 0 .2.114.235.344q.318 2.329.889 2.329a.536.536 0 0 0 .4-.179 3.631 3.631 0 0 0 .406-.558 3.378 3.378 0 0 0 .235-.469c.084-.2.149-.357.194-.486l.059-.847a.987.987 0 0 1 .05-.272.132.132 0 0 1 .134-.08.233.233 0 0 1 .168.1.287.287 0 0 1 .083.188 7.723 7.723 0 0 1 -.092.838" transform="translate(14.511 10.83)"/><path d="m34.51 23.483a2.33 2.33 0 0 1 -.221.662 2.976 2.976 0 0 1 -.671.948 1.523 1.523 0 0 1 -1.1.436 1.272 1.272 0 0 1 -.9-.335 1.348 1.348 0 0 1 -.36-1.03 3.188 3.188 0 0 1 1.089-2.342 1.555 1.555 0 0 1 1-.408.951.951 0 0 1 .525.138.451.451 0 0 1 .214.4.77.77 0 0 1 -.331.57 3.174 3.174 0 0 1 -.859.486 5.165 5.165 0 0 1 -1.091.3 3.021 3.021 0 0 0 -.1.755 1.123 1.123 0 0 0 .23.754.819.819 0 0 0 .657.268 1.324 1.324 0 0 0 1.047-.46 4.336 4.336 0 0 0 .671-1.039c.011-.023.03-.065.059-.129s.053-.1.075-.1c.039 0 .059.042.059.125m-.934-1.65a.669.669 0 0 0 -.322-.075 1.034 1.034 0 0 0 -.612.209 1.945 1.945 0 0 0 -.49.5 1.769 1.769 0 0 0 -.256.52 3.006 3.006 0 0 0 .812-.218 3.524 3.524 0 0 0 .718-.385c.193-.14.289-.254.289-.344a.231.231 0 0 0 -.138-.209" transform="translate(15.764 10.799)"/><path d="m34.5 26.037a.576.576 0 0 1 -.242.05c-.068 0-.131-.078-.19-.238a2.241 2.241 0 0 1 -.087-.725q.007-.948.029-2.288t.038-2.019a1.385 1.385 0 0 1 .089-.453.283.283 0 0 1 .28-.209.086.086 0 0 1 .089.071 1.165 1.165 0 0 1 .021.272v.054.164q-.151 2.2-.15 4.3a1.527 1.527 0 0 0 .122.57c.081.2.122.308.122.319 0 .056-.038.1-.11.134" transform="translate(17.138 10.164)"/><path d="m38.567 25.068a.175.175 0 0 1 .059.105.438.438 0 0 1 -.084.23c-.056.087-.111.131-.168.131-.095 0-.167-.059-.217-.178a1.009 1.009 0 0 1 -.075-.409c0-.135.008-.537.024-1.208l.009-.317a.338.338 0 0 0 -.1-.277q-.377.636-.7 1.106a4.5 4.5 0 0 1 -.829.885 1.639 1.639 0 0 1 -1.056.415.524.524 0 0 1 -.415-.168.637.637 0 0 1 -.147-.435 2.184 2.184 0 0 1 .3-.918 7.66 7.66 0 0 1 .77-1.182 6.246 6.246 0 0 1 .939-.984 2.74 2.74 0 0 1 .495-.34.779.779 0 0 1 .326-.089.546.546 0 0 1 .277.084.753.753 0 0 1 .244.235.612.612 0 0 1 .1.344.936.936 0 0 1 -.141.493l.141-.042c.062 0 .1.077.11.227.006.089.012.271.021.545s.015.5.021.678.011.364.017.537.011.31.017.411a.235.235 0 0 0 .068.12m-2.154-.305a3.974 3.974 0 0 0 .751-.8q.329-.465.733-1.143a1.443 1.443 0 0 0 .1-.545.472.472 0 0 0 -.105-.307.341.341 0 0 0 -.28-.129.931.931 0 0 0 -.537.284 5.8 5.8 0 0 0 -.8.851 7.168 7.168 0 0 0 -.7 1.052 1.922 1.922 0 0 0 -.275.821c0 .167.078.251.235.251a1.377 1.377 0 0 0 .871-.335" transform="translate(17.582 10.81)"/><path d="m40.672 25.035a2.149 2.149 0 0 1 -.785.545 2.573 2.573 0 0 1 -1.014.206 1.162 1.162 0 0 1 -.486-.068.205.205 0 0 1 -.126-.185c0-.05.065-.137.194-.263s.214-.188.259-.188c.068 0 .1.014.1.042a.086.086 0 0 1 -.042.066c-.027.023-.042.042-.042.059s.036.045.105.068a.838.838 0 0 0 .256.033 2.078 2.078 0 0 0 .709-.129 1.72 1.72 0 0 0 .582-.34.607.607 0 0 0 .226-.444.472.472 0 0 0 -.141-.361.894.894 0 0 0 -.357-.2c-.143-.042-.382-.1-.716-.179-.37-.084-.656-.158-.86-.223a1.513 1.513 0 0 1 -.489-.244.455.455 0 0 1 -.185-.373.964.964 0 0 1 .394-.737 3.056 3.056 0 0 1 .906-.528 2.468 2.468 0 0 1 .787-.193c.19 0 .286.056.286.168a.464.464 0 0 1 -.068.221.217.217 0 0 1 -.2.122.2.2 0 0 1 -.108-.038.208.208 0 0 0 -.117-.038 2.082 2.082 0 0 0 -.527.108 2.13 2.13 0 0 0 -.656.328.639.639 0 0 0 -.293.527.315.315 0 0 0 .232.3 5.944 5.944 0 0 0 .859.239 1.047 1.047 0 0 0 .15.038 1.2 1.2 0 0 1 .134.03 3.871 3.871 0 0 1 .988.343.622.622 0 0 1 .344.578 1.061 1.061 0 0 1 -.3.709" transform="translate(19.093 10.793)"/><path d="m44.012 26.368a.235.235 0 0 1 -.176.071.256.256 0 0 1 -.143-.038.117.117 0 0 1 -.059-.1l.017-.579c.029-.686.042-1.249.042-1.683a4.526 4.526 0 0 0 -.134-1.337c-.089-.254-.193-.381-.31-.381q-.395 0-.988 1.218t-1.148 2.661a1.061 1.061 0 0 1 -.114.226c-.047.072-.1.11-.146.11q-.185 0-.185-.117 0-.512-.041-1.915t-.068-1.849q-.074-1.5-.143-1.852c-.045-.235-.066-.36-.066-.376a.135.135 0 0 1 .092-.126.585.585 0 0 1 .235-.042q.117 0 .171.533t.08 1.361l.009.235c.011.173.02.669.024 1.488s.009 1.42.009 1.805q.386-.964.725-1.718a9.333 9.333 0 0 1 .784-1.411c.295-.439.569-.657.82-.657.214 0 .391.176.537.531a4.43 4.43 0 0 1 .218 1.589c0 .313 0 .749.017 1.307l.009.88a.242.242 0 0 1 -.068.171" transform="translate(20.349 10.214)"/></g></svg>