<svg height="31.778" viewBox="0 0 60.024 31.778" width="60.024" xmlns="http://www.w3.org/2000/svg" xmlns:xlink="http://www.w3.org/1999/xlink"><clipPath id="a"><path d="m0 0h60.024v31.778h-60.024z"/></clipPath><g clip-path="url(#a)" fill="#201513"><path d="m25.479 7.061a3.531 3.531 0 1 0 -3.5-3.5 3.528 3.528 0 0 0 3.5 3.5" transform="translate(29.326)"/><path d="m59.8 9.964a17.993 17.993 0 0 1 -.53 2.271c-1.4 4.65-4.414 8.067-7.439 8.854l5.469-16.928h-6.93q-.182.553-.359 1.106a6.8 6.8 0 0 1 -.436 1.179 12.62 12.62 0 0 1 -.661 1.109 11.266 11.266 0 0 1 -1.536 1.858 8.682 8.682 0 0 1 -1.734 1.324 6.812 6.812 0 0 1 -.637.324c-.056.026-.647.25-.647.25-.21-3.564-1.73-6.379-4.218-7.129-3.744-1.13-8.247 2.827-10.058 8.835a17.168 17.168 0 0 0 -.742 4.865 8.54 8.54 0 0 1 -5.112 3.326l1.186-3.672a10.515 10.515 0 0 0 .4-1.242c1.239-5.268-.1-10.149-3.191-11.589a4.9 4.9 0 0 0 -.6-.231c-2.292-.691-4.867.525-6.935 2.948l1.053-3.261h-6.943-.023c-3.345.2-6.87 3.861-8.427 9.026a15.941 15.941 0 0 0 -.53 7.43 17.993 17.993 0 0 1 .53-2.271c1.281-4.236 3.9-7.446 6.645-8.583l-5.381 16.66h6.938s2.3-7.007 2.309-6.951c1.772-5.546 5.836-9.26 9.393-8.679l-5.047 15.63h6.561a8.138 8.138 0 0 0 7.918-4.1 5.686 5.686 0 0 0 3.492 3.618c3.744 1.127 8.247-2.827 10.058-8.835.047-.161.084-.32.128-.481a7.415 7.415 0 0 0 3.081-1.562l-3.669 11.36h6.961c3.9-.065 7.467-3.5 9.134-9.026a15.951 15.951 0 0 0 .53-7.432m-23.963 8.48c-1.165-.35-1.65-2.15-1.088-4.02.5-1.669 1.674-2.824 2.747-2.8a8.1 8.1 0 0 0 1.629 3.394 5.75 5.75 0 0 1 -.161.682c-.563 1.867-1.963 3.1-3.128 2.747" transform="translate(0 5.323)"/></g></svg>