<svg height="28.393" viewBox="0 0 109.764 28.393" width="109.764" xmlns="http://www.w3.org/2000/svg" xmlns:xlink="http://www.w3.org/1999/xlink"><clipPath id="a"><path d="m0 0h109.764v28.393h-109.764z"/></clipPath><g clip-path="url(#a)" fill="#201513" transform="translate(0 .001)"><path d="m14.28 19.279v8.152a.706.706 0 0 1 -.729.64.673.673 0 0 1 -.731-.64v-8.152a5.19 5.19 0 0 0 -5.263-5.5c-4.481 0-6.411 3.436-6.15 6.963 0 .091.051.5.051.549v6.136a.673.673 0 0 1 -.729.64.673.673 0 0 1 -.729-.635v-26.792a.7.7 0 0 1 .729-.64.7.7 0 0 1 .729.64v15.16a7.185 7.185 0 0 1 6.1-3.3 6.561 6.561 0 0 1 6.723 6.779" transform="translate(0 -.001)"/><path d="m25.663 6.538v13.969a.735.735 0 0 1 -1.458 0v-2.93a8.614 8.614 0 0 1 -7.3 3.983 8.2 8.2 0 0 1 -8.391-7.968 8.2 8.2 0 0 1 8.391-7.968 8.614 8.614 0 0 1 7.3 3.983v-3.069a.735.735 0 0 1 1.458 0m-1.823 7.053a6.791 6.791 0 0 0 -6.932-6.686 6.824 6.824 0 0 0 -6.932 6.686 6.825 6.825 0 0 0 6.932 6.686 6.792 6.792 0 0 0 6.932-6.686" transform="translate(10.35 6.832)"/><path d="m32.792 12.381v8.152a.706.706 0 0 1 -.729.64.673.673 0 0 1 -.731-.64v-8.152c0-2.793-1.772-5.5-5.263-5.5-4.377 0-6.045 3.436-6.045 7.282v6.411a.736.736 0 0 1 -1.46 0v-14.011a.736.736 0 0 1 1.46 0v2.244a7.188 7.188 0 0 1 6.044-3.207 6.561 6.561 0 0 1 6.723 6.779" transform="translate(22.559 6.807)"/><path d="m44.2 6.538v13.969a.735.735 0 0 1 -1.458 0v-2.93a8.614 8.614 0 0 1 -7.3 3.983 8.2 8.2 0 0 1 -8.391-7.968 8.2 8.2 0 0 1 8.391-7.968 8.614 8.614 0 0 1 7.3 3.983v-3.069a.735.735 0 0 1 1.458 0m-1.823 7.053a6.936 6.936 0 0 0 -13.863 0 6.936 6.936 0 0 0 13.863 0" transform="translate(32.88 6.832)"/><path d="m45.441 6.363a.665.665 0 0 1 -.678.687c-4.273.549-6.2 3.618-6.2 7.191v6.136a.735.735 0 0 1 -1.458 0v-13.968a.735.735 0 0 1 1.458 0v2.838a7.894 7.894 0 0 1 6.1-3.48c.366 0 .782.23.782.6" transform="translate(45.09 7.007)"/><path d="m58.784 13.591a.723.723 0 0 1 -.782.642h-14.541a6.884 6.884 0 0 0 6.878 6.045 7.124 7.124 0 0 0 5.995-2.7.822.822 0 0 1 .625-.321.674.674 0 0 1 .731.642.607.607 0 0 1 -.1.319c-1.46 2.244-4.38 3.345-7.246 3.345a8.2 8.2 0 0 1 -8.389-7.971 8.43 8.43 0 0 1 16.834 0m-1.564-.64a6.937 6.937 0 0 0 -13.759 0z" transform="translate(50.981 6.832)"/></g></svg>