<svg height="194.158" viewBox="0 0 393.283 194.158" width="393.283" xmlns="http://www.w3.org/2000/svg" xmlns:xlink="http://www.w3.org/1999/xlink"><clipPath id="a"><path d="m0 0h393.283v194.158h-393.283z"/></clipPath><g clip-path="url(#a)" fill="#333"><path d="m0 191.41c.176-.118.48-.207.513-.357.3-1.35.59-2.706.8-4.072.047-.3-.243-.651-.385-1a4.144 4.144 0 0 0 2.12-2.955 7.544 7.544 0 0 1 .762-1.881c.742-1.561 1.929-2.915 1.9-4.824-.006-.519.705-1.013.947-1.579.484-1.147.807-2.365 1.319-3.5a31.654 31.654 0 0 1 1.611-2.85c.079-.132.292-.211.322-.34.284-1.265.539-2.538.813-3.8a3.388 3.388 0 0 1 .306-1.078c.61-.969 1.313-1.879 1.919-2.852a17.6 17.6 0 0 0 1.269-2.388c.653-1.548 1.167-3.156 1.863-4.684a16.673 16.673 0 0 1 1.38-1.905c.195-.3.223-.709.422-1 .32-.642.645-1.285.957-1.932.055-.111.012-.292.087-.363 1.656-1.581 1.4-4.031 2.57-5.754a11 11 0 0 0 1.7-4.12c.065-.32.693-.527 1.163-.857a7.514 7.514 0 0 1 2.009-4.966c.632-.612.746-1.8.991-2.758a8.41 8.41 0 0 1 2.416-4.23c.059-.053.136-.109.152-.176a19.641 19.641 0 0 1 .967-3.516c.4-.825 1.03-1.465.476-2.177.944-1.429 2.248-2.422 2.414-4.244a10.119 10.119 0 0 1 1.07-2.592c.034.043-.138-.166-.359-.432a3.171 3.171 0 0 0 1.4-2.985 6.13 6.13 0 0 1 .2-1.739c.278-1.346-.912-2-1.4-2.969-.61-1.206-1.494-2.274-2.2-3.437a4.821 4.821 0 0 1 -.324-1.309l-.989-.223a1.128 1.128 0 0 1 -.122-.326c-.032-.634-.063-1.269-.065-1.9 0-2.043.618-2.771 2.655-2.821a13.01 13.01 0 0 0 4.6-1.348c1.082-.436 2.306-.49 3.346-1.236 1.115-.8 2.311-1.4 2.379-3.042a4.09 4.09 0 0 1 .62-2.163c.9-1.21.367-3.087 2.045-3.97.434-.229.411-1.336.584-2.045.286-1.188.493-2.4.861-3.565.3-.94.8-1.812 1.182-2.728.365-.886.7-1.788 1.017-2.69.343-.955.667-1.917.981-2.882a15.644 15.644 0 0 0 .563-1.984c.026-.14-.361-.355-.606-.582 1.512-.27 1.473-1.66 1.911-2.75.389-.963.886-1.883 1.287-2.844a21.119 21.119 0 0 0 .7-2.043c.519-1.707.981-3.433 1.536-5.128.446-1.356.965-2.69 1.5-4.013.782-1.929 1.636-3.833 2.416-5.764.436-1.084.776-2.207 1.178-3.308a19.883 19.883 0 0 0 .908-2.819c.557-.4 1.65-.511.726-1.741-.122-.16.486-.8.645-1.257.375-1.072.679-2.171 1.076-3.468-1.887.116-3.344.225-4.8.29a17.862 17.862 0 0 0 -2.304.028c-.442.079-.817.537-1.222.823l.207.345c-1.5.091-3.01.152-4.508.29a3.262 3.262 0 0 0 -1.174.482c-.622.345-1.076 1.255-2 .383-.16-.15-.853.255-1.3.42a14.666 14.666 0 0 0 -3.263 1.54l1.757.219a17.444 17.444 0 0 1 -2.171 2.311c-1.463 1.07-2.754 2.523-4.785 2.572-.128 0-.259.188-.371.3a42.772 42.772 0 0 0 -3.829 4.137 3.479 3.479 0 0 0 -.1 2.592 11.067 11.067 0 0 0 1.484 2.953c.237.363 1.015.369 1.259.732 1.725 2.574 4.088 4.538 6.226 6.717.669.681 1.251 1.445 1.976 2.29.251.738.6 1.719.916 2.71.231.715-.91 2.025-1.567 1.711-.685-.328-1.763-.278-1.857-1.467-.018-.237-.5-.4-.647-.669a25.044 25.044 0 0 0 -5.041-5.87 39.976 39.976 0 0 1 -3.77-3.555c-.967-1.192-2.5-2.021-2.716-3.782a1.558 1.558 0 0 0 -.495-.815c-1.82-1.771-1.881-4.021-1.753-6.326a.637.637 0 0 1 .12-.347c1.167-1.455 2.29-2.953 3.535-4.341a6.21 6.21 0 0 1 3.446-2.386c1.214-.253 2.215-1.482 3.336-2.24a4.087 4.087 0 0 1 1.034-.393 29.719 29.719 0 0 0 2.933-.965c1.654-.744 3.221-1.682 4.891-2.379a21.674 21.674 0 0 1 3.178-.788 5.761 5.761 0 0 0 .79-.3 5.106 5.106 0 0 1 1.664-.649 3.513 3.513 0 0 0 3.176-1.411c.034.136.067.272.1.407a8.137 8.137 0 0 0 1.887-.438 8.1 8.1 0 0 1 4.21-1.169 2.418 2.418 0 0 0 2.3-.636c.274-.314 1.026-.266 1.565-.292.908-.041 1.439-.466 1.417-1.372-.049-2.031 1.062-3.671 1.762-5.453.057-.148.243-.259.261-.4a3.741 3.741 0 0 1 .912-2.552 1.642 1.642 0 0 0 .261-2.211c-.272-.355.486-1.512.8-2.29.132-.332.444-.622.482-.953.227-1.976.34-3.964.614-5.932a22 22 0 0 1 .879-3.02c.318.543.515.876.744 1.267 1.521-.575 2.147.733 3.11 1.486 1.009.8 1.95 1.52 1.664 2.929-.815.72-1.625 1.427-2.416 2.152a1.215 1.215 0 0 0 -.27.517q-.766 2.414-1.51 4.836a2.084 2.084 0 0 0 -.016.5c-.028.944.186 1.917-.7 2.688-.225.2-.093.807-.13 1.3h-.953c-.525 1.911-1.024 3.729-1.573 5.736a22.537 22.537 0 0 0 2.272-.014c1.287-.126 2.564-.373 3.849-.5a5.478 5.478 0 0 1 1.21.2c.73.1 1.467.134 2.189.261.742.13 1.471.332 2.2.511.351.085.736.33 1.044.253a6.5 6.5 0 0 1 3.413.336 15.067 15.067 0 0 1 3.774 1.948 20.7 20.7 0 0 1 2.978 2.394 14.131 14.131 0 0 1 1.457 1.948c1.255 1.692 2.562 3.354 2.6 5.624 0 .367.31.72.387 1.1a13.991 13.991 0 0 1 .225 1.794c.018.278-.195.622-.093.839.9 1.9-.418 3.5-.663 5.239-.061.434-.353.843-.375 1.271-.085 1.7-.975 3.194-1.275 4.747-.336 1.741-1.763 2.712-2.12 4.366-.186.859-1.388 1.457-1.978 2.284a26.989 26.989 0 0 0 -1.486 2.7 9.048 9.048 0 0 1 -.624.975c-1 1.364-1.99 2.744-3.048 4.064-.239.3-.847.286-1.117.574-1.652 1.763-3.2 3.624-4.893 5.347-1 1.024-2.221 1.832-3.31 2.775-1.4 1.214-2.746 2.505-4.177 3.687-.539.446-1.321.594-1.881 1.021-1.259.969-2.4 2.09-3.683 3.03-.831.61-1.889.912-2.716 1.528-1.289.963-2.981 1.224-4.082 2.558-.486.59-1.593.665-2.09 1.253-.758.9-1.419 1.777-2.681 1.911-.077.008-.2.061-.215.113-.5 1.925-2.44 1.534-3.63 1.836-1.271.32-1.828 1.328-2.864 1.731-.543.213-1.076.448-1.672.7-.012.158-.039.472-.063.788a1.967 1.967 0 0 0 -.728-.172 10.8 10.8 0 0 1 -1.427.314c-.345.148-.681.322-1.038.438-2.055.663-1.879 2.716-2.594 4.2a22.248 22.248 0 0 0 -1.192 3.06 8.134 8.134 0 0 0 -.531 2.72 4.667 4.667 0 0 0 .959 1.877 14.2 14.2 0 0 0 1.751 2.586 6.5 6.5 0 0 0 1.909 1.011 25.57 25.57 0 0 0 2.27 3.235c1.119 1.174 2.6 2.019 3.654 3.235a39.289 39.289 0 0 0 3.369 2.9c.456.422 1.338.683 1.431 1.139.316 1.538 1.39 1.7 2.6 1.818a.96.96 0 0 1 .559.255c1.676 1.78 4.283 2.424 5.62 4.613a1.026 1.026 0 0 0 .288.351c1.546.944 3.1 1.867 4.645 2.815 2.777 1.709 5.543 3.435 8.318 5.148a13.649 13.649 0 0 0 3.126 1.554c.069.434.138.867.237 1.484-1.411-.051-2.842-.02-4.248-.2-.525-.067-.989-.62-1.7-1.1l-.628.268c-.872-1.715-3.533-1.279-3.94-3.006-.795-.343-1.366-.545-1.9-.831a14.421 14.421 0 0 1 -2.758-1.628c-1.094-.953-2.493-1.358-3.521-2.529a7.879 7.879 0 0 0 -5.124-2.831c-.574-.059-1.084-.728-1.625-1.115-.636-.458-1.253-.951-1.917-1.366-1.465-.918-3.028-1.658-4-3.251-.34-.557-1.271-.724-1.836-1.184a11.862 11.862 0 0 1 -1.358-1.64 3.234 3.234 0 0 1 -2.126-1.3 31.778 31.778 0 0 0 -3.056-2.912c-1.212-1.129-2.422-2.26-3.849-3.589-.274.74-.5 1.354-.726 1.97-.057.158-.022.405-.124.476-1.429 1-1.052 2.736-1.66 4.066-.543 1.182-1.048 2.383-1.569 3.575-.448 1.021-.949 2.025-1.326 3.073a8.348 8.348 0 0 0 -.405 2.077 2.172 2.172 0 0 1 -1.232 2.069c-.253.113-.43.539-.517.855-.334 1.2-.584 2.42-.942 3.61a5.48 5.48 0 0 1 -.728 1.107 12.985 12.985 0 0 0 -1.38 2.4 25.456 25.456 0 0 0 -.645 3.263c-.047.241-.116.614-.272.677-2.181.865-1.5 3.624-3.259 4.864-.578.407-.509 1.719-.762 2.611a1.465 1.465 0 0 1 -.371.754 2.541 2.541 0 0 0 -1.058 2.641c.03.2.012.527-.107.6-1.127.72-1.046 1.818-1.277 2.965-.209 1.034-1.332 1.883-2.246 2.647-.308 1.1-.618 2.211-.878 3.146a4.411 4.411 0 0 0 -.817.786c-.379.63-.673 1.309-1.005 1.968-.071.138-.245.276-.231.4.3 2.422-1.463 4.3-1.725 6.628-.138 1.218-1.457 2.288-2.175 3.466a8.061 8.061 0 0 0 -.432 1.407c-.355.955-.764 1.889-1.109 2.848a10.988 10.988 0 0 0 -.4 1.538c-.2.959-.369 1.925-.574 2.884a.854.854 0 0 1 -.282.531 1.682 1.682 0 0 0 -.817 2.284c.152.486-.314 1.19-.557 1.769-.355.843-.76 1.662-1.147 2.491a10.381 10.381 0 0 1 -3.608 4.516c-1 .657-1.372-.351-1.98-.742-.3-.191-.618-.347-.928-.517v-1.263m47.986-102.553c1.958.061 2.854-1.83 4.52-1.415.014 0 .059-.063.067-.1.263-1.058 1.313-1.042 2.007-1.2a4.488 4.488 0 0 0 2.854-1.8c.116-.158.178-.42.328-.478 1.372-.545 2.815-.947 4.127-1.609 1.078-.543 1.911-1.575 3.259-1.575.028 0 .063-.053.089-.085 2.077-2.7 5.1-4.2 7.75-6.176.468-.349.8-.88 1.244-1.267 1.113-.961 2.24-1.905 3.391-2.819 1.088-.865 2.3-1.589 3.3-2.54 1.394-1.321 2.613-2.827 3.968-4.2.736-.744.932-1.962 2.24-2.26.5-.113.9-.886 1.238-1.427.651-1.054 1.153-2.2 1.844-3.227.669-.991 1.861-1.767 2.169-2.829a11.219 11.219 0 0 1 1.808-4.4 16.2 16.2 0 0 0 1.544-2.921c.039-.2.114-.606.195-1.009.286-1.423.673-2.833.835-4.27a27.682 27.682 0 0 0 .093-4.281 4.948 4.948 0 0 0 -.612-1.735c-.219-.472-.561-.888-.8-1.354-1.143-2.252-3.488-3.178-5.316-4.627-.957-.758-2.617-.63-3.96-.9-.241-.049-.484-.1-.722-.164-.687-.2-1.362-.46-2.061-.6-1.07-.211-2.154-.363-3.237-.495a3.894 3.894 0 0 0 -1.123.079 16.016 16.016 0 0 1 -1.652.355c-1.85.124-3.7.188-5.876.29.5.57.742.837.863.973-.867.661-1.654 1.261-2.623 2 .444 2.41-1.828 4.343-1.84 6.893 0 .118-.343.207-.476.355-.5.57-1.435 1.182-1.4 1.731.116 1.9-1.382 3.146-1.638 4.878-.191 1.3-.912 2.5-1.167 3.8a3.463 3.463 0 0 1 -1.484 2.371 2.643 2.643 0 0 0 -.811 1.23c-.278.756-.409 1.565-.651 2.337-.278.894-.614 1.767-.914 2.655-.292.859-.32 2.128-.91 2.489-.894.547-.776 1.21-.924 1.919-.049.243-.195.466-.255.707a10.654 10.654 0 0 0 -.661 2.965 5.989 5.989 0 0 1 -.981 3.581c-.94 1.575-2.082 3.056-2.434 4.947a23.348 23.348 0 0 1 -.881 2.851c-.776 2.406-1.544 4.814-2.341 7.213-.259.784-.59 1.546-.888 2.319-.338.874-.677 1.749-1.094 2.825" transform="translate(0 .002)"/><path d="m200.116 69.04a8.1 8.1 0 0 0 -1.881 1.255c-1.565 1.83-3.632 1.417-5.594 1.354-.424-.014-.79-.72-1.24-1.017-1.194-.788-1.08-2.159-1.269-3.257a12.7 12.7 0 0 1 .387-3.571c.051-.405.1-.809.154-1.228a4.909 4.909 0 0 0 -4.05 2.065c-.2.268-.825.213-1.251.318a17.139 17.139 0 0 0 -2.3.62c-.312.126-.486.6-.7.876-1.169.336-2.4.693-3.634 1.046-.041.012-.109-.01-.124.01-.936 1.319-2.408 1.755-3.8 2.323-.215.087-.361.371-.574.422-1.145.274-2.3.525-3.458.744-1.374.257-2.748.541-4.137.669-.454.043-.951-.369-1.425-.576-.752-.33-1.514-.642-2.25-1.005s-1.332-.715-1.3-1.769a1.783 1.783 0 0 0 -2.74-1.439 21.572 21.572 0 0 0 -2.36 1.62c-.182.136-.243.436-.128.853l-6.66 2.613-.314-.4a6.184 6.184 0 0 1 -.653 1.919 4.7 4.7 0 0 1 -1.948 1.546 11.281 11.281 0 0 1 -2.3.432 51.851 51.851 0 0 0 -5.888 1.51c-.687.17-1.621.426-2.1.116-1.133-.73-2.91-.4-3.518-1.7-.831-1.786-2.608-3.034-2.223-5.6a56.356 56.356 0 0 1 1.007-5.76 15.494 15.494 0 0 1 2.106-4.08c.744-1.192 1.662-2.274 2.505-3.407-.947-1.2-1.7-1.307-3.294-.484-.207.107-.482.28-.661.221-2.144-.7-4.191.8-6.206.385-1.751-.363-2.54 1.169-4.019 1.311.3 2.191-1.5 2.728-2.914 3.437-1.374.689-2.637 1.67-4.347 1.68a4.685 4.685 0 0 0 -2.1 1.072 2.32 2.32 0 0 0 -.6.892c-.415.8-.794 1.625-1.21 2.428a2.779 2.779 0 0 1 -2.315 1.455c-.819.146-1.447 1.4-2.14 2.187-1.169 1.321-2.383 2.608-3.462 4-.928 1.2-1.664 2.544-2.546 3.78-.509.713-1.326 1.253-1.676 2.021-.73 1.591-1.2 3.3-1.861 4.923a3.175 3.175 0 0 1 -1.048 1.449 1 1 0 0 1 -1.636-.46c-.067-.158-.539-.186-.827-.2-.645-.026-1.662.247-1.865-.053a4.612 4.612 0 0 1 -.985-2.765 32.368 32.368 0 0 1 1.3-4.915c.186-.671.375-1.34.636-2.27-.2-.318-.736-.973.515-1.257.118-.026.148-.432.223-.661a35.766 35.766 0 0 1 1.65-4.824 13.132 13.132 0 0 0 1.711-5.087c1.636-.722 3.587-3.942 3.393-5.742 1.737.261 1.232-1.453 1.907-2.175a6.676 6.676 0 0 0 .622-1.019 15.994 15.994 0 0 1 1.632-2.414c.464-.495 1.5-1.161 1.806-.975 1.443.884 3.519 1.1 3.936 3.247a3.423 3.423 0 0 0 .28.776c-1.238 1.646-2.363 3.137-3.547 4.71 2.177 1.273 2.775-1.585 4.595-1.234-.353-1.737 1.161-1.877 2.126-2.485 1.563-.983 3.135-1.966 4.775-2.805 1.309-.671 2.787-1.015 4.08-1.711a7.089 7.089 0 0 1 3.792-.841 1.6 1.6 0 0 0 .949-.219c1.6-1.145 3.34-1.1 5.2-.928a40.834 40.834 0 0 0 4.524-.162c1.23-.026 2.461.051 3.691.053 1.581 0 3.16-.026 4.741-.036a2.246 2.246 0 0 1 2.189 2.2c.014.373.476.73.762 1.133-.03.582-.071 1.313-.1 1.952-1.591.916-3.452 1.226-4.72 2.671-1.086 1.234-2.284 2.373-3.348 3.626a4.129 4.129 0 0 0 -.742 1.672c-.383 1.575-.351 1.583-1.694 2.053v5.979c.908-.334 1.786-.665 2.669-.979a1.889 1.889 0 0 1 .827-.219c1.5.237 2.42-.75 3.425-1.569.215-.176.456-.478.673-.47 2.43.105 3.719-2.075 5.711-2.809 2.035-.75 3.358-2.71 5.288-3.377 2-.693 3.052-2.118 4.285-3.533.28-.322.847-.385 1.147-.7 1.171-1.206 1.447-2.866 2.1-4.337.118-.266.182-.553.314-.809.474-.926.967-1.842 1.455-2.76.087-.164.156-.391.3-.466 1.642-.876 4.4.768 4.435 2.621.008.46-.316 1.119.61 1.094a1.307 1.307 0 0 1 .1.586c-.126.961-.324 1.913-.4 2.876a1.726 1.726 0 0 0 .215.8c-.588.671-1.04 1.214-1.518 1.731-.371.4-.758.786-1.165 1.147-1.33 1.188-1.747 1.24-.606 2.783-.314.624-.74 1.094-.742 1.565 0 .636-.869 1.486.081 1.871.488.2 1.236-.278 1.875-.413a13.972 13.972 0 0 0 3.233-.7c1.786-.886 3.9-.863 5.523-2.246a14.651 14.651 0 0 1 2.931-1.4c.576-.292 1.078-.726 1.636-1.056a1.965 1.965 0 0 1 .825-.286c.912 1.471 2.065.28 3.085.4l-.17-.4a9.567 9.567 0 0 1 1.486-.983c1.206-.513 2.477-.874 3.666-1.419.33-.152.462-.736.687-1.125 2.031.314 3.02-2.173 3.5-4.159a5.7 5.7 0 0 0 3.139-3.729c.62-1.775 1.739-2.436 3.843-1.3 1.145.616 2.037 1.182 1.867 2.523-.075.582-.622 1.1-1.052 1.816l-1.021.164c.2.484.379.9.557 1.319-.266.519-.608 1.182-.859 1.67-.606.381-1.107.7-1.794 1.129a18.77 18.77 0 0 0 -2.049 3.344 19.944 19.944 0 0 0 -.72 3.989 26.53 26.53 0 0 1 2.752-1.111 3.258 3.258 0 0 1 1.723-.016 5.1 5.1 0 0 1 .1 2.446 26.253 26.253 0 0 1 -1.459 3.407" transform="translate(93.162 49.079)"/><path d="m203.605 49.346c.58.045 1.159.1 1.739.126a6.518 6.518 0 0 1 1.011-.018c1.613.351 2.379-1.013 3.545-1.6 1.271-.634 1.48-1.942 2.418-2.74.62-.525.835-1.5 1.409-2.112a17.594 17.594 0 0 1 2.789-2.386c.286-.2.928.105 1.4.2a3.854 3.854 0 0 0 .908.249c1.324-.091 1.934.732 2.669 1.672.632.811 1.769 1.206 2.548 1.932 1.141 1.064 3.028.981 3.814 2.548a.325.325 0 0 0 .182.15c1.123.278 2.254.525 3.371.827a12.741 12.741 0 0 1 2.511.841c.288.148.341.8.45 1.238a9.716 9.716 0 0 1 .444 2.191 1.826 1.826 0 0 1 -.624 1.344c-.484.338-1.457.728-1.727.5-1.526-1.277-3.364-1.2-5.112-1.332a40.833 40.833 0 0 1 -5.59-.576c-1.267-.274-2.706.239-4.07.4a3.793 3.793 0 0 1 -.5.067c-2.408-.028-3.879 1.382-5.118 3.235-1.042 1.559-2.221 3.024-3.253 4.589-.876 1.33-1.627 2.742-2.529 4.277a3.143 3.143 0 0 0 -2.467 2.134 18.5 18.5 0 0 1 -1.486 2.45 10.4 10.4 0 0 0 -.539 2.029c-.375.61-.823 1.4-1.328 2.146-.857 1.277-1.84 2.481-2.588 3.816a5.363 5.363 0 0 0 -.2 2.059 8.4 8.4 0 0 0 1.646-.332c1.3-.535 2.566-1.137 3.818-1.761a8.483 8.483 0 0 0 1.113-.851 2.155 2.155 0 0 1 .606-.338 57.171 57.171 0 0 0 5.711-1.8c1.013-.434 1.719.456 2.58.13.081.239.278.659.227.691-.78.5-1.613.92-2.392 1.423-.675.434-1.293.955-1.946 1.425a3.794 3.794 0 0 1 -1.216.78 2.122 2.122 0 0 0 -1.629 1.431c-.28.653-.62 1.291-1.585 1.206a2.129 2.129 0 0 0 -1.188.527 16.144 16.144 0 0 0 -1.332 1.153c.164.215.4.525.642.835-.407.239-.827.464-1.222.726a3.9 3.9 0 0 0 -1.143.863c-.492.72-2.564 2.144-3.219 2.065-.355 1.932-1.526 2.436-3.243 1.413-.2-.12-.561-.3-.645-.225-1.046.94-2.071.227-3.077-.032-.4-.1-.957-.373-1.06-.691-.7-2.154-.983-4.337.134-6.467a7.26 7.26 0 0 0 1.149-3.269c.02-.794.744-1.561 1.1-2.359.247-.551.328-1.184.624-1.7.959-1.662 2.15-3.212 2.943-4.945 1.338-2.931 3.6-5.28 4.9-8.223a5.889 5.889 0 0 1 1.518-1.954 3.485 3.485 0 0 0 1.078-1.875c.314-1.068 1.3-1.942 2.023-2.947-.332-.373-.671-1.062-1.409-.176-.172.209-.61.237-.934.272-1.97.211-3.944.4-5.914.6-.79.081-1.581.18-2.371.27l.109.322c-.5.223-1.019.428-1.512.675-.316.158-.6.387-.906.561a1.955 1.955 0 0 1 -.821.381c-1.092 0-2.183-.107-3.275-.134a3.2 3.2 0 0 0 -2.381.651c-.565.454-1.9.274-2.742-.034a2.235 2.235 0 0 0 -2.1.255c-2.09 1.5-4.388 1.512-6.8 1.439a7.776 7.776 0 0 0 -2.608.88c-.182.067-.332.259-.511.284a60.671 60.671 0 0 0 -8.2 1.169c-1.522.424-2.783-.193-4.173-.124-.811.043-1.733-.774-2.483-1.364a4.842 4.842 0 0 1 -.872-1.492l-.371.428a4.435 4.435 0 0 0 .158-1.178c-.172-1.3.387-1.6 1.627-1.692 1.824-.13 3.622-.6 5.436-.9.784-.128 1.585-.168 2.371-.292a9.819 9.819 0 0 1 2.886-.454 9.274 9.274 0 0 0 3.478-.332c2.027-.407 4.054-.835 6.1-1.151 1.344-.209 2.716-.207 4.072-.347a51.72 51.72 0 0 0 7.29-.886c1.751-.44 3.474-.746 5.247-1.019 1.743-.272 3.516-.495 5.253-.89 1.4-.32 2.842-.484 4.258-.744a9.024 9.024 0 0 0 1.123-.359l-.024.221" transform="translate(158.465 41.643)"/><path d="m69.495 87.691c.049 1.4-.932 1.032-1.621.971-1.5-.132-2.983-.336-4.39.466a1.388 1.388 0 0 1 -.869.028 16.319 16.319 0 0 1 -1.962-.513c-.774-.266-1.97.176-2.055-1.34-.02-.381-.821-.711-1.246-1.082-.3-.263-.578-.559-1.044-1.017-1.2-.156-1.784-1.461-2.406-2.513-.7-1.19-.851-2.712-1.571-3.889a7.849 7.849 0 0 1 -1.212-4.356 14.172 14.172 0 0 1 .44-2.542 15.6 15.6 0 0 1 .58-2.463c.738-1.94 1.583-3.839 2.349-5.768a6.835 6.835 0 0 0 .282-1.261 3.36 3.36 0 0 0 .979-.3c.865-.63.314-1.246-.237-1.938.454-.134.874-.136 1.1-.347a8.5 8.5 0 0 0 1.336-1.567 16.41 16.41 0 0 0 .861-1.745 7.677 7.677 0 0 0 .855-1.725 2.01 2.01 0 0 1 .9-1.611c.57-.369.7-1.354 1.2-1.905 1.131-1.244 2.1-.051 3.083.377.446.195.762.673 1.2.9a1.217 1.217 0 0 0 .865-.1c.965-.393 1.749-1.214 2.955-1.044.326.045.726-.405 1.086-.632.235-.148.462-.428.7-.436 1.782-.061 3.33-1.848 5.284-.7a2.217 2.217 0 0 0 1.224.247 5.89 5.89 0 0 1 4.388 1.348c.561.476 1.015 1.174 1.658 1.441 1.421.592 1.763 1.994 2.242 3.1s.286 2.544.306 3.839c.016 1.03-.282 2.035-.318 3.085-.028.882-.983 1.869-1.757 2.55-.916.811-2.353 1.129-3.073 2.047-1.253 1.6-3.166 2.047-4.674 3.17-.8.6-2.106.466-3.133.811-.484.162-.855.671-1.538 1.242a5.827 5.827 0 0 0 -3.571 1.319 4.725 4.725 0 0 1 -1.129.389 9.608 9.608 0 0 1 -1.194.454 3.575 3.575 0 0 1 -1.413.109 3.549 3.549 0 0 0 -1.958-.055c-.618.191-1.482-.32-2.207-.6-.774-.292-1.668-.45-1.85-1.536-.043-.251-.545-.653-.724-.6a1.591 1.591 0 0 0 -.825.75 10.655 10.655 0 0 0 -.766 1.828 2.738 2.738 0 0 0 -.237 1.433c.436 1.471.987 2.91 1.534 4.345a13.652 13.652 0 0 0 1.034 2.284 3.414 3.414 0 0 0 2.483 1.822 21.157 21.157 0 0 0 2.11.478c2.242.059 4.5.9 6.741-.225a2.447 2.447 0 0 1 2 0 1.78 1.78 0 0 1 .537 1.67 5.27 5.27 0 0 1 -1.978 1.484c-.3.154-.8-.1-1.344-.184m-.081-28.384-.407-.109c-.807.588-1.6 1.2-2.43 1.745-.144.1-.474-.006-.679-.1-1.3-.624-2.116-.43-2.752.8-.484.932-.861 1.921-1.265 2.84-.039-.045-.154-.182-.3-.347-1.206 4.876-.724 4.244.438 4.611-.085.578-.164 1.109-.243 1.64a12.8 12.8 0 0 0 2.092.138 9.344 9.344 0 0 0 1.7-.521 15.431 15.431 0 0 0 2.868-.869c1.222-.655 2.286-1.6 3.466-2.339 1.1-.7 2.262-1.309 3.409-1.934a15.737 15.737 0 0 0 2-1.021c.886-.669 1.621-1.532 2.495-2.219 1.923-1.514 3.212-3.241 2.4-5.643a11.018 11.018 0 0 1 -1.857-.563c-.486-.247-.829-.8-1.323-1-.306-.122-.776.188-1.178.278-.158.034-.336-.028-.5-.006-.2.026-.507.028-.59.156-.744 1.133-1.988 1.236-3.1 1.688-.742.3-2.483.29-1.475 2.031.043.071-.041.223-.081.334-.584 1.642-1.3 1.972-2.811 1.506.043-.4.079-.744.116-1.09" transform="translate(52.485 50.579)"/><path d="m91.918 80.436c.079-1.413.574-2.031 1.85-1.938 1.844.134 3.217-.876 4.6-1.753 1.5-.955 2.452-.908 3.567.675a4.132 4.132 0 0 0 -2.876 2.2c-.308.458-1.009.645-1.518.973a51.232 51.232 0 0 1 -4.718 3.024 34.334 34.334 0 0 1 -3.875 1.111 29.773 29.773 0 0 0 -3.034 1.459 26.248 26.248 0 0 1 -2.985.43c-2.116.077-4.24.118-6.35-.01-.452-.028-.849-.843-1.287-1.279a11.279 11.279 0 0 1 -3.192-4.728 8.224 8.224 0 0 1 .239-2.925c.051-.45.15-.9.207-1.346a16.317 16.317 0 0 1 2.254-6.08c1.159-2.015 2.481-3.936 3.772-5.872.255-.383.726-.614 1.038-.969a30.365 30.365 0 0 1 2.345-2.726c1.234-1.1 2.619-2.039 3.94-3.048.5-.381 1.169-.665 1.465-1.169a11.373 11.373 0 0 1 3.383-3.275c.8-.586 1.664-1.084 2.448-1.69a21.463 21.463 0 0 0 1.919-1.725 1.515 1.515 0 0 1 2.128-.405c1.836.845 3.152 2.359 4.927 3.212.2.1.456.513.4.63-.44.841-.78 2.067-1.484 2.355a3.865 3.865 0 0 1 -3.446-.195 6.738 6.738 0 0 1 -4.718 2.692 2.185 2.185 0 0 1 -1.875 1.686c-1.09.243-1.944 1.573-2.888 2.436-.077.069-.018.306-.091.353-1.24.776-2.491 1.532-3.634 2.229-.415.916-.762 1.846-1.244 2.7a29.143 29.143 0 0 0 -2.43 4.149 2.764 2.764 0 0 1 -1.585 1.816 2.037 2.037 0 0 0 -.827 1.421c-.253 1.97-.428 3.954-.517 5.938a1.642 1.642 0 0 0 .734 1.2 3.637 3.637 0 0 0 4.086-.091c.4-.257.965-.687 1.281-.57.813.3 1.386-.261 2.041-.3 1.842-.109 3.565-1.437 5.5-.557.1.045.247-.02.46-.043" transform="translate(73.942 50.422)"/><path d="m157.848 42.7c.14.109.28.219.515.405a17.911 17.911 0 0 0 -2.023 1.611c-.338.351-.387.965-.653 1.409-.172.29-.539.458-.756.732-.458.576-.9 1.169-1.3 1.786-.768 1.176-1.508 2.371-2.246 3.565a1.107 1.107 0 0 0 -.243.653 31.238 31.238 0 0 0 .7 3.052 1.092 1.092 0 0 1 -.876 1.484 26.078 26.078 0 0 1 -3.056.486 25.137 25.137 0 0 1 -.172-2.959c.081-1.315-.373-2.633.156-3.954.4-1 .586-2.088.918-3.117.379-1.169.788-2.331 1.238-3.474.47-1.2 1.026-2.371 1.506-3.569.517-1.291.9-2.643 1.514-3.883.391-.784 1-1.82 1.694-1.986a1.815 1.815 0 0 1 2.4.918c.345.782 1.636 1.249 2.59 1.632a3.135 3.135 0 0 1 1.688 2.264c.225.817-.446 1.891-.782 2.833-.034.1-.456.1-.693.077-.663-.049-1.326-.132-1.988-.2l-.122.237" transform="translate(151.579 35.744)"/></g></svg>