<svg height="19.974" viewBox="0 0 28.407 19.974" width="28.407" xmlns="http://www.w3.org/2000/svg"><path d="m28.864 7.625a3.569 3.569 0 0 0 -2.512-2.525c-2.215-.6-11.1-.6-11.1-.6s-8.883 0-11.1.6a3.569 3.569 0 0 0 -2.508 2.525 37.444 37.444 0 0 0 -.594 6.882 37.444 37.444 0 0 0 .594 6.882 3.516 3.516 0 0 0 2.512 2.487c2.215.6 11.1.6 11.1.6s8.883 0 11.1-.6a3.516 3.516 0 0 0 2.512-2.487 37.444 37.444 0 0 0 .594-6.882 37.444 37.444 0 0 0 -.594-6.882zm-16.516 11.106v-8.448l7.425 4.224z" fill="#333" transform="translate(-1.05 -4.5)"/></svg>