<svg xmlns="http://www.w3.org/2000/svg" width="31" height="31" viewBox="0 0 31 31">
  <g id="グループ_3794" data-name="グループ 3794" transform="translate(-9719 2253) rotate(180)">
    <g id="グループ_3450" data-name="グループ 3450" transform="translate(-9750.156 2222.491)">
      <path id="パス_10039" data-name="パス 10039" d="M15.5,0A15.5,15.5,0,1,1,0,15.5,15.5,15.5,0,0,1,15.5,0Z" transform="translate(0.156 -0.491)" fill="#fff"/>
      <path id="パス_10040" data-name="パス 10040" d="M8.921-4.554H.44v.748H8.921A9.564,9.564,0,0,0,7.139-2l.66.385A11.72,11.72,0,0,1,10.615-4.18,11.72,11.72,0,0,1,7.8-6.743l-.66.385A9.564,9.564,0,0,0,8.921-4.554Z" transform="translate(10.156 18.508)" fill="#333"/>
    </g>
  </g>
</svg>
