<svg height="212" viewBox="0 0 280 212" width="280" xmlns="http://www.w3.org/2000/svg" xmlns:xlink="http://www.w3.org/1999/xlink"><clipPath id="a"><path d="m0 0h280v52.136h-280z"/></clipPath><path d="m0 0h280v212h-280z" fill="none"/><g clip-path="url(#a)" fill="#201513" transform="translate(0 80)"><path d="m26.541 49.724c-14.984 0-20.311-6.875-20.311-22.553 0-6.486 0-14.674-.08-17.3-.23-7.649-1.468-7.954-5.717-8.418-.539-.08-.614-.853 0-.853 2.4.075 6.1.23 8.268.23 1.159.004 5.099-.151 7.57-.23.614 0 .539.769 0 .849-3.325.464-4.249.924-4.484 8.418-.075 2.317 0 10.27 0 16.916 0 12.432 2.242 20.775 15.063 20.775 12.282 0 15.213-10.425 15.213-21.624 0-3.325.08-11.124-.155-18.384-.155-5.178-1.388-5.792-4.633-6.1a.425.425 0 1 1 0-.849c2.162.075 5.332.23 6.646.23s4.244-.152 6.179-.231a.426.426 0 1 1 0 .849c-2.856.31-3.859 1.7-4.014 6.1-.155 5.867-.235 13.591-.235 17.919 0 14.829-5.407 24.25-19.307 24.25" transform="translate(.001 2.414)"/><path d="m31.473 3.9c5.947 0 9.966 3.091 9.966 10.889 0 5.332 0 11.743.15 15.523.155 3.4 1.548 3.864 4.019 4.249a.425.425 0 1 1 0 .849c-2.706 0-4.249-.23-6.181-.23-1.388 0-4.014.155-5.482.23-.539 0-.464-.769 0-.849 1.852-.23 2.4-1.543 2.471-4.169.155-3.939.155-10.66-.075-15.368-.235-4.484-1.932-8.034-7.265-8.034a12.347 12.347 0 0 0 -7.8 3.091c-.23 6.8-.23 14.749.08 19.927.23 3.859 1.078 4.089 4.014 4.553a.425.425 0 1 1 0 .849c-2.551 0-4.868-.23-6.566-.23-1.233 0-4.324.23-5.562.23-.539 0-.464-.769 0-.849 1.7-.384 2.626-.694 2.936-4.553.31-3.785.235-14.754.08-17.151-.235-4.244-1.083-5.792-3.4-5.792h-.929a.426.426 0 1 1 -.075-.849c4.943-1 6.1-1.852 8.188-1.852 1 0 1.233.539 1.233 2.317v2.16a13.537 13.537 0 0 1 10.198-4.941" transform="translate(45.737 15.566)"/><path d="m35.969 22.733a125.138 125.138 0 0 0 13.051-.075c2.242-.155 2.317-1.163 2.861-.929.384.155-.155 1.932-.389 3.165-.31 1.932-.539 3.63-.539 3.63-.075.464-.929.539-.849 0 0-3.091-2.007-3.091-5.178-3.245-1.388-.075-6.486-.075-8.957 0 0 6.026.075 12.357.23 16.222.235 5.407 1.932 6.026 5.407 6.256a.425.425 0 1 1 0 .849c-2.626-.075-5.947-.23-8.338-.23-2.242 0-5.332.155-7.649.23-.539 0-.539-.769 0-.849 3.555-.384 4.713-1.158 4.868-6.8.075-2.626.155-12.282.155-14.909 0-6.021-.08-13.436-.155-16.062-.155-6.336-.31-7.879-5.252-8.5a.425.425 0 1 1 0-.849c2.471 0 6.72.23 7.954.23 7.494 0 10.66 0 17.225-.23 3.7-.155 3.785-.235 3.32 4.014-.23 2.087-.464 4.324-.694 5.872-.08.619-1 .464-.929 0-.075-2.626.23-6.566-5.173-7.1a91.319 91.319 0 0 0 -10.815-.31c-.08 3.011-.235 14.055-.155 19.617" transform="translate(99.013 2.368)"/><path d="m37.229 28.654c.08-8.8-.075-16.451-.31-20.156-.23-4.249-1.078-5.8-3.4-5.8h-.919c-.539.08-.539-.769-.08-.849 4.939-1 6.097-1.849 8.18-1.849 1 0 1.238.539 1.238 2.317.075 5.562 0 15.063 0 26.337 0 5.946 0 11.354.23 16.916.155 3.7 1 4.094 3.939 4.553.539 0 .694.854 0 .854-2.546 0-4.868-.235-6.566-.235-1.233 0-4.943.235-6.176.235-.619 0-.544-.774 0-.854 2.317-.384 3.32-.694 3.63-4.553.23-3.71.23-8.882.23-16.916" transform="translate(128.494 .002)"/><path d="m50.653 3.836c6.1 0 10.425 5.717 10.35 11.588 0 .31-.235 1.388-1.083 1.388-2.317-.075-6.181-.075-9.731-.075-3.32 0-6.72 0-8.034.075a23.144 23.144 0 0 0 -.155 3.088c0 8.728 3.939 13.516 10.58 13.516a10.973 10.973 0 0 0 8.268-3.4c.31-.31.849 0 .539.539a12.652 12.652 0 0 1 -10.887 5.954c-8.343 0-13.67-5.637-13.67-15.912 0-7.724 4.4-16.761 13.825-16.761m-8.345 11.279c1.468.075 4.863.075 6.875.075 2.392 0 5.173-.075 6.641-.075.31-2.781-.384-9.656-5.946-9.656-4.943 0-6.95 4.558-7.569 9.656" transform="translate(147.049 15.319)"/><path d="m64.854 6.777a11.3 11.3 0 0 0 -1.468.075c-.539.155-.694-.694-.075-.849 3.789-.769 6.641-1.927 8.184-2.003 1.623-.075 1.7.539 1.777 2.242 0 4.943-.155 11.354-.075 18.149.075 8.573.924 9.037 4.943 9.037.464 0 .539.849 0 .849a51.9 51.9 0 0 0 -6.566 1c-2.626.464-3.016 0-3.245-4.788-2.471 2.4-5.637 4.943-10.969 4.943-4.479 0-9.032-2.392-9.032-10.66 0-7.1.075-9.731 0-12.2-.235-4.249-1.163-5.717-3.48-5.717a10.6 10.6 0 0 0 -1.468.08c-.539.155-.694-.694-.075-.849 3.785-.774 6.641-1.932 8.188-2.007 1.623-.08 1.7.539 1.777 2.317 0 6.176-.235 12.2 0 18.688.075 2.936 1.313 7.1 6.95 7.1a12.1 12.1 0 0 0 8.109-3.084c0-1.857.23-11.124 0-16.606-.155-4.249-1.158-5.717-3.475-5.717" transform="translate(171.309 15.933)"/><path d="m61.511 11.963c.694-2.781 4.558-8.034 10.425-8.034 2.781 0 3.63 1 3.17 4.019-.155 1-.31 2.317-.544 3.4-.155.389-.849.389-.849-.075.08-2.861-2.007-3.63-4.324-3.555a8.425 8.425 0 0 0 -6.1 3.091c-1.468 1.852-1.7 3.4-1.777 6.181-.08 2.237-.155 7.874.155 13.051.23 3.475.774 4.014 5.482 4.4a.425.425 0 1 1 0 .849c-3.55 0-6.486-.235-8.108-.235-1.313 0-3.555.235-5.482.235a.425.425 0 1 1 0-.849c1.852-.31 2.7-1.158 2.931-4.4.31-3.785.235-14.909.08-17.3-.23-4.249-1.083-5.792-3.4-5.792a9.675 9.675 0 0 0 -1.47.071c-.539.075-.539-.774-.075-.849 4.094-.849 6.64-1.852 8.263-1.932s1.623.539 1.7 2.317c0 2.317 0 3.011-.075 5.407" transform="translate(204.778 15.69)"/></g></svg>