<svg height="24" viewBox="0 0 24 24" width="24" xmlns="http://www.w3.org/2000/svg" xmlns:xlink="http://www.w3.org/1999/xlink"><clipPath id="a"><path d="m0 0h24v24h-24z"/></clipPath><g clip-path="url(#a)" fill="#333"><path d="m12 2.162c3.2 0 3.584.012 4.849.07a6.639 6.639 0 0 1 2.228.413 3.719 3.719 0 0 1 1.38.9 3.719 3.719 0 0 1 .9 1.38 6.64 6.64 0 0 1 .413 2.228c.058 1.265.07 1.645.07 4.849s-.012 3.584-.07 4.849a6.64 6.64 0 0 1 -.413 2.228 3.974 3.974 0 0 1 -2.277 2.277 6.639 6.639 0 0 1 -2.228.413c-1.265.058-1.645.07-4.849.07s-3.584-.012-4.849-.07a6.64 6.64 0 0 1 -2.228-.413 3.719 3.719 0 0 1 -1.38-.9 3.719 3.719 0 0 1 -.9-1.38 6.641 6.641 0 0 1 -.413-2.228c-.058-1.265-.07-1.645-.07-4.849s.012-3.584.07-4.849a6.641 6.641 0 0 1 .413-2.228 3.719 3.719 0 0 1 .9-1.38 3.719 3.719 0 0 1 1.38-.9 6.639 6.639 0 0 1 2.224-.41c1.265-.058 1.645-.07 4.849-.07m.001-2.162c-3.26 0-3.669.014-4.948.072a8.809 8.809 0 0 0 -2.913.558 5.882 5.882 0 0 0 -2.126 1.384 5.882 5.882 0 0 0 -1.384 2.126 8.808 8.808 0 0 0 -.558 2.912c-.058 1.28-.071 1.689-.071 4.948s.014 3.668.072 4.948a8.808 8.808 0 0 0 .557 2.912 5.882 5.882 0 0 0 1.384 2.125 5.882 5.882 0 0 0 2.126 1.385 8.809 8.809 0 0 0 2.913.558c1.279.058 1.688.072 4.948.072s3.668-.014 4.948-.072a8.808 8.808 0 0 0 2.913-.558 6.136 6.136 0 0 0 3.51-3.51 8.808 8.808 0 0 0 .558-2.913c.056-1.279.071-1.688.071-4.947s-.014-3.668-.072-4.948a8.808 8.808 0 0 0 -.558-2.913 5.883 5.883 0 0 0 -1.384-2.125 5.882 5.882 0 0 0 -2.126-1.384 8.808 8.808 0 0 0 -2.913-.558c-1.28-.058-1.689-.072-4.947-.072" transform="translate(.001)"/><path d="m128.717 122.556a6.162 6.162 0 1 0 6.162 6.162 6.162 6.162 0 0 0 -6.162-6.162m0 10.162a4 4 0 1 1 4-4 4 4 0 0 1 -4 4" transform="translate(-116.717 -116.718)"/><path d="m359.046 88.655a1.44 1.44 0 1 1 -1.44-1.44 1.44 1.44 0 0 1 1.44 1.44" transform="translate(-339.2 -83.061)"/></g></svg>