<svg height="12.635" viewBox="0 0 202.737 12.635" width="202.737" xmlns="http://www.w3.org/2000/svg" xmlns:xlink="http://www.w3.org/1999/xlink"><clipPath id="a"><path d="m0 0h202.737v12.635h-202.737z"/></clipPath><g clip-path="url(#a)" fill="#262727"><path d="m6.275 5.421a.1.1 0 0 0 -.1.084 11.33 11.33 0 0 1 -4.735 6.57 1.735 1.735 0 0 1 -.714.364c-.28 0-.728-.546-.728-.812 0-.141.14-.211.322-.322a10.733 10.733 0 0 0 3.28-2.97 11.969 11.969 0 0 0 2.059-6.835c0-.308-.014-.616-.014-.925s.07-.406.294-.406a8.209 8.209 0 0 1 .981.125c.153.028.322.043.322.183s-.169.181-.266.238a.216.216 0 0 0 -.127.21c-.013.35-.028.686-.028 1.036 0 .1.015.225.015.322a12.082 12.082 0 0 0 .784 3.573 11.39 11.39 0 0 0 4.58 5.544c.112.071.281.168.281.294 0 .281-.435.8-.7.8a.559.559 0 0 1 -.252-.1 11.069 11.069 0 0 1 -2.339-1.933 12.15 12.15 0 0 1 -2.817-4.956.1.1 0 0 0 -.1-.084"/><path d="m20.373 3.012c.28 0 .392-.112.392-.392v-1.12a8.108 8.108 0 0 0 -.056-1.037c0-.042-.014-.084-.014-.126 0-.169.112-.211.252-.211.21 0 .687.071.925.084.2.015.476.015.476.2 0 .1-.07.126-.2.209-.154.113-.168.323-.168.744v1.257c0 .28.112.392.378.392h2.592c.56 0 1.12-.028 1.68-.028.322 0 .322.14.322.589s-.014.587-.322.587c-.56 0-1.12-.042-1.68-.042h-2.588c-.266 0-.378.113-.378.393v1.821c0 .266.112.378.378.378h2c.547 0 1.092-.028 1.639-.028.322 0 .322.154.322.589s0 .574-.322.574c-.547 0-1.092-.042-1.639-.042h-2c-.266 0-.378.111-.378.392v2.423c0 .266.112.378.378.378h3.11c.574 0 1.134-.028 1.694-.028.337 0 .337.154.337.589 0 .42 0 .588-.322.588-.575 0-1.135-.042-1.709-.042h-8.307c-.56 0-1.121.042-1.7.042-.308 0-.322-.14-.322-.588s.014-.589.322-.589c.574 0 1.135.028 1.7.028h3.208c.28 0 .392-.112.392-.378v-2.423c0-.281-.112-.392-.392-.392h-1.961c-.532 0-1.079.042-1.625.042-.336 0-.336-.183-.336-.574s0-.589.336-.589c.546 0 1.093.028 1.625.028h1.961c.28 0 .392-.112.392-.378v-1.821c0-.28-.112-.393-.392-.393h-2.3a.5.5 0 0 0 -.533.323c-.2.392-1.218 2.311-1.625 2.311-.224 0-.812-.28-.812-.546 0-.112.14-.266.21-.35a12.031 12.031 0 0 0 2.3-5.029c.028-.1.07-.224.2-.224a5.355 5.355 0 0 1 .587.126c.49.126.714.168.714.336 0 .126-.14.182-.224.224-.224.113-.266.252-.378.659-.056.182-.112.406-.224.714a.329.329 0 0 0 -.028.112c0 .224.224.238.28.238z"/><path d="m33.673 1.779c.084.042.238.112.238.223 0 .084-.042.113-.112.141-.295.14-.365.224-.547.7a14.251 14.251 0 0 0 -.728 4.328c0 .281.056 2 .364 2 .112 0 .21-.21.378-.63.07-.167.225-.686.393-.686.14 0 .448.183.448.336a1.378 1.378 0 0 1 -.071.266 11.948 11.948 0 0 0 -.574 2.2c0 .2.014.391.014.574 0 .308-.182.406-.434.518a1.547 1.547 0 0 1 -.434.126c-.2 0-.322-.28-.392-.434a10.014 10.014 0 0 1 -.826-4.241 16.742 16.742 0 0 1 .658-4.5c.112-.393.238-.785.336-1.177.014-.1.056-.225.168-.225a8.921 8.921 0 0 1 1.121.477m5.589-.406c.069.028.126.055.126.139s-.07.155-.126.225a2.187 2.187 0 0 0 -.155 1.051v.326c0 .308.029.517.3.517a10.925 10.925 0 0 0 1.485-.364.53.53 0 0 1 .21-.055c.266 0 .35.826.35.952 0 .3-.407.35-1.821.56-.253.042-.463.084-.463.42 0 .364.1 2.648.126 3.1.015.35.183.392.449.518.392.183 1.905.995 1.905 1.444 0 .294-.406.811-.659.811-.139 0-.28-.139-.364-.223a4.467 4.467 0 0 0 -1.2-.868c-.139 0-.168.111-.182.223-.168.981-1.05 1.3-1.947 1.3-1.036 0-2.255-.477-2.255-1.7 0-1.191 1.065-1.639 2.088-1.639a5.613 5.613 0 0 1 .672.042.446.446 0 0 0 .14.015c.2 0 .266-.1.266-.281 0-.476-.07-1.933-.1-2.451-.014-.154.014-.505-.322-.505-.07 0-1.023.057-1.555.057a11.454 11.454 0 0 1 -1.415-.07c-.182-.056-.182-.673-.182-.855s.014-.322.2-.322a1.771 1.771 0 0 1 .28.028c.6.056 1.247.1 1.849.1s1.023.028 1.023-.322-.126-1.723-.182-2.1v-.125a.149.149 0 0 1 .168-.169 11.081 11.081 0 0 1 1.3.225m-1.214 7.858a3.19 3.19 0 0 0 -.827-.131c-.378 0-1.148.14-1.148.644s.756.7 1.163.7c.616 0 .994-.252.994-.911a.31.31 0 0 0 -.182-.308"/><path d="m48.456 11.1c0 .237-.546.882-.812.882-.126 0-.21-.112-.281-.21a8.462 8.462 0 0 0 -2.129-1.872c-.1-.07-.224-.126-.224-.266a1.386 1.386 0 0 1 .757-.785 8.549 8.549 0 0 1 2.689 2.251"/><path d="m61.967 9.483c0-.112-.042-.2-.154-.2-.042 0-.084.042-.125.056a15.2 15.2 0 0 1 -4.344 2.7 1.856 1.856 0 0 1 -.518.154c-.251 0-.575-.532-.575-.743s.254-.266.45-.336a14.456 14.456 0 0 0 3.978-2.214.173.173 0 0 0 .056-.112c0-.1-.084-.126-.169-.126h-2.24c-.548 0-1.094.027-1.639.027-.294 0-.308-.139-.308-.517s.014-.533.308-.533c.545 0 1.091.028 1.639.028h3.305c.223 0 .322-.07.336-.308l-.042-.532a.582.582 0 0 1 -.014-.154c0-.155.112-.183.238-.183.155 0 .365.028.518.042.491.042.743.028.743.225 0 .084-.056.112-.168.181-.154.113-.139.253-.154.421.015.238.112.308.336.308h3.291c.547 0 1.094-.028 1.639-.028.294 0 .309.126.309.533s-.015.517-.309.517c-.545 0-1.092-.027-1.639-.027h-2.268c-.126 0-.154.069-.154.111a.115.115 0 0 0 .056.113 16.629 16.629 0 0 0 3.908 2.255c.265.112.517.2.517.378 0 .21-.336.743-.6.743a10.18 10.18 0 0 1 -1.947-.925 16.376 16.376 0 0 1 -2.859-2.037.246.246 0 0 0 -.139-.056c-.141 0-.141.168-.141.182v1.4c0 .448.028.9.028 1.345 0 .434-.112.461-.574.461s-.6-.013-.6-.433c0-.463.028-.911.028-1.373zm-2.324-4.683c0 .113-.084.183-.2.267-.63.5-1.287.966-1.96 1.414-.225.141-.239.154-.253.267-.014.1-.028.238-.154.238-.168 0-.755-.855-.755-.995 0-.112.14-.154.224-.2a14.643 14.643 0 0 0 2.3-1.555.44.44 0 0 1 .239-.126c.21 0 .561.49.561.686m-2.02-3.843c.351.28.7.588 1.036.9.182.154.756.616.756.84a.885.885 0 0 1 -.63.6c-.14 0-.238-.126-.336-.224-.491-.492-1.022-.926-1.551-1.369-.083-.07-.209-.154-.209-.28a.947.947 0 0 1 .629-.631.553.553 0 0 1 .309.169m6.262.49c.251 0 .5-.015.756-.015.35 0 .489.183.489.533 0 .266-.013.546-.013.812v2.531c0 .294.027.574.027.868 0 .323-.181.336-.545.336-.238 0-.365 0-.477-.1-.07-.071-.112-.126-.195-.141h-2.733a.278.278 0 0 0 -.2.128c-.125.112-.237.112-.49.112-.336 0-.531-.013-.531-.336 0-.294.014-.574.014-.868v-2.535c0-.266-.014-.532-.014-.8 0-.337.125-.547.489-.547.239 0 .476.015.7.015a.511.511 0 0 0 .52-.309 9.353 9.353 0 0 0 .433-.932c.028-.1.056-.2.169-.2.014 0 1.231.308 1.231.532 0 .1-.111.126-.181.141a.318.318 0 0 0 -.279.154c-.042.069-.156.252-.2.336a.168.168 0 0 0 -.028.112c0 .126.084.153.2.168zm.195 1.274a.323.323 0 0 0 -.336-.336h-2.371a.328.328 0 0 0 -.351.336v.365a.328.328 0 0 0 .351.336h2.367a.323.323 0 0 0 .336-.336zm-3.058 2.278a.328.328 0 0 0 .351.336h2.367a.323.323 0 0 0 .336-.336v-.377a.316.316 0 0 0 -.336-.337h-2.367a.321.321 0 0 0 -.351.337zm6.972 1.836c-.126 0-.238-.113-.336-.2a20.074 20.074 0 0 0 -1.976-1.6c-.1-.071-.224-.155-.224-.281 0-.223.364-.658.589-.658a7.056 7.056 0 0 1 1.372.939c.267.21.869.7 1.092.924a.313.313 0 0 1 .112.21c0 .21-.419.659-.629.659m.349-5.267c-.083 0-.181.1-.237.168-.28.28-1.639 1.6-1.961 1.6a.982.982 0 0 1 -.659-.6c0-.126.168-.238.308-.35a10.737 10.737 0 0 0 1.658-1.54c.057-.056.127-.154.211-.154.112 0 .994.616.994.757 0 .168-.267.126-.309.126"/><path d="m75.351 1.541c.112.028.266.084.266.21 0 .1-.084.154-.154.21a1.383 1.383 0 0 0 -.28.841 34.061 34.061 0 0 0 -.308 4.776c0 1.2.028 2.942 1.667 2.942a3.769 3.769 0 0 0 2.8-1.443 4.227 4.227 0 0 0 .858-2.087c.028-.2.056-.434.238-.434.266 0 .938.56.938.953a5.061 5.061 0 0 1 -.546 1.582 4.892 4.892 0 0 1 -4.2 2.662 2.9 2.9 0 0 1 -2.339-1.065 5.368 5.368 0 0 1 -.659-3.068c0-1.736.126-3.474.266-5.211a8.132 8.132 0 0 0 .028-.826c0-.2.014-.336.2-.336a8.688 8.688 0 0 1 1.232.294"/><path d="m87.222 3.011c.1.029.266.071.266.2 0 .084-.056.139-.14.2-.168.14-.182.336-.224.588a8.876 8.876 0 0 0 -.1 1.359 8.614 8.614 0 0 0 .49 3.165c.2.463.728 1.36 1.289 1.36.406 0 .868-.66 1.05-.981.07-.127.182-.351.35-.351.239 0 .785.462.785.672 0 .267-.785 1.135-.995 1.36a1.566 1.566 0 0 1 -1.176.616 2.55 2.55 0 0 1 -1.961-1.345 8.956 8.956 0 0 1 -1.037-4.833c0-.448.042-1.61.07-2.073 0-.126.056-.195.182-.195a9.8 9.8 0 0 1 1.149.265m5.939-.2a4.377 4.377 0 0 1 1.807 1.653 7.4 7.4 0 0 1 1.008 2.8 2.271 2.271 0 0 1 .042.434.282.282 0 0 1 -.21.322 2.12 2.12 0 0 1 -.672.126c-.406 0-.392-.182-.42-.448a5.369 5.369 0 0 0 -2.087-3.993.242.242 0 0 1 -.113-.209.967.967 0 0 1 .645-.687"/><path d="m102.285 2.549a.607.607 0 0 0 -.6.281c-.266.336-1.513 1.932-1.863 1.932-.2 0-.686-.349-.686-.546 0-.14.2-.294.294-.392a14.4 14.4 0 0 0 2.689-3.6c.042-.07.084-.154.182-.154a4.348 4.348 0 0 1 .659.2c.294.113.49.155.49.281s-.112.153-.2.167c-.182.042-.21.113-.351.323a1.824 1.824 0 0 1 -.126.21.173.173 0 0 0 -.027.112c0 .126.084.168.2.168h6.149c.546 0 1.078-.042 1.624-.042.281 0 .295.14.295.546s-.014.546-.295.546c-.546 0-1.078-.028-1.624-.028zm3.656 10.03h-.322c-.42 0-.658-.056-.658-.673 0-.195.042-.392.266-.392.1 0 .588.042.91.042h.295c.392 0 .882-.028 1.078-.378a.409.409 0 0 0 .028-.127c0-.168-.154-.223-.294-.223h-5.337c-.21 0-.294.055-.336.252-.07.266-.056.42-.322.42-.2 0-.855-.084-.855-.35 0-.014.1-.42.14-.6.14-.755.421-2.325.448-2.451v-.07a.265.265 0 0 0 -.293-.294c-.421-.014-.841.028-1.261.028-.28 0-.28-.182-.28-.532 0-.392 0-.532.294-.532.462 0 .924.027 1.387.027a.373.373 0 0 0 .42-.349c.1-.687.168-1.373.238-2.06.042-.406.182-.56.714-.56.322 0 .631.028.953.028h4.608c.308 0 .616-.028.925-.028.616 0 .756.14.756.756 0 .435-.07 1.387-.112 1.849 0 .253.1.364.35.364.477.015.967-.027 1.443-.027.294 0 .294.153.294.532s0 .532-.28.532c-.518 0-1.037-.042-1.555-.028-.266 0-.378.1-.434.364q-.063.674-.168 1.345v.084a.276.276 0 0 0 .308.294c.448.015.9-.042 1.344-.042.294 0 .309.141.309.547s-.015.532-.309.532c-.462 0-1.022-.042-1.5-.028a.414.414 0 0 0 -.476.35c-.421 1.443-1.163 1.4-2.718 1.4m-4.076-3.138c0 .028-.014.056-.014.084 0 .21.154.294.336.294h1.7c.266-.027.392-.1.434-.364l.181-1.357v-.07c0-.21-.155-.294-.337-.294h-1.639c-.28 0-.406.084-.448.364zm.449-3.012c0 .225.153.294.35.294h1.625c.266 0 .392-.084.434-.349l.168-1.234v-.086c0-.21-.154-.294-.336-.294h-1.623c-.407 0-.407.014-.532.967q-.043.273-.084.63zm5.112 3.39c.28-.027.406-.1.449-.364.084-.462.139-.91.182-1.372.028-.253-.127-.351-.351-.351h-1.723c-.266 0-.392.084-.434.364l-.182 1.345v.07a.294.294 0 0 0 .336.308zm-1.653-3.46v.07c0 .225.154.294.351.294h1.68c.281 0 .392-.084.434-.364.014-.168.071-1.05.071-1.177 0-.391-.113-.42-.477-.42h-1.456c-.267 0-.393.084-.435.365z"/><path d="m122.183 11.711c0-.2-.1-.267-.281-.267h-4.8c-.2 0-.28.071-.28.267v.224c0 .35-.112.392-.617.392s-.63-.042-.63-.392c0-.519.042-1.051.042-1.569v-7.2c0-.42-.028-.841-.028-1.261 0-.532.183-.7.7-.7.378 0 .742.028 1.107.028h4.215c.365 0 .729-.028 1.079-.028.617 0 .729.224.729.8 0 .3-.028.673-.028 1.163v7.158c0 .532.042 1.065.042 1.582 0 .351-.141.379-.631.379s-.616-.028-.616-.379zm-.35-6.038a.37.37 0 0 0 .378-.392v-2.592a.387.387 0 0 0 -.378-.391h-4.65a.39.39 0 0 0 -.393.391v2.592a.39.39 0 0 0 .393.392zm-5.043 4.287a.392.392 0 0 0 .393.392h4.65a.371.371 0 0 0 .378-.392v-2.844a.389.389 0 0 0 -.378-.392h-4.65a.392.392 0 0 0 -.393.392z"/><path d="m133.452.883c0 .07-.056.112-.1.154-.266.168-.294.28-.49.994l-.21.771a.5.5 0 0 0 -.029.154.174.174 0 0 0 .183.168 3.966 3.966 0 0 0 .52-.124 8.047 8.047 0 0 0 1.233-.406 1.172 1.172 0 0 1 .378-.112c.238 0 .224.56.224.728 0 .28-.014.448-.182.519a18.37 18.37 0 0 1 -2.3.559c-.477.1-.519.113-.658.547a43.883 43.883 0 0 1 -2.631 6.265c-.168.321-.266.546-.477.546s-.938-.365-.938-.631c0-.111.154-.308.224-.406a30.523 30.523 0 0 0 2.648-5.729.52.52 0 0 0 .028-.126.2.2 0 0 0 -.211-.2c-.153 0-.91.07-1.428.07-.323 0-.476 0-.56-.141a2.732 2.732 0 0 1 -.127-.839c0-.155.042-.239.211-.239.1 0 .658.07 1.246.07.322 0 .631-.014.939-.042a.423.423 0 0 0 .336-.126 10.934 10.934 0 0 0 .6-2.648c.015-.153 0-.336.154-.336.014 0 1.415.323 1.415.561m-.532 8.909a3.419 3.419 0 0 0 2.564.784 6.024 6.024 0 0 0 1.932-.266.351.351 0 0 1 .113-.014c.238 0 .238.364.238.728 0 .239.014.491-.154.561a10.526 10.526 0 0 1 -2.045.168 5.968 5.968 0 0 1 -2.928-.574c-.2-.127-.673-.477-.673-.743 0-.2.505-.84.7-.84.084 0 .2.126.252.2m1.765-4.665a8.593 8.593 0 0 1 2.676.378.236.236 0 0 1 .168.253 3.268 3.268 0 0 1 -.168.727c-.057.127-.113.2-.253.2a.976.976 0 0 1 -.266-.084 6.1 6.1 0 0 0 -2.129-.323c-.182 0-.364.015-.547.015-.28 0-.322-.1-.322-.322 0-.9.169-.841.841-.841m2.718-2.347c0 .195-.435.546-.617.546-.084 0-.14-.084-.2-.154a14.173 14.173 0 0 0 -.953-1.107.305.305 0 0 1 -.111-.2c0-.14.448-.49.588-.49a5.844 5.844 0 0 1 1.289 1.4m1.4-.827c0 .183-.435.547-.6.547-.1 0-.153-.084-.209-.154a11.724 11.724 0 0 0 -.953-1.107c-.042-.042-.112-.112-.112-.182 0-.154.448-.5.588-.5a5.606 5.606 0 0 1 1.289 1.4"/><path d="m144.8 1.877c.2.057.421.1.421.253 0 .1-.07.126-.126.168-.211.1-.295.168-.421.49a12.671 12.671 0 0 0 -.729 4.02 7.333 7.333 0 0 0 .337 2.227c.028.042.056.1.126.1.1 0 .294-.63.365-.771.168-.462.252-.769.42-.769.112 0 .434.168.434.307a12.05 12.05 0 0 0 -.518 2.592v.392c0 .322-.2.421-.462.532a1.162 1.162 0 0 1 -.435.112c-.2 0-.28-.139-.406-.364a9.308 9.308 0 0 1 -.981-4.342 16.993 16.993 0 0 1 .729-4.6 1.772 1.772 0 0 0 .084-.364c.027-.112.056-.28.2-.28.1 0 .813.252.966.294m4.791-.588c.168 0 .364.042.532.056.406.014.868.042.868.21s-.2.169-.2.672c0 .224.057 1.149.085 1.4.014.21.084.406.336.406.069 0 .994-.2 1.148-.224a.819.819 0 0 1 .182-.028c.253 0 .28.645.28.841 0 .364-.2.336-1.316.476-.294.042-.546.1-.546.462 0 .434.027.882.027 1.331a6.8 6.8 0 0 1 -1.877 4.888c-.126.141-.364.406-.56.406s-.812-.517-.812-.742c0-.1.042-.126.112-.181a5.706 5.706 0 0 0 1.218-1.429 5.573 5.573 0 0 0 .771-3.166c0-.9.028-1.275-.364-1.275-.126 0-1.919.294-2.185.336a2.377 2.377 0 0 1 -.448.056c-.322 0-.351-.475-.351-.728 0-.462.084-.434.729-.476.5-.042 1.68-.168 2.129-.238a.38.38 0 0 0 .35-.378c0-.085-.112-1.051-.126-1.219a10.109 10.109 0 0 0 -.2-1.135c0-.042-.015-.112-.015-.154 0-.126.126-.168.225-.168"/><path d="m156.815 2.746c2.045-.112 4.076-.336 6.108-.574.993-.127 2.241-.253 3.206-.421a.889.889 0 0 1 .184-.027c.181 0 .209.153.237.294a4.629 4.629 0 0 1 .084.756c0 .308-.2.308-.547.308a7.99 7.99 0 0 0 -2.381.281 4.3 4.3 0 0 0 -2.479 2.115 5.59 5.59 0 0 0 -.771 2.7 2.029 2.029 0 0 0 1.107 1.947 4.211 4.211 0 0 0 1.611.239c.182 0 .378-.015.546-.015s.322 0 .322.2a2.832 2.832 0 0 1 -.2.91c-.084.183-.168.211-.378.211-2.254 0-4.258-.8-4.258-3.39a6.413 6.413 0 0 1 1.765-4.328c.2-.2.266-.252.266-.323 0-.1-.112-.126-.182-.126-.21 0-1.877.239-2.213.281-.728.112-1.457.224-2.172.406a1.085 1.085 0 0 1 -.21.042c-.306 0-.406-1.093-.406-1.177 0-.308.183-.28.757-.308m8.74 2.284c.1.111.547.6.547.756 0 .2-.448.532-.631.532-.084 0-.14-.084-.182-.155-.28-.391-.6-.769-.924-1.148-.029-.042-.113-.126-.113-.182 0-.168.463-.476.6-.476s.434.364.7.673m2.172.027c0 .183-.448.532-.631.532-.084 0-.14-.1-.2-.168a12.086 12.086 0 0 0 -.91-1.135c-.042-.055-.113-.125-.113-.195 0-.154.463-.476.617-.476a5.807 5.807 0 0 1 1.233 1.442"/><path d="m172.455 3.011c.1.029.265.071.265.2 0 .084-.055.139-.139.2-.168.14-.182.336-.224.588a8.879 8.879 0 0 0 -.1 1.359 8.635 8.635 0 0 0 .49 3.165c.2.463.729 1.36 1.29 1.36.406 0 .868-.66 1.05-.981.07-.127.182-.351.35-.351.238 0 .784.462.784.672 0 .267-.784 1.135-.994 1.36a1.567 1.567 0 0 1 -1.177.616 2.553 2.553 0 0 1 -1.961-1.345 8.964 8.964 0 0 1 -1.036-4.833c0-.448.042-1.61.069-2.073 0-.126.057-.195.183-.195a9.848 9.848 0 0 1 1.149.265m5.939-.2a4.377 4.377 0 0 1 1.807 1.65 7.415 7.415 0 0 1 1.008 2.8 2.271 2.271 0 0 1 .042.434.282.282 0 0 1 -.21.322 2.12 2.12 0 0 1 -.672.126c-.407 0-.392-.182-.42-.448a5.373 5.373 0 0 0 -2.087-3.993.242.242 0 0 1 -.113-.209.965.965 0 0 1 .645-.687"/><path d="m186.861 3.011c.1.029.265.071.265.2 0 .084-.055.139-.139.2-.168.14-.182.336-.224.588a8.877 8.877 0 0 0 -.1 1.359 8.635 8.635 0 0 0 .49 3.165c.2.463.729 1.36 1.29 1.36.406 0 .868-.66 1.05-.981.07-.127.182-.351.35-.351.238 0 .784.462.784.672 0 .267-.784 1.135-.994 1.36a1.567 1.567 0 0 1 -1.177.616 2.553 2.553 0 0 1 -1.956-1.352 8.964 8.964 0 0 1 -1.036-4.833c0-.448.042-1.61.069-2.073 0-.126.057-.195.183-.195a9.847 9.847 0 0 1 1.149.265m5.939-.2a4.377 4.377 0 0 1 1.807 1.653 7.415 7.415 0 0 1 1.008 2.8 2.271 2.271 0 0 1 .042.434.282.282 0 0 1 -.21.322 2.12 2.12 0 0 1 -.672.126c-.407 0-.392-.182-.42-.448a5.373 5.373 0 0 0 -2.087-3.993.242.242 0 0 1 -.113-.209.965.965 0 0 1 .645-.687"/><path d="m202.737 10.254a1.919 1.919 0 1 1 -1.919-1.919 1.921 1.921 0 0 1 1.919 1.919m-3.208 0a1.288 1.288 0 1 0 1.289-1.289 1.285 1.285 0 0 0 -1.289 1.289"/></g></svg>