<svg height="100" viewBox="0 0 100 100" width="100" xmlns="http://www.w3.org/2000/svg" xmlns:xlink="http://www.w3.org/1999/xlink"><clipPath id="a"><path d="m0 0h80.444v20.078h-80.444z"/></clipPath><circle cx="50" cy="50" fill="#fff" r="50"/><g clip-path="url(#a)" fill="#333" transform="translate(10.016 41.734)"><path d="m1.394 5.511c0-2.5 0-2.949-.032-3.462-.032-.549-.162-.801-.689-.914a3.006 3.006 0 0 0 -.545-.048c-.064 0-.128-.032-.128-.096 0-.091.08-.128.256-.128.721 0 1.731.048 1.811.048.176 0 1.394-.048 1.891-.048a4.934 4.934 0 0 1 2.933.705 2.806 2.806 0 0 1 1.109 2.18 4.946 4.946 0 0 1 -1.939 3.7c1.314 1.683 2.4 3.109 3.334 4.1a3.315 3.315 0 0 0 1.955 1.154 3.829 3.829 0 0 0 .625.048c.08 0 .144.048.144.1 0 .1-.1.128-.385.128h-1.14a3.261 3.261 0 0 1 -1.715-.3 8.371 8.371 0 0 1 -2.164-2.356c-.673-.881-1.427-1.955-1.747-2.372a.259.259 0 0 0 -.208-.1l-1.971-.031c-.08 0-.112.048-.112.128v.385c0 1.539 0 2.8.08 3.478.048.465.144.817.625.882a6.962 6.962 0 0 0 .721.064c.1 0 .128.048.128.1 0 .08-.08.128-.257.128-.882 0-1.891-.048-1.971-.048-.016 0-1.026.048-1.507.048-.176 0-.256-.032-.256-.128 0-.048.032-.1.128-.1a2.463 2.463 0 0 0 .481-.064c.321-.064.4-.417.465-.882.08-.673.08-1.939.08-3.478zm1.282 1.395a.21.21 0 0 0 .112.192 4.421 4.421 0 0 0 1.683.256 2.076 2.076 0 0 0 1.2-.3 2.926 2.926 0 0 0 .978-2.468c0-2-1.058-3.205-2.773-3.205a4.841 4.841 0 0 0 -1.074.1.193.193 0 0 0 -.128.192z" transform="translate(0 -.639)"/><path d="m51.006 5.146c0-2.5 0-2.949-.032-3.462-.032-.545-.16-.8-.689-.914a3.006 3.006 0 0 0 -.545-.048c-.064 0-.128-.032-.128-.1 0-.1.08-.128.256-.128.369 0 .8 0 1.154.016l.657.032c.112 0 3.3 0 3.671-.016a4.291 4.291 0 0 0 .689-.08c.08-.016.144-.08.224-.08.048 0 .064.064.064.144 0 .112-.08.3-.128.754-.016.16-.048.865-.08 1.058-.016.08-.048.176-.112.176-.1 0-.128-.08-.128-.208a1.719 1.719 0 0 0 -.1-.577c-.112-.256-.272-.449-1.138-.545-.272-.032-2.02-.048-2.2-.048-.064 0-.1.048-.1.16v4.427c0 .112.016.16.1.16.208 0 2.18 0 2.548-.032.385-.032.609-.064.753-.224.112-.128.176-.208.241-.208.048 0 .08.032.08.128s-.08.369-.128.9c-.032.321-.064.914-.064 1.026 0 .128 0 .3-.112.3-.08 0-.112-.064-.112-.144a1.641 1.641 0 0 0 -.064-.529c-.064-.225-.209-.5-.834-.561-.433-.048-2.02-.08-2.292-.08a.1.1 0 0 0 -.112.112v1.41c0 .545-.016 2.4 0 2.741.048 1.106.289 1.314 1.859 1.314a4.588 4.588 0 0 0 1.538-.177c.417-.176.609-.5.721-1.154.032-.177.064-.241.144-.241.1 0 .1.128.1.241 0 .128-.128 1.218-.208 1.555-.112.417-.241.417-.866.417-1.2 0-2.083-.032-2.708-.048-.625-.032-1.01-.048-1.25-.048-.032 0-.3 0-.641.016-.321 0-.689.032-.93.032-.176 0-.256-.032-.256-.128 0-.048.032-.1.128-.1a2.463 2.463 0 0 0 .481-.064c.321-.064.4-.417.465-.882.08-.673.08-1.939.08-3.478z" transform="translate(-36.725 -.274)"/><path d="m90.428 9.358c0 2.6 0 3.591-.481 4.728a6.05 6.05 0 0 1 -2.34 2.452 6.539 6.539 0 0 1 -.625.4.23.23 0 0 1 -.112.032.106.106 0 0 1 -.112-.1c0-.1.08-.144.224-.241a3.126 3.126 0 0 0 .561-.449c1.042-1.058 1.539-1.907 1.539-6.043v-4.626c0-2.5 0-2.949-.032-3.462-.032-.545-.161-.8-.689-.913a2.983 2.983 0 0 0 -.545-.048c-.064 0-.128-.032-.128-.1 0-.1.08-.129.256-.129.721 0 1.731.048 1.811.048s1.09-.048 1.571-.048c.176 0 .256.032.256.129 0 .064-.064.1-.128.1a2.363 2.363 0 0 0 -.4.048c-.433.08-.561.352-.593.913-.032.513-.032.962-.032 3.462z" transform="translate(-64.223 -.639)"/><path d="m123.616 0c3.606 0 6.3 2.276 6.3 6.011a6.291 6.291 0 0 1 -6.4 6.555 6.009 6.009 0 0 1 -6.219-6.3 6.2 6.2 0 0 1 6.319-6.266m.337 11.957c1.443 0 4.424-.834 4.424-5.5 0-3.847-2.34-5.914-4.872-5.914-2.677 0-4.68 1.763-4.68 5.273 0 3.734 2.244 6.138 5.129 6.138" transform="translate(-86.832)"/><path d="m176.328 5.511c0-2.5 0-2.949-.032-3.462-.032-.545-.161-.8-.689-.914a3.009 3.009 0 0 0 -.545-.048c-.064 0-.128-.032-.128-.1 0-.1.08-.128.256-.128.721 0 1.7.048 1.843.048s1.107-.044 1.587-.044c.176 0 .257.032.257.128 0 .064-.064.1-.128.1a2.393 2.393 0 0 0 -.4.048c-.433.064-.561.353-.593.914-.032.513-.032.962-.032 3.462v2.24c0 2.308.513 3.3 1.2 3.959a3.136 3.136 0 0 0 2.42.881 3.367 3.367 0 0 0 2.516-1.154 6.224 6.224 0 0 0 .93-3.927v-2c0-2.5 0-2.949-.032-3.462-.032-.545-.16-.8-.689-.914a3.007 3.007 0 0 0 -.545-.048c-.064 0-.128-.032-.128-.1 0-.1.08-.128.256-.128.721 0 1.6.048 1.7.048.112 0 .866-.048 1.347-.048.176 0 .256.032.256.128 0 .064-.064.1-.128.1a2.4 2.4 0 0 0 -.4.048c-.433.1-.561.353-.593.914-.032.513-.032.962-.032 3.462v1.712c0 1.731-.192 3.654-1.475 4.793a4.694 4.694 0 0 1 -3.3 1.186 4.922 4.922 0 0 1 -3.3-1.138c-.785-.754-1.395-1.875-1.395-4.215z" transform="translate(-129.495 -.639)"/><path d="m236.1 8.332c0 1.539 0 2.8.08 3.478.048.465.144.817.625.881a6.968 6.968 0 0 0 .721.064c.1 0 .129.048.129.1 0 .08-.08.128-.256.128-.882 0-1.891-.048-1.972-.048s-1.09.048-1.571.048c-.176 0-.256-.032-.256-.128 0-.048.032-.1.128-.1a2.463 2.463 0 0 0 .481-.064c.321-.064.4-.416.465-.881.08-.673.08-1.939.08-3.478v-2.821c0-2.5 0-2.949-.032-3.462-.032-.545-.192-.817-.545-.9a2.1 2.1 0 0 0 -.5-.064c-.064 0-.128-.032-.128-.1 0-.1.08-.129.256-.129.529 0 1.539.048 1.619.048s1.093-.041 1.576-.041c.176 0 .257.032.257.129 0 .064-.064.1-.128.1a2.366 2.366 0 0 0 -.4.048c-.433.08-.561.352-.593.913-.032.513-.032.962-.032 3.462z" transform="translate(-172.887 -.639)"/><path d="m264.442 5.511c0-2.5 0-2.949-.032-3.462-.032-.545-.161-.8-.689-.914a3.011 3.011 0 0 0 -.545-.048c-.064 0-.128-.032-.128-.1 0-.1.08-.128.256-.128.721 0 1.731.048 1.811.048.177 0 1.395-.048 1.891-.048a4.933 4.933 0 0 1 2.933.705 2.806 2.806 0 0 1 1.106 2.18 4.947 4.947 0 0 1 -1.94 3.7c1.314 1.683 2.4 3.109 3.334 4.1a3.314 3.314 0 0 0 1.955 1.154 3.825 3.825 0 0 0 .625.048c.08 0 .144.048.144.1 0 .1-.1.128-.385.128h-1.138a3.26 3.26 0 0 1 -1.715-.3 8.371 8.371 0 0 1 -2.164-2.356c-.673-.881-1.427-1.955-1.747-2.372a.26.26 0 0 0 -.209-.1l-1.971-.032c-.08 0-.112.048-.112.128v.385c0 1.539 0 2.8.08 3.478.048.465.144.817.625.882a6.968 6.968 0 0 0 .721.064c.1 0 .128.048.128.1 0 .08-.08.128-.256.128-.881 0-1.891-.048-1.971-.048-.016 0-1.026.048-1.507.048-.177 0-.256-.032-.256-.128 0-.048.032-.1.128-.1a2.465 2.465 0 0 0 .481-.064c.321-.064.4-.417.465-.882.08-.673.08-1.939.08-3.478zm1.282 1.395a.209.209 0 0 0 .112.192 4.421 4.421 0 0 0 1.683.256 2.077 2.077 0 0 0 1.2-.3 2.927 2.927 0 0 0 .978-2.468c0-2-1.058-3.205-2.773-3.205a4.843 4.843 0 0 0 -1.074.1.193.193 0 0 0 -.128.192z" transform="translate(-194.721 -.639)"/><path d="m95.186 67.794v-.058a.419.419 0 0 1 .05-.009l.175-.01q.217-.02.486-.031.108 0 .34 0a1.668 1.668 0 0 1 .462.047.626.626 0 0 1 .318.207.5.5 0 0 1 .1.307q0 .275-.392.462l-.009.014a.958.958 0 0 1 .329.15.654.654 0 0 1 .2.236.609.609 0 0 1 .05.268.639.639 0 0 1 -.252.493 1.027 1.027 0 0 1 -.694.217h-.277l-.281.009h-.434c-.044 0-.086 0-.128-.005v-.021a.046.046 0 0 1 .009-.032.092.092 0 0 1 .043-.019 1.663 1.663 0 0 0 .263-.066.091.091 0 0 0 .042-.057 1.862 1.862 0 0 0 .022-.382c0-.018 0-.042 0-.07 0-.083 0-.13 0-.143v-.192q0-.49-.011-.855v-.373-.046c-.105-.015-.2-.024-.278-.028a.643.643 0 0 1 -.126-.013m.735.938a1.007 1.007 0 0 0 .2.018.678.678 0 0 0 .545-.176.558.558 0 0 0 .143-.351.53.53 0 0 0 -.025-.159.355.355 0 0 0 -.089-.146.4.4 0 0 0 -.159-.1 1.043 1.043 0 0 0 -.331-.054 1.171 1.171 0 0 0 -.294.035v.058s0 .048 0 .106v.111l-.018.226v.134l.013.262zm.431 1.268a.781.781 0 0 0 .309-.078.614.614 0 0 0 .137-.107.531.531 0 0 0 .123-.185.548.548 0 0 0 .044-.208.739.739 0 0 0 -.031-.188.5.5 0 0 0 -.1-.2.534.534 0 0 0 -.218-.139.9.9 0 0 0 -.32-.055 2.657 2.657 0 0 0 -.38.013v.063.069.139.158a5.1 5.1 0 0 0 .021.516.213.213 0 0 0 .1.137.633.633 0 0 0 .321.059" transform="translate(-70.461 -50.102)"/><path d="m105.809 70.187a.087.087 0 0 1 .032-.02.581.581 0 0 1 .108-.015.74.74 0 0 0 .223-.033.182.182 0 0 0 .026-.1v-.13-.472-.223-.467l-.009-.53a.523.523 0 0 0 -.024-.214.346.346 0 0 0 -.2-.041.873.873 0 0 1 -.124-.011.038.038 0 0 1 -.024-.034.088.088 0 0 1 .009-.035.065.065 0 0 1 .03-.009h.063c.073.007.149.011.227.011h.137l.327.008q.245 0 .383-.005t.186-.006c.028 0 .1 0 .212.008h.264l.031.005.154-.005.018.009a.1.1 0 0 1 .013.032.6.6 0 0 1 -.008.08.657.657 0 0 0 -.008.067q0 .193.013.327a.018.018 0 0 1 -.011.015.108.108 0 0 1 -.036-.006.994.994 0 0 1 -.055-.124 1.422 1.422 0 0 0 -.1-.206.286.286 0 0 0 -.072-.093.258.258 0 0 0 -.108-.015h-.169-.08l-.53.011h-.046c-.068 0-.109.009-.123.026a.609.609 0 0 0 -.031.262q0 .023.009.446v.258a.163.163 0 0 0 .045.006h.032.093.13.039q.2-.008.516-.008a.218.218 0 0 0 .115-.039.393.393 0 0 0 .042-.175c.009-.094.03-.148.062-.16a.106.106 0 0 1 .045.01.108.108 0 0 1 0 .028.359.359 0 0 1 0 .043c-.006.046-.009.189-.009.431q0 .1.01.215c.007.079.01.122.01.128a.25.25 0 0 1 -.006.045.058.058 0 0 1 -.024.008h-.016a.684.684 0 0 1 -.058-.162.524.524 0 0 0 -.1-.235.255.255 0 0 0 -.172-.047h-.095c-.046 0-.114 0-.2 0h-.121a3.2 3.2 0 0 0 -.338.011v.062.342.216.21a.572.572 0 0 0 .024.219c.021.028.067.041.137.041h.113.116.25a2.335 2.335 0 0 0 .477-.031.413.413 0 0 0 .2-.109 1.3 1.3 0 0 0 .194-.337c.024-.051.047-.077.071-.077a.066.066 0 0 1 .037.015 1.633 1.633 0 0 0 -.085.507.17.17 0 0 1 -.03.1h-.041l-.522.005h-.234l-.557.008h-.227-.079q-.335.015-.492.015a.06.06 0 0 1 -.038-.009.034.034 0 0 1 -.01-.027z" transform="translate(-78.324 -50.224)"/><path d="m116.43 69.8a.1.1 0 0 1 .046-.015h.043.044a.728.728 0 0 0 .169-.026.285.285 0 0 0 .112-.123 4.479 4.479 0 0 0 .217-.537c.038-.11.063-.177.072-.2.031-.074.061-.152.089-.234l.175-.488q.041-.115.2-.528.039-.1.095-.278h.055.065a2.623 2.623 0 0 1 .141.34q.033.1.109.288l.282.763.15.414q.119.353.156.434a.309.309 0 0 0 .069.106.262.262 0 0 0 .069.022l.085.022a.785.785 0 0 1 .119.041.108.108 0 0 1 .007.031.109.109 0 0 1 -.005.028h-.084q-.095 0-.334-.005h-.186-.225-.045-.04-.041a.1.1 0 0 1 -.037-.011.14.14 0 0 1 .009-.05.119.119 0 0 1 .041-.013l.195-.013a.347.347 0 0 0 .115-.021.18.18 0 0 0 .011-.05.8.8 0 0 0 -.048-.173q-.034-.093-.058-.177t-.2-.551a.816.816 0 0 0 -.134-.013h-.4-.117a1.152 1.152 0 0 0 -.139.009c-.016.037-.027.064-.032.08l-.163.511a2.577 2.577 0 0 0 -.1.321.172.172 0 0 0 .017.056.792.792 0 0 0 .1.02l.252.022c.013.011.021.021.021.03a.1.1 0 0 1 -.006.028h-.128q-.149 0-.345-.009h-.13-.136-.091c-.03 0-.068 0-.115-.006v-.011a.121.121 0 0 1 .008-.035m.886-1.114q.2.011.453.011c.1 0 .181 0 .254-.009a1.224 1.224 0 0 0 -.043-.136l-.134-.356-.169-.429-.019-.033q-.011.022-.082.191-.119.289-.171.451c-.016.048-.033.1-.05.144a.973.973 0 0 0 -.032.1.325.325 0 0 1 -.02.059z" transform="translate(-86.181 -49.865)"/><path d="m129.19 67.772a.182.182 0 0 1 .009.048.144.144 0 0 1 -.006.033.321.321 0 0 1 -.078.013h-.044-.049a.244.244 0 0 0 -.136.034.084.084 0 0 0 -.041.054l-.019.212.006.92a3.636 3.636 0 0 0 .033.629.459.459 0 0 0 .106.2.543.543 0 0 0 .224.132.877.877 0 0 0 .29.052 1.033 1.033 0 0 0 .484-.091.536.536 0 0 0 .242-.252 1.235 1.235 0 0 0 .073-.488c0-.006 0-.056-.005-.149v-.054c0-.02 0-.058 0-.116s0-.091 0-.1l-.028-.534a1.757 1.757 0 0 0 -.031-.318.15.15 0 0 0 -.051-.072.784.784 0 0 0 -.275-.093.182.182 0 0 1 -.011-.054 1.407 1.407 0 0 1 .143-.008q.074 0 .156.006l.134.009.294-.009h.057v.067a.649.649 0 0 0 -.273.07.193.193 0 0 0 -.045.148c0 .038 0 .122.008.251l.013.385v.152l.006.193a3.985 3.985 0 0 1 -.02.5 1.024 1.024 0 0 1 -.085.292.613.613 0 0 1 -.159.194.826.826 0 0 1 -.277.142 1.117 1.117 0 0 1 -.343.056 1.4 1.4 0 0 1 -.383-.037.979.979 0 0 1 -.34-.169.62.62 0 0 1 -.175-.208.971.971 0 0 1 -.065-.4v-.128l-.005-.52.005-.42v-.283a.277.277 0 0 0 -.029-.15.068.068 0 0 0 -.06-.03h-.109a.294.294 0 0 1 -.156-.026.1.1 0 0 1 -.006-.03.032.032 0 0 1 .011-.026.085.085 0 0 1 .05-.015h.048.124.293z" transform="translate(-94.881 -50.165)"/><path d="m139.793 67.836.076-.28a.159.159 0 0 1 .02-.072.037.037 0 0 1 .03-.016c.022 0 .048.027.076.08a.268.268 0 0 0 .052.074.129.129 0 0 0 .06.022h.018l.08.008.438.005h.518.152l.288-.005h.046c.084.008.136.011.156.011a.058.058 0 0 0 .045-.018s.024-.046.061-.123q.024-.052.059-.052a.125.125 0 0 1 .037.008.282.282 0 0 1 .009.066v.074.157c0 .038 0 .161-.009.368a.092.092 0 0 1 -.008.037.069.069 0 0 1 -.035.013.032.032 0 0 1 -.026-.014.294.294 0 0 1 -.028-.085.629.629 0 0 0 -.093-.238.209.209 0 0 0 -.107-.066 1.6 1.6 0 0 0 -.333-.02h-.314v.136l.015 1.154q0 .069-.008.26v.247.138a.151.151 0 0 0 .023.093.255.255 0 0 0 .121.054q.171.043.228.052a.169.169 0 0 1 .058.015v.056l-.264-.006q-.217 0-.327-.008l-.271.013-.2.011a.8.8 0 0 1 -.1 0l-.026-.011a.091.091 0 0 1 .017-.055.15.15 0 0 1 .069-.019 1.573 1.573 0 0 0 .184-.04.38.38 0 0 0 .139-.058.1.1 0 0 0 .026-.056 1.96 1.96 0 0 0 .017-.321v-.325l-.008-.689-.007-.149v-.5h-.3a.916.916 0 0 0 -.325.032 1.155 1.155 0 0 0 -.271.3c-.039.061-.074.092-.1.092h-.017a.04.04 0 0 1 -.007-.021.862.862 0 0 1 .03-.134c.025-.1.039-.16.045-.193" transform="translate(-103.427 -49.943)"/><path d="m150.071 67.744h.089.212q.252.01.419.01h.217a.523.523 0 0 1 .089.008.047.047 0 0 1 .013.031v.021l-.046.022h-.021-.1-.054a.176.176 0 0 0 -.1.028.056.056 0 0 0 -.03.043.116.116 0 0 0 .026.061l.03.045a1.767 1.767 0 0 0 .1.147q.087.123.186.29c.026.044.053.087.082.128l.283.428q.028-.035.076-.1l.268-.385.309-.463a.374.374 0 0 0 .048-.093.125.125 0 0 0 0-.032.074.074 0 0 0 -.035-.063.618.618 0 0 0 -.249-.057l-.035-.006a.077.077 0 0 1 -.013-.037.161.161 0 0 1 0-.024h.1l.349.009.281-.005h.078l-.005.065a.235.235 0 0 1 -.041.005l-.045.005h-.035a.266.266 0 0 0 -.061.031 6.111 6.111 0 0 0 -.464.544q-.191.256-.323.466-.042.069-.069.1a.377.377 0 0 0 -.058.093.892.892 0 0 0 -.02.22 6.053 6.053 0 0 0 .02.683c.008.035.017.056.03.063a1.952 1.952 0 0 0 .384.058v.022a.148.148 0 0 1 -.013.053l-.477-.021-.318.017h-.261-.082a.109.109 0 0 1 -.007-.03.079.079 0 0 1 .006-.026.053.053 0 0 1 .026-.013l.241-.037a.59.59 0 0 0 .14-.056.113.113 0 0 0 .028-.069q0-.033 0-.516a1.137 1.137 0 0 0 -.012-.22.663.663 0 0 0 -.079-.14l-.243-.369-.414-.6a.812.812 0 0 0 -.188-.21.466.466 0 0 0 -.177-.037h-.044z" transform="translate(-111.09 -50.144)"/><path d="m169.385 67.764.02.282c.008.085.011.144.011.175l-.052.009a1.059 1.059 0 0 0 -.309-.423.725.725 0 0 0 -.452-.141 1.3 1.3 0 0 0 -.509.08 1.039 1.039 0 0 0 -.451.394 1.187 1.187 0 0 0 -.188.676 1.152 1.152 0 0 0 .069.41 1.23 1.23 0 0 0 .194.339 1.323 1.323 0 0 0 .3.272.825.825 0 0 0 .265.115 1.234 1.234 0 0 0 .26.021 1.1 1.1 0 0 0 .247-.032.532.532 0 0 0 .2-.085.272.272 0 0 0 .094-.119 1.517 1.517 0 0 0 -.018-.634q-.043-.053-.269-.07l-.074-.005h-.05l-.03-.005-.028-.046a.041.041 0 0 1 .014-.024 3.524 3.524 0 0 1 .419-.015h.236l.191.007h.173q.05 0 .121 0a.026.026 0 0 1 .017.006.025.025 0 0 1 0 .016.182.182 0 0 1 -.009.052.614.614 0 0 1 -.121.017h-.121a.124.124 0 0 0 -.1.043.286.286 0 0 0 -.019.139v.243a1.466 1.466 0 0 1 -.021.319.153.153 0 0 1 -.046.073.517.517 0 0 1 -.148.077 1.425 1.425 0 0 1 -.294.088 2.775 2.775 0 0 1 -.474.043 1.64 1.64 0 0 1 -.6-.094 1.205 1.205 0 0 1 -.405-.261 1.069 1.069 0 0 1 -.242-.338 1.268 1.268 0 0 1 -.109-.511 1.3 1.3 0 0 1 .172-.636 1.262 1.262 0 0 1 .554-.506 1.628 1.628 0 0 1 .732-.137 2.03 2.03 0 0 1 .523.056 1.335 1.335 0 0 1 .322.126" transform="translate(-123.683 -50.028)"/><path d="m179.064 69.8a.1.1 0 0 1 .046-.015h.043.044a.731.731 0 0 0 .169-.026.283.283 0 0 0 .111-.123 4.39 4.39 0 0 0 .217-.537c.039-.11.063-.177.073-.2q.046-.111.089-.234l.175-.488q.041-.115.2-.528c.026-.069.058-.162.1-.278h.054.065a2.551 2.551 0 0 1 .141.34q.033.1.109.288l.282.763.15.414q.118.353.156.434a.325.325 0 0 0 .069.106.272.272 0 0 0 .07.022l.084.022a.778.778 0 0 1 .119.041.093.093 0 0 1 .007.031.123.123 0 0 1 -.005.028h-.083q-.1 0-.334-.005h-.186-.225-.045-.039-.041a.1.1 0 0 1 -.037-.011.139.139 0 0 1 .009-.05.12.12 0 0 1 .041-.013l.195-.013a.346.346 0 0 0 .115-.021.183.183 0 0 0 .011-.05.806.806 0 0 0 -.048-.173q-.034-.093-.058-.177t-.2-.551a.815.815 0 0 0 -.133-.013h-.4-.117a1.141 1.141 0 0 0 -.139.009c-.017.037-.027.064-.032.08l-.163.511a2.474 2.474 0 0 0 -.1.321.172.172 0 0 0 .017.056.8.8 0 0 0 .1.02l.252.022c.014.011.021.021.021.03a.1.1 0 0 1 -.005.028h-.128q-.149 0-.345-.009h-.13-.135-.091c-.03 0-.068 0-.115-.006v-.011a.1.1 0 0 1 .007-.035m.886-1.114q.2.011.453.011c.1 0 .181 0 .254-.009a1.286 1.286 0 0 0 -.043-.136l-.133-.356-.169-.429-.018-.033c-.007.015-.035.078-.082.191q-.119.289-.171.451c-.016.048-.032.1-.05.144a.869.869 0 0 0 -.032.1.328.328 0 0 1 -.02.059z" transform="translate(-132.547 -49.865)"/><path d="m190.877 70.083a2.636 2.636 0 0 0 .3-.044.1.1 0 0 0 .044-.056v-.02q0-.046.015-.336c0-.054 0-.108 0-.159l-.005-.221v-.25-.466-.334a.549.549 0 0 0 -.032-.258.276.276 0 0 0 -.177-.066.828.828 0 0 1 -.158-.029.031.031 0 0 1 -.015-.03.138.138 0 0 1 .005-.034.146.146 0 0 1 .085-.018h.051a.7.7 0 0 1 .079 0h.152l.488-.006a1.878 1.878 0 0 1 .58.062.533.533 0 0 1 .264.207.568.568 0 0 1 -.259.848.925.925 0 0 0 -.1.056q.064.133.176.321l.236.4a2.3 2.3 0 0 0 .2.28.449.449 0 0 0 .131.094 1.127 1.127 0 0 0 .259.071.231.231 0 0 1 0 .03.2.2 0 0 1 0 .028q-.254 0-.6 0h-.067q-.132-.253-.31-.556l-.275-.5a.331.331 0 0 0 -.092-.1.2.2 0 0 0 -.1-.02h-.158-.052c0 .039-.006.121-.006.243v.635a.36.36 0 0 0 .015.1.115.115 0 0 0 .051.057 1.071 1.071 0 0 0 .209.064l.076.019a.076.076 0 0 1 .015.05.466.466 0 0 1 -.07.009q-.167 0-.235 0h-.058-.252-.247l-.169.005-.037-.007v-.018c0-.011.009-.024.026-.039m.689-1.214h.074a1.741 1.741 0 0 0 .309-.032.505.505 0 0 0 .2-.079.41.41 0 0 0 .127-.162.514.514 0 0 0 .051-.222.544.544 0 0 0 -.08-.267.467.467 0 0 0 -.207-.18.781.781 0 0 0 -.35-.072c-.033 0-.077 0-.13.005 0 .064-.007.114-.007.148l.01.347v.143q0 .145.008.369" transform="translate(-141.278 -50.15)"/><path d="m201.32 70.043a.546.546 0 0 1 .16-.039.405.405 0 0 0 .2-.063 1.563 1.563 0 0 0 .05-.52v-.294-.177-.13-.24l-.006-.6a.208.208 0 0 0 -.03-.134.491.491 0 0 0 -.227-.085.275.275 0 0 1 -.093-.031.077.077 0 0 1 -.02-.053.343.343 0 0 1 .059-.009h.132.069a.874.874 0 0 1 .152.015q.171.011.351.011c.035 0 .084 0 .149-.005.171-.01.293-.015.368-.015a1.935 1.935 0 0 1 .424.045 1.5 1.5 0 0 1 .411.165 1.066 1.066 0 0 1 .27.241 1.184 1.184 0 0 1 .21.358 1.257 1.257 0 0 1 .072.437 1.224 1.224 0 0 1 -.079.431 1.129 1.129 0 0 1 -.22.371 1.1 1.1 0 0 1 -.286.236 1.6 1.6 0 0 1 -.442.136 2.856 2.856 0 0 1 -.44.022q-.21 0-.342-.013a.79.79 0 0 0 -.111-.008h-.021l-.757.015v-.015a.055.055 0 0 1 0-.02zm.945-.074a.877.877 0 0 0 .286.048 1.184 1.184 0 0 0 .368-.059 1.042 1.042 0 0 0 .319-.165 1.015 1.015 0 0 0 .227-.241 1.11 1.11 0 0 0 .126-.243 1.333 1.333 0 0 0 .052-.41 1.288 1.288 0 0 0 -.1-.49.907.907 0 0 0 -.248-.33 1.1 1.1 0 0 0 -.419-.231 1.779 1.779 0 0 0 -.522-.074.719.719 0 0 0 -.286.043.208.208 0 0 0 -.023.026.375.375 0 0 0 -.011.085v.058c0 .143.005.259.005.345v.422a7.322 7.322 0 0 0 .034 1.034.345.345 0 0 0 .192.183" transform="translate(-149.024 -50.087)"/><path d="m214.264 70.187a.087.087 0 0 1 .031-.02.589.589 0 0 1 .108-.015.739.739 0 0 0 .223-.033.179.179 0 0 0 .026-.1v-.13-.472-.223-.467l-.009-.53a.518.518 0 0 0 -.024-.214.346.346 0 0 0 -.2-.041.878.878 0 0 1 -.125-.011.039.039 0 0 1 -.024-.034.089.089 0 0 1 .009-.035.065.065 0 0 1 .03-.009h.063c.073.007.149.011.227.011h.137l.327.008q.245 0 .382-.005c.091 0 .154-.006.186-.006s.1 0 .212.008h.264l.031.005.154-.005.018.009a.1.1 0 0 1 .013.032.587.587 0 0 1 -.008.08.617.617 0 0 0 -.009.067q0 .193.013.327a.018.018 0 0 1 -.011.015.108.108 0 0 1 -.037-.006.959.959 0 0 1 -.055-.124 1.422 1.422 0 0 0 -.1-.206.29.29 0 0 0 -.072-.093.258.258 0 0 0 -.108-.015h-.169-.08l-.53.011h-.046c-.068 0-.109.009-.123.026a.607.607 0 0 0 -.032.262q0 .023.01.446v.258a.16.16 0 0 0 .044.006h.031.093.13.039q.2-.008.516-.008a.218.218 0 0 0 .115-.039.393.393 0 0 0 .042-.175c.009-.094.03-.148.062-.16a.107.107 0 0 1 .045.01.138.138 0 0 1 0 .028v.043c-.007.046-.009.189-.009.431q0 .1.01.215c.007.079.01.122.01.128a.247.247 0 0 1 -.005.045.06.06 0 0 1 -.024.008h-.013a.71.71 0 0 1 -.057-.162.527.527 0 0 0 -.1-.235.255.255 0 0 0 -.172-.047h-.095c-.046 0-.114 0-.2 0h-.128a3.184 3.184 0 0 0 -.338.011v.062.342.216.21a.568.568 0 0 0 .024.219.171.171 0 0 0 .137.041h.114.116.25a2.339 2.339 0 0 0 .477-.031.414.414 0 0 0 .2-.109 1.3 1.3 0 0 0 .194-.337c.023-.051.047-.077.071-.077a.066.066 0 0 1 .037.015 1.633 1.633 0 0 0 -.085.507.171.171 0 0 1 -.03.1h-.041l-.522.005h-.234l-.557.008h-.227-.08q-.335.015-.492.015a.058.058 0 0 1 -.038-.009.034.034 0 0 1 -.01-.027z" transform="translate(-158.608 -50.224)"/><path d="m225.173 67.885v-.089q.288 0 .421-.015c.035 0 .059-.006.072-.006h.05a1.035 1.035 0 0 1 .145.148l.033.037.392.433.056.067q.119.14.216.238t.38.41l.443.492q.065.072.167.18v-.03c-.007-.172-.011-.263-.011-.273l.008-.111v-.175-.08c0-.051 0-.208-.013-.47 0-.036-.007-.1-.015-.2s-.013-.187-.013-.263a.6.6 0 0 0 -.024-.238.339.339 0 0 0 -.158-.05c-.023 0-.057 0-.1-.011a.53.53 0 0 1 -.1-.009.067.067 0 0 1 -.03-.032.176.176 0 0 1 .017-.056.34.34 0 0 1 .1-.015.786.786 0 0 1 .129.013.852.852 0 0 0 .138.013c.057 0 .146 0 .266-.011.068 0 .115-.008.141-.008h.031v.058a.244.244 0 0 1 -.082.016.428.428 0 0 0 -.1.016.213.213 0 0 0 -.08.035.146.146 0 0 0 -.044.1l.02.587.015.269v.078l.011.373q.011.383.011.665c0 .041 0 .129-.007.265l-.087.008q-.065-.074-.448-.468-.09-.091-.121-.128l-.16-.184q-.093-.1-.121-.13l-.041-.041q-.2-.23-.526-.576-.088-.093-.256-.29c-.071-.083-.115-.134-.134-.152a.7.7 0 0 0 -.076-.063l-.005.063q0 .362.018 1l.013.615c0 .052 0 .1.009.15l.065.015q.177.017.347.05a.146.146 0 0 0 .022.017v.071a.169.169 0 0 1 -.048.009h-.05c-.123-.01-.272-.015-.448-.015q-.186 0-.327.009h-.026-.048v-.056l.048-.022.087-.013a.86.86 0 0 0 .171-.037.136.136 0 0 0 .058-.039 2.552 2.552 0 0 0 .02-.375q0-.115-.005-.422v-.253-.527a2.311 2.311 0 0 0 -.024-.416.122.122 0 0 0 -.047-.059.393.393 0 0 0 -.185-.063 1.154 1.154 0 0 1 -.148-.022" transform="translate(-166.683 -50.165)"/></g></svg>