<svg height="28" viewBox="0 0 28 28" width="28" xmlns="http://www.w3.org/2000/svg" xmlns:xlink="http://www.w3.org/1999/xlink"><clipPath id="a"><path d="m0 0h28v28h-28z"/></clipPath><g clip-path="url(#a)" fill="#333"><path d="m14 2.523c3.738 0 4.181.014 5.657.082a7.746 7.746 0 0 1 2.6.482 4.338 4.338 0 0 1 1.61 1.047 4.338 4.338 0 0 1 1.047 1.61 7.746 7.746 0 0 1 .482 2.6c.067 1.476.082 1.919.082 5.657s-.014 4.181-.082 5.657a7.746 7.746 0 0 1 -.482 2.6 4.636 4.636 0 0 1 -2.657 2.657 7.746 7.746 0 0 1 -2.6.482c-1.476.067-1.919.082-5.657.082s-4.181-.014-5.657-.082a7.746 7.746 0 0 1 -2.6-.482 4.339 4.339 0 0 1 -1.61-1.047 4.338 4.338 0 0 1 -1.047-1.61 7.748 7.748 0 0 1 -.482-2.6c-.067-1.476-.082-1.919-.082-5.657s.014-4.181.082-5.657a7.748 7.748 0 0 1 .482-2.6 4.338 4.338 0 0 1 1.047-1.61 4.339 4.339 0 0 1 1.61-1.047 7.746 7.746 0 0 1 2.6-.482c1.476-.067 1.919-.082 5.657-.082m0-2.523c-3.8 0-4.28.016-5.773.084a10.277 10.277 0 0 0 -3.4.651 6.863 6.863 0 0 0 -2.478 1.615 6.863 6.863 0 0 0 -1.615 2.479 10.276 10.276 0 0 0 -.651 3.4c-.068 1.492-.083 1.971-.083 5.771s.016 4.279.084 5.772a10.276 10.276 0 0 0 .651 3.4 6.863 6.863 0 0 0 1.615 2.48 6.863 6.863 0 0 0 2.48 1.615 10.277 10.277 0 0 0 3.4.651c1.49.066 1.97.082 5.77.082s4.279-.016 5.772-.084a10.276 10.276 0 0 0 3.4-.651 7.159 7.159 0 0 0 4.094-4.095 10.276 10.276 0 0 0 .651-3.4c.066-1.491.083-1.97.083-5.77s-.016-4.279-.084-5.772a10.276 10.276 0 0 0 -.651-3.4 6.864 6.864 0 0 0 -1.615-2.48 6.863 6.863 0 0 0 -2.48-1.613 10.276 10.276 0 0 0 -3.4-.651c-1.492-.068-1.97-.084-5.77-.084" transform="translate(.001)"/><path d="m129.744 122.556a7.189 7.189 0 1 0 7.189 7.189 7.189 7.189 0 0 0 -7.189-7.189m0 11.856a4.667 4.667 0 1 1 4.667-4.667 4.667 4.667 0 0 1 -4.667 4.667" transform="translate(-115.744 -115.745)"/><path d="m359.526 88.895a1.68 1.68 0 1 1 -1.68-1.68 1.68 1.68 0 0 1 1.68 1.68" transform="translate(-336.373 -82.368)"/></g></svg>