<svg height="18.044" viewBox="0 0 323.222 18.044" width="323.222" xmlns="http://www.w3.org/2000/svg" xmlns:xlink="http://www.w3.org/1999/xlink"><clipPath id="a"><path d="m0 0h323.222v18.044h-323.222z"/></clipPath><g clip-path="url(#a)" fill="#262727"><path d="m8.962 7.742a.15.15 0 0 0 -.14.119 16.177 16.177 0 0 1 -6.761 9.383 2.485 2.485 0 0 1 -1.02.52c-.401 0-1.041-.78-1.041-1.164 0-.2.2-.3.461-.46a15.312 15.312 0 0 0 4.68-4.24 17.085 17.085 0 0 0 2.941-9.76c0-.44-.02-.879-.02-1.32s.1-.58.42-.58a11.668 11.668 0 0 1 1.4.18c.221.04.46.06.46.26 0 .18-.239.26-.38.34a.31.31 0 0 0 -.18.3c-.02.5-.04.981-.04 1.481 0 .139.02.32.02.46a17.274 17.274 0 0 0 1.12 5.1 16.286 16.286 0 0 0 6.542 7.922c.16.1.4.24.4.42 0 .4-.62 1.14-1 1.14a.8.8 0 0 1 -.36-.14 15.822 15.822 0 0 1 -3.341-2.76 17.377 17.377 0 0 1 -4.023-7.082.15.15 0 0 0 -.14-.119"/><path d="m31.5 4.3c.4 0 .56-.16.56-.56v-1.6a11.6 11.6 0 0 0 -.078-1.48c0-.059-.02-.12-.02-.179 0-.241.16-.3.36-.3.3 0 .98.1 1.32.12.28.021.68.021.68.28 0 .141-.1.181-.279.3-.221.16-.241.461-.241 1.061v1.8c0 .4.16.56.54.56h3.7c.8 0 1.6-.04 2.4-.04.46 0 .46.2.46.841 0 .62-.02.84-.46.84-.8 0-1.6-.06-2.4-.06h-3.7c-.38 0-.54.159-.54.56v2.6c0 .38.16.54.54.54h2.858c.78 0 1.56-.04 2.341-.04.459 0 .459.221.459.841 0 .6 0 .819-.459.819-.781 0-1.561-.059-2.341-.059h-2.858c-.38 0-.54.16-.54.56v3.461c0 .38.16.54.54.54h4.441c.821 0 1.621-.04 2.421-.04.48 0 .48.22.48.841 0 .6 0 .839-.46.839-.82 0-1.62-.059-2.441-.059h-11.862c-.8 0-1.6.059-2.42.059-.441 0-.461-.2-.461-.839s.02-.841.461-.841c.819 0 1.62.04 2.42.04h4.579c.4 0 .56-.16.56-.54v-3.465c0-.4-.16-.56-.56-.56h-2.8c-.76 0-1.54.059-2.32.059-.481 0-.481-.259-.481-.819 0-.581 0-.841.481-.841.78 0 1.56.04 2.32.04h2.8c.4 0 .56-.16.56-.54v-2.6c0-.4-.16-.56-.56-.56h-3.279a.716.716 0 0 0 -.76.46c-.28.56-1.74 3.3-2.32 3.3-.321 0-1.161-.4-1.161-.78 0-.161.2-.381.3-.5a17.173 17.173 0 0 0 3.281-7.182c.04-.141.1-.32.28-.32a7.979 7.979 0 0 1 .84.179c.7.181 1.02.24 1.02.481 0 .179-.2.259-.32.32-.32.16-.38.359-.54.939-.08.261-.16.581-.32 1.021a.482.482 0 0 0 -.04.16c0 .32.32.34.4.34z"/><path d="m52.9 2.541c.12.059.34.16.34.319 0 .12-.06.16-.16.2-.42.2-.52.321-.78 1a20.351 20.351 0 0 0 -1.04 6.182c0 .4.08 2.861.52 2.861.16 0 .3-.3.54-.9.1-.241.32-.981.56-.981.2 0 .64.259.64.48a2.11 2.11 0 0 1 -.1.38 16.937 16.937 0 0 0 -.82 3.141c0 .28.02.56.02.82 0 .44-.26.58-.62.741a2.252 2.252 0 0 1 -.62.179c-.281 0-.461-.4-.561-.62a14.32 14.32 0 0 1 -1.18-6.062 23.963 23.963 0 0 1 .94-6.421c.161-.56.34-1.121.48-1.68.02-.14.081-.321.241-.321a12.788 12.788 0 0 1 1.6.681m7.982-.58c.1.04.179.08.179.2s-.1.221-.179.32a3.112 3.112 0 0 0 -.221 1.5v.46c0 .44.041.741.42.741a15.524 15.524 0 0 0 2.119-.52.741.741 0 0 1 .3-.08c.38 0 .5 1.181.5 1.36 0 .42-.58.5-2.6.8-.361.061-.66.12-.66.6 0 .519.14 3.78.18 4.421.02.5.26.561.64.74.56.26 2.72 1.42 2.72 2.061 0 .42-.58 1.16-.94 1.16-.2 0-.4-.2-.52-.32a6.422 6.422 0 0 0 -1.72-1.24c-.2 0-.239.161-.259.321-.241 1.4-1.5 1.86-2.781 1.86-1.481 0-3.221-.681-3.221-2.421 0-1.7 1.521-2.34 2.981-2.34a7.732 7.732 0 0 1 .96.06.68.68 0 0 0 .2.02c.28 0 .38-.14.38-.4 0-.681-.1-2.761-.14-3.5-.02-.22.02-.72-.46-.72-.1 0-1.46.08-2.221.08a16.057 16.057 0 0 1 -2.02-.1c-.26-.08-.26-.96-.26-1.219s.02-.461.28-.461a2.711 2.711 0 0 1 .4.04c.861.08 1.781.14 2.641.14.88 0 1.46.04 1.46-.46s-.18-2.461-.26-3v-.182a.212.212 0 0 1 .24-.24 15.8 15.8 0 0 1 1.861.32m-1.718 11.222a4.547 4.547 0 0 0 -1.18-.18c-.54 0-1.64.2-1.64.92 0 .74 1.08 1 1.66 1 .88 0 1.42-.359 1.42-1.3a.443.443 0 0 0 -.26-.44"/><path d="m76.421 15.844c0 .34-.78 1.26-1.16 1.26-.18 0-.3-.16-.4-.3a12.117 12.117 0 0 0 -3.041-2.66c-.14-.1-.32-.181-.32-.381a1.987 1.987 0 0 1 1.08-1.12c.5 0 3.841 2.721 3.841 3.2"/><path d="m98.122 13.543c0-.16-.06-.28-.22-.28-.06 0-.12.06-.18.08a21.69 21.69 0 0 1 -6.2 3.861 2.6 2.6 0 0 1 -.74.22c-.36 0-.821-.76-.821-1.06 0-.28.361-.38.64-.48a20.625 20.625 0 0 0 5.681-3.184.247.247 0 0 0 .08-.16c0-.14-.12-.18-.24-.18h-3.2c-.78 0-1.56.04-2.341.04-.419 0-.44-.2-.44-.74 0-.561.021-.761.44-.761.781 0 1.561.04 2.341.04h4.721c.32 0 .46-.1.48-.44l-.06-.76a.821.821 0 0 1 -.02-.22c0-.22.16-.261.34-.261.22 0 .52.041.74.061.7.06 1.06.04 1.06.32 0 .12-.079.16-.239.26-.22.16-.2.36-.22.6.02.341.16.44.479.44h4.7c.78 0 1.56-.04 2.34-.04.42 0 .44.18.44.761s-.02.74-.44.74c-.78 0-1.56-.04-2.34-.04h-3.241c-.18 0-.22.1-.22.16a.162.162 0 0 0 .08.16 23.885 23.885 0 0 0 5.578 3.22c.38.16.74.28.74.54 0 .3-.48 1.06-.86 1.06a14.53 14.53 0 0 1 -2.781-1.32 23.6 23.6 0 0 1 -4.081-2.9.35.35 0 0 0 -.2-.08c-.2 0-.2.241-.2.26v2c0 .64.04 1.28.04 1.92 0 .62-.161.66-.821.66-.64 0-.86-.019-.86-.62 0-.66.04-1.3.04-1.96zm-3.322-6.682c0 .16-.121.261-.281.38-.9.721-1.84 1.381-2.8 2.02-.32.2-.34.221-.36.381-.02.14-.04.34-.22.34-.24 0-1.081-1.221-1.081-1.421 0-.159.2-.219.321-.279a21.084 21.084 0 0 0 3.28-2.221.628.628 0 0 1 .341-.179c.3 0 .8.7.8.979m-2.881-5.5c.5.4 1 .84 1.48 1.28.26.22 1.08.88 1.08 1.2a1.262 1.262 0 0 1 -.9.86c-.2 0-.34-.18-.48-.32-.7-.7-1.46-1.321-2.22-1.96-.12-.1-.3-.221-.3-.4a1.354 1.354 0 0 1 .9-.9.809.809 0 0 1 .44.24m8.942.7c.36 0 .72-.019 1.08-.019.5 0 .7.26.7.76 0 .379-.02.78-.02 1.16v3.62c0 .42.04.82.04 1.24 0 .46-.26.48-.78.48-.34 0-.52 0-.68-.14-.1-.1-.16-.18-.28-.2h-3.9a.391.391 0 0 0 -.28.179c-.18.161-.34.161-.7.161-.48 0-.76-.02-.76-.48 0-.42.02-.82.02-1.24v-3.621c0-.38-.02-.76-.02-1.141 0-.479.18-.779.7-.779.34 0 .68.019 1 .019a.723.723 0 0 0 .74-.44 13.353 13.353 0 0 0 .62-1.34c.04-.14.08-.28.24-.28.02 0 1.761.44 1.761.761 0 .139-.161.179-.26.2a.464.464 0 0 0 -.4.22c-.06.1-.22.36-.279.48a.242.242 0 0 0 -.04.16c0 .181.119.221.279.24zm.28 1.821a.462.462 0 0 0 -.48-.481h-3.379a.468.468 0 0 0 -.5.481v.518a.468.468 0 0 0 .5.48h3.381a.463.463 0 0 0 .48-.48zm-4.361 3.26a.468.468 0 0 0 .5.481h3.381a.462.462 0 0 0 .48-.481v-.542a.452.452 0 0 0 -.48-.48h-3.379a.458.458 0 0 0 -.5.48zm9.962 2.621c-.18 0-.34-.16-.48-.28a28.535 28.535 0 0 0 -2.821-2.28c-.14-.1-.32-.221-.32-.4 0-.321.52-.941.84-.941a10.052 10.052 0 0 1 1.963 1.338c.38.3 1.24 1 1.56 1.319a.45.45 0 0 1 .16.3c0 .3-.6.94-.9.94m.5-7.522c-.12 0-.26.141-.34.24-.4.4-2.34 2.281-2.8 2.281a1.4 1.4 0 0 1 -.94-.86c0-.181.24-.341.44-.5a15.232 15.232 0 0 0 2.361-2.2c.08-.08.18-.22.3-.22a4.191 4.191 0 0 1 1.42 1.08c0 .241-.38.18-.44.18"/><path d="m119.642 2.2c.16.04.38.12.38.3 0 .139-.12.22-.22.3a1.964 1.964 0 0 0 -.4 1.2 48.642 48.642 0 0 0 -.44 6.821c0 1.721.04 4.2 2.38 4.2a5.377 5.377 0 0 0 4-2.061 6.04 6.04 0 0 0 1.22-2.981c.04-.28.08-.62.34-.62.381 0 1.341.8 1.341 1.36a7.2 7.2 0 0 1 -.781 2.261 6.985 6.985 0 0 1 -6 3.8 4.137 4.137 0 0 1 -3.341-1.52c-.86-1.16-.94-2.981-.94-4.381 0-2.481.18-4.962.38-7.443a11.6 11.6 0 0 0 .04-1.179c0-.281.02-.481.28-.481a12.392 12.392 0 0 1 1.761.42"/><path d="m139 4.3c.14.04.38.1.38.281 0 .12-.08.2-.2.28-.24.2-.26.479-.32.84a12.663 12.663 0 0 0 -.14 1.94 12.314 12.314 0 0 0 .7 4.522c.28.66 1.041 1.94 1.84 1.94.58 0 1.241-.94 1.5-1.4.1-.181.26-.5.5-.5.34 0 1.12.66 1.12.96 0 .38-1.12 1.62-1.42 1.94a2.233 2.233 0 0 1 -1.681.88 3.641 3.641 0 0 1 -2.8-1.92c-1.28-1.94-1.48-4.621-1.48-6.9 0-.641.06-2.3.1-2.961 0-.181.08-.281.259-.281a13.684 13.684 0 0 1 1.642.379m8.482-.28a6.268 6.268 0 0 1 2.581 2.361 10.6 10.6 0 0 1 1.44 4 3.247 3.247 0 0 1 .06.62.4.4 0 0 1 -.3.46 3.03 3.03 0 0 1 -.961.181c-.58 0-.56-.261-.6-.641a7.664 7.664 0 0 0 -2.98-5.7.35.35 0 0 1 -.16-.3 1.381 1.381 0 0 1 .92-.98"/><path d="m162.921 3.641a.868.868 0 0 0 -.86.4c-.38.48-2.16 2.761-2.66 2.761-.281 0-.981-.5-.981-.781 0-.2.28-.419.42-.56a20.554 20.554 0 0 0 3.841-5.141c.06-.1.12-.219.26-.219a6.188 6.188 0 0 1 .94.279c.42.16.7.221.7.4 0 .16-.16.22-.281.24-.26.06-.3.161-.5.46a2.829 2.829 0 0 1 -.18.3.243.243 0 0 0 -.04.16c0 .18.12.241.28.241h8.782c.78 0 1.541-.061 2.32-.061.4 0 .421.2.421.78 0 .6-.021.781-.421.781-.779 0-1.54-.04-2.32-.04zm5.221 14.323h-.46c-.6 0-.94-.08-.94-.96 0-.28.06-.56.38-.56.14 0 .84.06 1.3.06h.419c.56 0 1.261-.04 1.54-.54a.586.586 0 0 0 .041-.18c0-.241-.22-.32-.42-.32h-7.622c-.3 0-.42.079-.48.36-.1.38-.08.6-.46.6-.28 0-1.221-.12-1.221-.5 0-.02.14-.6.2-.86.2-1.08.6-3.321.64-3.5v-.1a.38.38 0 0 0 -.42-.421c-.6-.02-1.2.04-1.8.04-.4 0-.4-.26-.4-.76 0-.559 0-.76.42-.76.66 0 1.32.041 1.98.041a.535.535 0 0 0 .6-.5c.14-.981.24-1.961.34-2.942.06-.58.26-.8 1.02-.8.46 0 .9.04 1.36.04h6.582c.44 0 .88-.04 1.32-.04.88 0 1.08.2 1.08 1.08 0 .62-.1 1.981-.16 2.641 0 .36.14.521.5.521.679.019 1.379-.041 2.059-.041.421 0 .421.22.421.76s0 .76-.4.76c-.741 0-1.481-.06-2.221-.04-.38 0-.54.141-.62.521-.06.641-.14 1.28-.24 1.921v.115a.4.4 0 0 0 .44.421c.64.019 1.28-.061 1.92-.061.421 0 .44.2.44.781s-.019.76-.44.76c-.659 0-1.46-.06-2.14-.04a.591.591 0 0 0 -.68.5c-.6 2.061-1.66 2-3.881 2m-5.821-4.48c0 .04-.02.08-.02.119 0 .3.22.421.48.421h2.422c.38-.04.56-.141.62-.521l.26-1.94v-.1c0-.3-.22-.421-.48-.421h-2.341c-.4 0-.58.12-.64.521zm.64-4.3c0 .32.22.421.5.421h2.321c.38 0 .56-.121.62-.5l.24-1.761v-.12c0-.3-.22-.42-.48-.42h-2.321c-.58 0-.58.019-.76 1.38q-.06.39-.12.9zm7.3 4.842c.4-.04.58-.141.64-.521.12-.66.2-1.3.26-1.96.04-.36-.18-.5-.5-.5h-2.458c-.38 0-.56.12-.62.521l-.26 1.921v.1a.421.421 0 0 0 .48.441zm-2.358-4.941v.1c0 .32.22.421.5.421h2.4c.4 0 .56-.121.62-.521.02-.24.1-1.5.1-1.681 0-.559-.16-.6-.68-.6h-2.081c-.38 0-.62.519-.62.519z"/><path d="m193.742 16.724c0-.28-.14-.38-.4-.38h-6.862c-.279 0-.4.1-.4.38v.32c0 .5-.159.56-.879.56s-.9-.06-.9-.56c0-.74.061-1.5.061-2.24v-10.283c0-.6-.041-1.2-.041-1.8 0-.76.26-1 1-1 .541 0 1.062.04 1.58.04h6.023c.519 0 1.039-.04 1.539-.04.881 0 1.041.32 1.041 1.139 0 .421-.039.961-.039 1.661v10.223c0 .76.058 1.52.058 2.26 0 .5-.2.54-.9.54s-.88-.04-.88-.54zm-.5-8.623a.53.53 0 0 0 .541-.559v-3.7a.557.557 0 0 0 -.541-.56h-6.642a.559.559 0 0 0 -.562.56v3.7a.559.559 0 0 0 .562.559zm-7.2 6.123a.559.559 0 0 0 .562.56h6.64a.531.531 0 0 0 .541-.56v-4.062a.557.557 0 0 0 -.541-.56h-6.644a.559.559 0 0 0 -.562.56z"/><path d="m212.241 1.261c0 .1-.079.16-.139.22-.38.24-.42.4-.7 1.42l-.302 1.099a.69.69 0 0 0 -.04.22.247.247 0 0 0 .259.24 5.484 5.484 0 0 0 .741-.18 11.221 11.221 0 0 0 1.76-.58 1.685 1.685 0 0 1 .54-.16c.34 0 .321.8.321 1.04 0 .4-.021.641-.261.741a26.218 26.218 0 0 1 -3.28.8c-.681.141-.74.16-.941.781a62.743 62.743 0 0 1 -3.76 8.942c-.241.46-.38.781-.68.781s-1.341-.521-1.341-.9c0-.16.22-.44.32-.58a43.611 43.611 0 0 0 3.781-8.182.739.739 0 0 0 .04-.181.278.278 0 0 0 -.3-.279c-.22 0-1.3.1-2.04.1-.46 0-.681 0-.8-.2a3.968 3.968 0 0 1 -.18-1.2c0-.219.06-.339.3-.339.141 0 .941.1 1.78.1.46 0 .9-.019 1.341-.059a.6.6 0 0 0 .48-.181 15.53 15.53 0 0 0 .86-3.783c.021-.22 0-.481.221-.481.019 0 2.019.46 2.019.8m-.759 12.723a4.881 4.881 0 0 0 3.661 1.12 8.619 8.619 0 0 0 2.761-.38.488.488 0 0 1 .159-.02c.341 0 .341.52.341 1.04 0 .341.019.7-.221.8a15.09 15.09 0 0 1 -2.92.24 8.527 8.527 0 0 1 -4.182-.82c-.279-.181-.96-.681-.96-1.061 0-.28.721-1.2 1-1.2.12 0 .281.18.361.28m2.519-6.66a12.26 12.26 0 0 1 3.821.54.335.335 0 0 1 .24.36 4.567 4.567 0 0 1 -.24 1.04c-.08.181-.16.28-.36.28a1.394 1.394 0 0 1 -.38-.12 8.732 8.732 0 0 0 -3.041-.46c-.26 0-.52.021-.78.021-.4 0-.46-.141-.46-.461 0-1.281.24-1.2 1.2-1.2m3.881-3.34c0 .279-.62.779-.88.779-.12 0-.2-.119-.28-.22a20.059 20.059 0 0 0 -1.361-1.58.442.442 0 0 1 -.16-.28c0-.2.641-.7.84-.7a8.306 8.306 0 0 1 1.841 2m2-1.181c0 .26-.62.78-.859.78-.141 0-.221-.12-.3-.22a16.6 16.6 0 0 0 -1.361-1.581c-.059-.059-.159-.16-.159-.259 0-.22.64-.721.84-.721a7.982 7.982 0 0 1 1.84 2"/><path d="m230.862 2.681c.279.08.6.139.6.36 0 .14-.1.18-.18.24-.3.14-.42.24-.6.7a18.056 18.056 0 0 0 -1.041 5.741 10.482 10.482 0 0 0 .481 3.181c.04.06.08.14.18.14.139 0 .42-.9.52-1.1.239-.661.36-1.1.6-1.1.16 0 .62.239.62.439a17.2 17.2 0 0 0 -.74 3.7v.56c0 .461-.281.6-.661.76a1.669 1.669 0 0 1 -.62.161c-.28 0-.4-.2-.58-.521a13.294 13.294 0 0 1 -1.4-6.2 24.3 24.3 0 0 1 1.04-6.561 2.383 2.383 0 0 0 .12-.52c.04-.16.08-.4.28-.4.141 0 1.16.36 1.381.42m6.841-.84c.24 0 .521.06.761.08.58.02 1.24.06 1.24.3s-.28.24-.28.96c0 .32.08 1.64.12 2 .019.3.12.58.479.58.1 0 1.421-.28 1.641-.32a1.123 1.123 0 0 1 .26-.04c.36 0 .4.919.4 1.2 0 .52-.28.48-1.88.679-.421.061-.78.141-.78.661 0 .62.04 1.26.04 1.9a9.715 9.715 0 0 1 -2.681 6.982c-.18.2-.52.581-.8.581-.3 0-1.161-.74-1.161-1.061 0-.14.061-.18.161-.259a8.124 8.124 0 0 0 1.74-2.041 7.965 7.965 0 0 0 1.1-4.521c0-1.281.04-1.821-.52-1.821-.18 0-2.74.42-3.12.48a3.512 3.512 0 0 1 -.641.08c-.46 0-.5-.68-.5-1.04 0-.66.12-.62 1.04-.68.721-.06 2.4-.24 3.041-.341a.542.542 0 0 0 .5-.54c0-.12-.16-1.5-.18-1.74a14.42 14.42 0 0 0 -.28-1.62c0-.061-.019-.16-.019-.22 0-.18.179-.24.319-.24"/><path d="m250.421 3.921c2.92-.16 5.821-.48 8.722-.82 1.42-.18 3.2-.36 4.581-.6a1.162 1.162 0 0 1 .259-.04c.26 0 .3.22.34.42a6.5 6.5 0 0 1 .12 1.08c0 .441-.28.441-.78.441a11.4 11.4 0 0 0 -3.4.4 6.15 6.15 0 0 0 -3.541 3.022 7.975 7.975 0 0 0 -1.1 3.86 2.9 2.9 0 0 0 1.58 2.781 6.017 6.017 0 0 0 2.3.341c.26 0 .54-.021.779-.021s.461 0 .461.28a4.085 4.085 0 0 1 -.28 1.3c-.12.261-.24.3-.54.3-3.221 0-6.081-1.141-6.081-4.842a9.16 9.16 0 0 1 2.52-6.181c.28-.28.38-.36.38-.46 0-.141-.16-.181-.26-.181-.3 0-2.68.34-3.161.4-1.04.16-2.08.32-3.1.58a1.692 1.692 0 0 1 -.3.059c-.44 0-.58-1.559-.58-1.679 0-.441.26-.4 1.08-.441m12.48 3.262c.14.16.781.86.781 1.08 0 .28-.641.761-.9.761-.12 0-.2-.12-.259-.221-.4-.559-.861-1.1-1.321-1.64-.04-.06-.16-.18-.16-.26 0-.241.66-.68.86-.68s.621.52 1 .96m3.1.04c0 .26-.64.76-.9.76-.121 0-.2-.14-.281-.239a17.079 17.079 0 0 0 -1.3-1.622c-.06-.08-.161-.179-.161-.279 0-.221.661-.681.88-.681a8.278 8.278 0 0 1 1.761 2.061"/><path d="m275.163 4.3c.139.04.379.1.379.281 0 .12-.08.2-.2.28-.24.2-.26.479-.32.84a12.661 12.661 0 0 0 -.14 1.94 12.314 12.314 0 0 0 .7 4.522c.281.66 1.041 1.94 1.84 1.94.58 0 1.241-.94 1.5-1.4.1-.181.26-.5.5-.5.34 0 1.12.66 1.12.96 0 .38-1.12 1.62-1.42 1.94a2.233 2.233 0 0 1 -1.68.88 3.642 3.642 0 0 1 -2.8-1.92c-1.28-1.94-1.48-4.621-1.48-6.9 0-.641.06-2.3.1-2.961 0-.181.08-.281.26-.281a13.773 13.773 0 0 1 1.641.38m8.481-.28a6.262 6.262 0 0 1 2.581 2.361 10.582 10.582 0 0 1 1.44 4 3.25 3.25 0 0 1 .06.62.4.4 0 0 1 -.3.46 3.03 3.03 0 0 1 -.961.181c-.58 0-.559-.261-.6-.641a7.665 7.665 0 0 0 -2.981-5.7.35.35 0 0 1 -.16-.3 1.381 1.381 0 0 1 .92-.98"/><path d="m298.143 4.3c.138.04.379.1.379.281 0 .12-.081.2-.2.28-.24.2-.261.479-.319.84a12.417 12.417 0 0 0 -.141 1.94 12.355 12.355 0 0 0 .7 4.522c.281.66 1.042 1.94 1.841 1.94.581 0 1.241-.94 1.5-1.4.1-.181.261-.5.5-.5.34 0 1.12.66 1.12.96 0 .38-1.12 1.62-1.419 1.94a2.235 2.235 0 0 1 -1.68.88 3.645 3.645 0 0 1 -2.8-1.92c-1.279-1.94-1.478-4.621-1.478-6.9 0-.641.059-2.3.1-2.961 0-.181.08-.281.259-.281a13.743 13.743 0 0 1 1.642.38m8.481-.28a6.267 6.267 0 0 1 2.58 2.361 10.583 10.583 0 0 1 1.441 4 3.167 3.167 0 0 1 .059.62.4.4 0 0 1 -.3.46 3.035 3.035 0 0 1 -.96.181c-.58 0-.561-.261-.6-.641a7.662 7.662 0 0 0 -2.982-5.7.352.352 0 0 1 -.16-.3 1.384 1.384 0 0 1 .921-.98"/><path d="m323.222 14.644a2.74 2.74 0 1 1 -2.74-2.741 2.744 2.744 0 0 1 2.74 2.741m-4.58 0a1.84 1.84 0 1 0 1.84-1.841 1.835 1.835 0 0 0 -1.84 1.841"/></g></svg>