<svg height="29.792" viewBox="0 0 160 29.792" width="160" xmlns="http://www.w3.org/2000/svg" xmlns:xlink="http://www.w3.org/1999/xlink"><clipPath id="a"><path d="m0 0h160v29.792h-160z"/></clipPath><g clip-path="url(#a)" fill="#201513"><path d="m15.166 28.672c-8.566 0-11.606-3.928-11.606-12.887 0-3.706 0-8.385-.046-9.886-.131-4.371-.838-4.545-3.266-4.81-.308-.046-.348-.489 0-.489 1.369.047 3.486.135 4.724.135.662 0 2.913-.088 4.328-.135.351 0 .308.439 0 .485-1.9.265-2.428.528-2.562 4.81-.043 1.324 0 5.869 0 9.666 0 7.1 1.281 11.872 8.608 11.872 7.019 0 8.693-5.957 8.693-12.357 0-1.9.046-6.357-.088-10.5-.088-2.959-.793-3.31-2.648-3.486a.243.243 0 1 1 -.003-.49c1.235.043 3.047.131 3.8.131s2.423-.084 3.527-.131a.243.243 0 1 1 0 .485c-1.632.177-2.205.97-2.294 3.486-.088 3.352-.134 7.766-.134 10.24 0 8.474-3.09 13.857-11.033 13.857" transform="translate(.001 1.12)"/><path d="m22.894 3.9c3.4 0 5.695 1.766 5.695 6.223 0 3.047 0 6.71.086 8.87.088 1.943.884 2.208 2.3 2.428a.243.243 0 1 1 0 .485c-1.546 0-2.428-.131-3.532-.131-.793 0-2.294.088-3.133.131-.308 0-.265-.439 0-.485 1.058-.131 1.369-.882 1.412-2.382.088-2.251.088-6.091-.043-8.782-.134-2.562-1.1-4.591-4.151-4.591a7.055 7.055 0 0 0 -4.46 1.764c-.131 3.883-.131 8.428.046 11.387.131 2.205.616 2.337 2.294 2.6a.243.243 0 1 1 0 .485c-1.458 0-2.782-.131-3.752-.131-.7 0-2.471.131-3.178.131-.308 0-.265-.439 0-.485.973-.22 1.5-.4 1.678-2.6.177-2.163.134-8.431.046-9.8-.134-2.425-.619-3.31-1.943-3.31h-.531a.244.244 0 1 1 -.043-.485c2.825-.573 3.486-1.058 4.679-1.058.573 0 .7.308.7 1.324v1.235a7.735 7.735 0 0 1 5.83-2.823" transform="translate(21.226 7.224)"/><path d="m31.181 13.244a71.507 71.507 0 0 0 7.458-.043c1.281-.088 1.324-.665 1.635-.531.22.088-.088 1.1-.223 1.809-.177 1.1-.308 2.074-.308 2.074-.043.265-.531.308-.485 0 0-1.766-1.147-1.766-2.959-1.854-.793-.043-3.706-.043-5.118 0 0 3.444.043 7.061.131 9.27.134 3.09 1.1 3.444 3.09 3.575a.243.243 0 1 1 0 .485c-1.5-.043-3.4-.131-4.765-.131-1.281 0-3.047.088-4.371.131-.308 0-.308-.439 0-.485 2.031-.22 2.693-.662 2.782-3.883.043-1.5.088-7.019.088-8.519 0-3.441-.046-7.678-.088-9.178-.088-3.621-.177-4.5-3-4.856a.243.243 0 1 1 0-.485c1.412 0 3.84.131 4.545.131 4.282 0 6.091 0 9.843-.131 2.117-.088 2.163-.134 1.9 2.294-.131 1.193-.265 2.471-.4 3.355-.046.354-.573.265-.531 0-.043-1.5.131-3.752-2.956-4.06a52.182 52.182 0 0 0 -6.18-.177c-.046 1.72-.134 8.031-.088 11.21" transform="translate(45.951 1.099)"/><path d="m35.066 16.374c.046-5.03-.043-9.4-.177-11.518-.131-2.428-.616-3.312-1.94-3.312h-.531c-.308.046-.308-.439-.046-.485 2.828-.574 3.487-1.059 4.679-1.059.573 0 .708.308.708 1.324.043 3.178 0 8.608 0 15.05 0 3.4 0 6.488.131 9.666.088 2.117.573 2.34 2.251 2.6.308 0 .4.488 0 .488-1.455 0-2.782-.134-3.752-.134-.7 0-2.825.134-3.529.134-.354 0-.311-.442 0-.488 1.324-.22 1.9-.4 2.074-2.6.131-2.12.131-5.076.131-9.666" transform="translate(59.633 .001)"/><path d="m44.728 3.836c3.486 0 5.957 3.267 5.914 6.622 0 .177-.134.793-.619.793-1.324-.043-3.532-.043-5.561-.043-1.9 0-3.84 0-4.591.043a13.225 13.225 0 0 0 -.088 1.766c0 4.987 2.251 7.723 6.046 7.723a6.27 6.27 0 0 0 4.725-1.94c.177-.177.485 0 .308.308a7.23 7.23 0 0 1 -6.223 3.4c-4.767 0-7.812-3.221-7.812-9.093 0-4.414 2.514-9.578 7.9-9.578m-4.767 6.445c.839.043 2.779.043 3.929.043 1.367 0 2.956-.043 3.795-.043.177-1.589-.22-5.518-3.4-5.518-2.825 0-3.971 2.6-4.325 5.518" transform="translate(68.245 7.109)"/><path d="m55.447 5.582a6.458 6.458 0 0 0 -.839.043c-.308.088-.4-.4-.043-.485 2.163-.439 3.795-1.1 4.676-1.147.927-.043.973.308 1.016 1.281 0 2.825-.088 6.488-.043 10.371.043 4.9.528 5.164 2.825 5.164.265 0 .308.485 0 .485a29.653 29.653 0 0 0 -3.752.573c-1.5.265-1.723 0-1.854-2.736a8.489 8.489 0 0 1 -6.268 2.825c-2.56 0-5.165-1.366-5.165-6.091 0-4.06.043-5.561 0-6.973-.134-2.428-.665-3.267-1.989-3.267a6.059 6.059 0 0 0 -.839.046c-.308.088-.4-.4-.043-.485 2.163-.442 3.795-1.1 4.679-1.147.927-.046.97.308 1.016 1.324 0 3.529-.134 6.973 0 10.679.043 1.678.75 4.06 3.971 4.06a6.916 6.916 0 0 0 4.633-1.763c0-1.061.131-6.357 0-9.489-.088-2.428-.662-3.267-1.986-3.267" transform="translate(79.503 7.394)"/><path d="m57.129 8.52a6.635 6.635 0 0 1 5.957-4.591c1.589 0 2.074.573 1.812 2.3-.088.573-.177 1.324-.311 1.94-.088.223-.485.223-.485-.043.046-1.635-1.147-2.074-2.471-2.031a4.814 4.814 0 0 0 -3.486 1.766 5.094 5.094 0 0 0 -1.016 3.532c-.046 1.278-.088 4.5.088 7.458.131 1.986.442 2.294 3.133 2.516a.243.243 0 1 1 0 .485c-2.029 0-3.706-.134-4.633-.134-.75 0-2.031.134-3.133.134a.243.243 0 1 1 0-.485c1.058-.177 1.544-.662 1.675-2.516.177-2.163.134-8.519.046-9.886-.131-2.428-.619-3.31-1.943-3.31a5.529 5.529 0 0 0 -.839.043c-.308.043-.308-.442-.043-.485 2.34-.485 3.795-1.058 4.722-1.1s.927.308.97 1.324c0 1.324 0 1.72-.043 3.09" transform="translate(95.036 7.282)"/></g></svg>