<svg height="92.032" viewBox="0 0 536.722 92.032" width="536.722" xmlns="http://www.w3.org/2000/svg" xmlns:xlink="http://www.w3.org/1999/xlink"><clipPath id="a"><path d="m0 0h536.722v92.032h-536.722z"/></clipPath><g clip-path="url(#a)" fill="#333"><path d="m352.1 26.956a6.38 6.38 0 0 0 -4.053 1.858 2.737 2.737 0 0 1 -.813.6c-1.978.885-3.409 2.465-5.014 3.835a35.682 35.682 0 0 0 -4.93 5.1 3.481 3.481 0 0 1 -2.709 1.136c-.732.063-1.464-1.1-1.2-1.908a5.123 5.123 0 0 1 .9-1.5 19.8 19.8 0 0 0 2.559-3.752 3.006 3.006 0 0 0 -.093-3.13c-2.7-.031-4.716 1.507-6.765 2.956-.759.536-1.426 1.2-2.2 1.722a24.07 24.07 0 0 0 -6.295 6.212c-.487.694-1.037 1.347-1.495 2.059a3.651 3.651 0 0 1 -2.106 1.3 1.528 1.528 0 0 1 -1.906-.8 1.282 1.282 0 0 1 .151-1.631c.378-.452.767-.9 1.154-1.34s.775-.885 1.236-1.41c-.778-.575-1.518-1.074-2.2-1.643a3.323 3.323 0 0 1 -.951-1.127 6.408 6.408 0 0 1 1.511-7 6.285 6.285 0 0 1 6.631-1.291 2.946 2.946 0 0 1 1.839 1.963c.281.772.567 1.542.922 2.507 3.22-2.559 6.383-4.8 10.518-5.065 2.826 1.577 2.84 1.6 3.412 4.319a6.325 6.325 0 0 0 1.334-.6c2.681-2.075 5.477-3.975 8.328-5.809a7.958 7.958 0 0 1 3.053-1.146 1.883 1.883 0 0 1 2.408 1.656 4.842 4.842 0 0 1 -.053 1.994c-.337 1.479-.824 2.923-1.173 4.4a6.6 6.6 0 0 0 -.151 2 2.6 2.6 0 0 0 2.321 2.619 14.091 14.091 0 0 0 7.655-.533c1.927-.627 3.918-1.051 5.873-1.593.557-.154 1.088-.4 1.679-.63a32.851 32.851 0 0 1 .248-3.311c.566-3.236 2.72-5.384 5.229-7.216.678-.495 1.308-1.03 1.961-1.539a11.742 11.742 0 0 1 6.621-2.95c2.543-.13 4.368 1.825 4.318 4.546a2.789 2.789 0 0 1 -.443 1.153 8.763 8.763 0 0 1 -3.5 3.584c-1.318.741-2.556 1.63-3.8 2.5a33.572 33.572 0 0 1 -5 2.424c-.59.277-1.178.556-1.964.927a7.47 7.47 0 0 0 1.238 1.439 10.78 10.78 0 0 0 4.965 1.687 34.7 34.7 0 0 0 5.088.05 49.289 49.289 0 0 0 5.789-.65 22.275 22.275 0 0 1 3.012-.325 26.331 26.331 0 0 0 3.236-.56q5.5-.931 11.008-1.834a13.5 13.5 0 0 1 1.522-.038c1.186-.057 2.378-.072 3.557-.2 2.271-.256 4.533-.6 6.8-.871 2.012-.242 4.019-.471 6.006-.912 1.313-.292 2.7-.244 4.027-.48 2-.356 3.978-.833 5.968-1.249 3.24-.678 6.553-.761 9.826-1.169a6.386 6.386 0 0 0 1.251-.126 44 44 0 0 1 9.726-1.7c1.514-.164 3.024-.392 4.525-.654 1.916-.333 3.82-.731 5.73-1.1.333-.064.665-.14 1-.18 2.432-.3 4.871-.54 7.3-.888 1.673-.24 3.318-.674 4.99-.926 3.342-.5 6.664-1.1 10.031-1.486 3.513-.4 7.112-.493 10.487-1.787a2.839 2.839 0 0 1 1-.154 42.631 42.631 0 0 0 7.043-.948c2.42-.4 4.856-.694 7.29-1 1.851-.233 3.71-.406 5.564-.616a66.974 66.974 0 0 0 11.743-2.013 2.812 2.812 0 0 1 1-.063.9.9 0 0 1 .76 1.291c-.258.6-.559 1.175-.879 1.84a25.708 25.708 0 0 0 -3.239-.121c-2.947.244-5.886.6-8.829.9-.675.068-1.355.089-2.033.125a134.61 134.61 0 0 0 -14.9 1.813c-3.345.555-6.686 1.13-10.038 1.643-1.84.282-3.7.462-5.547.674-7.077.809-14.092 2.032-21.118 3.185-4.854.8-9.721 1.518-14.582 2.273l-12.564 1.948c-4.6.715-9.2 1.418-13.8 2.146-4.018.636-8.021 1.377-12.05 1.928-3.7.505-7.422.786-11.128 1.227-2.267.27-4.521.659-6.781.988s-4.531.64-6.792.99c-.665.1-1.311.322-1.97.471a15.684 15.684 0 0 1 -4.275.5c-1.768-.09-3.549.094-5.325.148a12.209 12.209 0 0 1 -6.252-1.9 7.7 7.7 0 0 1 -1.6-1.6 1.684 1.684 0 0 0 -1.851-.523c-2.715.917-5.463 1.758-8.115 2.835a13.294 13.294 0 0 1 -8.9.42 5.836 5.836 0 0 1 -3.282-4.454 8.669 8.669 0 0 1 1.308-5.58c.106-.152.014-.442.014-.859m22.939 4.751c1.3-.509 2.575-.333 3.564-1.315a3.091 3.091 0 0 1 1.259-.81 16.058 16.058 0 0 0 4.316-2.5 9.192 9.192 0 0 0 3.015-3.953c.716-1.474-.088-2.484-1.743-2.355a2.164 2.164 0 0 0 -.743.129 25.629 25.629 0 0 0 -3.819 1.929 21.1 21.1 0 0 0 -4.821 4.792 5.184 5.184 0 0 0 -1.028 4.084m-55.633 5.691a9.748 9.748 0 0 0 3.042-3.418 5.061 5.061 0 0 0 .71-3.173c-.07-.618-.25-1.157-.923-1.355-4.052 1.137-4.736 2.122-4.541 6.635z"/><path d="m120.844 24.041 2.152.437a4.472 4.472 0 0 1 -.417 3.615c-1.2 2.317-2.082 4.8-3.081 7.216-.386.934-.725 1.888-1.094 2.83-.939 2.4-.858 4.986-1.337 7.469a10.552 10.552 0 0 0 0 4 10.236 10.236 0 0 0 3.852 6.581 12.413 12.413 0 0 0 6.818 2.351c.587.06 1.188-.03 1.782-.011a10.426 10.426 0 0 0 5.818-1.272c1.957-1.14 4.088-1.946 6.056-3.12a40.618 40.618 0 0 0 8.416-6.78c.646-.67 1.34-1.242 2.006-1.866a28.919 28.919 0 0 0 2.6-3.116q1.271-1.584 2.509-3.193a16.041 16.041 0 0 0 1.006-1.452 23.019 23.019 0 0 1 1.4-2.4 41.694 41.694 0 0 0 3.415-5.307 23.714 23.714 0 0 0 2.124-4.287 25.091 25.091 0 0 0 .802-4.736 5.074 5.074 0 0 0 -1.406-3.554 1.462 1.462 0 0 1 1.36-1.167 1.979 1.979 0 0 1 1.777.8 3.4 3.4 0 0 1 .658 1.615 17.251 17.251 0 0 1 -.545 6.54 7.544 7.544 0 0 1 -.727 1.322c-.737 1.328-1.516 2.635-2.2 3.992a20.445 20.445 0 0 1 -2.188 3.652 54.6 54.6 0 0 0 -3.119 4.892c-.542.858-1.1 1.7-1.665 2.549a43.65 43.65 0 0 1 -6.87 7.444 18.415 18.415 0 0 0 -1.831 1.752 24.266 24.266 0 0 1 -7.108 5.659c-2.049 1.171-4.22 2.131-6.352 3.153a5.734 5.734 0 0 1 -1.459.424 33.292 33.292 0 0 1 -5.262.837 12.611 12.611 0 0 1 -7.506-1.893c-.7-.478-1.415-.938-2.116-1.416a10.5 10.5 0 0 1 -4.408-7.712 23.642 23.642 0 0 1 .978-10.742 9.683 9.683 0 0 0 .46-1.7 10.354 10.354 0 0 1 1.2-3.592 9.845 9.845 0 0 0 .484-1.343c-.495.162-.754.172-.9.305-2.593 2.419-5.141 4.888-7.766 7.272-1.87 1.7-3.989 3.14-5.726 4.956a76.081 76.081 0 0 1 -6.165 5.255c-3.1 2.622-6.347 5.07-9.58 7.529-2.965 2.256-5.942 4.5-9.005 6.621-4.456 3.081-8.821 6.3-13.565 8.955-3.252 1.819-6.384 3.852-9.638 5.668-3.921 2.188-7.863 4.348-11.889 6.332a91.757 91.757 0 0 1 -11.44 4.825 41.95 41.95 0 0 1 -6.688 1.406 40.815 40.815 0 0 1 -6.324.392 16.764 16.764 0 0 1 -7.34-1.841 16.12 16.12 0 0 1 -6.09-4.493c-1.522-1.988-3.168-3.976-3.669-6.568a3.833 3.833 0 0 0 -.348-.944 20.023 20.023 0 0 1 -1.61-7.39 38.979 38.979 0 0 1 -.018-4.834c.053-1.262.246-2.521.406-3.777a37.847 37.847 0 0 1 .56-3.749 16.425 16.425 0 0 1 1.228-3.832 16.109 16.109 0 0 0 1.3-3.562 12.641 12.641 0 0 1 1.651-4.217 5.173 5.173 0 0 0 .519-1.153 41.609 41.609 0 0 1 3.286-6.491 18.26 18.26 0 0 0 2.016-4.487 12.2 12.2 0 0 1 1.387-2.6c1.962-.083 2.859 1.073 3.677 2.358-.19.195-.326.417-.4.4a3.4 3.4 0 0 0 -3.623 1.182 4.728 4.728 0 0 0 -.8 1.227c-.2.453-.255.973-.436 1.439-.332.859-1.394 1.279-1.448 2.3-.049.937-.872 1.427-1.194 2.186a38.51 38.51 0 0 0 -2.247 5.056 11.3 11.3 0 0 1 -.844 2.391c-1.973 3.744-2.4 7.9-3.3 11.936a25.688 25.688 0 0 0 .326 11.784c.117.489.073 1.015.176 1.508a9.531 9.531 0 0 0 1.495 4.276 5.193 5.193 0 0 1 .785 1.584 5.951 5.951 0 0 0 2.2 3.044c.27.194.617.4.72.684.52 1.418 1.837 1.92 2.944 2.659a11.821 11.821 0 0 0 4.623 1.996c1.667.272 3.362.4 5.05.512a15.81 15.81 0 0 0 5.748-.724 34.4 34.4 0 0 1 4.712-.88 17.128 17.128 0 0 0 5.006-1.624c1.648-.823 3.4-1.435 5.071-2.268 2.786-1.394 5.643-2.644 8.365-4.172 1.472-.826 2.987-1.578 4.46-2.406 1.69-.951 3.337-1.98 5.035-2.915 1.013-.557 2.305-.781 3.078-1.551a13.587 13.587 0 0 1 2.612-1.947c3.318-2.029 6.64-4.053 9.918-6.144 1.345-.86 2.583-1.881 3.873-2.837a6.691 6.691 0 0 1 .6-.477c4.628-2.664 8.482-6.4 12.916-9.34a45.131 45.131 0 0 0 4.416-3.769q4.509-3.922 9.013-7.851c1.082-.943 2.183-1.866 3.233-2.845 1.48-1.38 2.877-2.852 4.389-4.195a74.324 74.324 0 0 0 6.514-6.709 6.779 6.779 0 0 0 1.041-1.713 22.768 22.768 0 0 0 .731-2.2"/><path d="m206.427 64.3 1.552 1.21a2.4 2.4 0 0 1 -2.242 1.851 2.216 2.216 0 0 1 -1.991-.925 3.259 3.259 0 0 1 -.3-2.918c.05-.229.287-.411.4-.634a62.906 62.906 0 0 1 5.154-8.595c.437-.61.713-1.332 1.123-1.964 3.408-5.251 6.846-10.483 10.241-15.743 1.422-2.2 2.785-4.442 4.133-6.69 3-5.006 6.007-10.012 8.953-15.05 1.662-2.842 3.142-5.79 4.839-8.609.869-1.446 1.6-2.942 2.335-4.45a5.051 5.051 0 0 1 1-1.443 1.44 1.44 0 0 1 1.116-.323 1.192 1.192 0 0 1 .922 1.327 10.9 10.9 0 0 1 -.866 2.09c-1.584 2.788-3.158 5.585-4.846 8.31-.788 1.272-1.849 2.371-2.742 3.581a10.108 10.108 0 0 0 -1.17 1.933 44.894 44.894 0 0 1 -5.205 8.936c-.65.875-1.038 1.94-1.622 2.87q-4.65 7.412-9.34 14.8c-1.9 1.759-2.505 4.406-4.293 6.235-.847.866-1.054 2.067-1.725 3.058-2.171 3.21-4.275 6.5-5.348 10.293a5.1 5.1 0 0 0 -.078.851"/><path d="m195.17 32.774c-.8 1-1.281 1.588-1.752 2.18a15.054 15.054 0 0 1 -6.837 4.645c-2.087.762-2.692.62-4.924-.082-.489.339-.221.757-.063 1.113a11.346 11.346 0 0 0 .656 1.08 4.317 4.317 0 0 0 4.806 2.364 21.6 21.6 0 0 1 2.774-.317 3.84 3.84 0 0 0 2.617-.68c.684-.542 1.571-.411 2.651-.149-.371.454-.557.917-.865 1.021-2.882.977-5.782 2.15-8.859 1.981-2.7-.148-5.109-1.222-6.375-3.909-.389-.824-1.077-1.5-1.045-2.539a9.247 9.247 0 0 1 .252-2.242c.333-1.212.572-2.465.826-3.7a7.965 7.965 0 0 1 3.836-5.41 3.382 3.382 0 0 1 2.188-.272 3.225 3.225 0 0 0 2.181-.334 14.33 14.33 0 0 1 1.923-.633 5.1 5.1 0 0 1 4.739 1.16 3.769 3.769 0 0 1 1.249 2.7 12.516 12.516 0 0 1 .022 2.024m-2.684-2.962a4.38 4.38 0 0 0 -4.929.284c-.61.454-1.238.891-1.806 1.394a10.243 10.243 0 0 0 -3.136 3.59 1.5 1.5 0 0 0 .764 2.125 2.453 2.453 0 0 0 1.694.293c1.612-.227 2.682-1.336 3.955-2.156a7.2 7.2 0 0 0 3.458-5.53"/><path d="m287.717 45.636a7.41 7.41 0 0 1 -4.562-1.443 1.186 1.186 0 0 1 -.51-.549c-.49-1.58-1.416-3.113-.936-4.842a21.016 21.016 0 0 1 5.912-9.852 6.908 6.908 0 0 1 2.419-1.337 3.647 3.647 0 0 1 1.7.133 2.336 2.336 0 0 1 1.176.428c1.381 1.359 3.364 1.446 4.937 2.474 2.951 1.928 2.578 4.042 1.382 6.559a10.583 10.583 0 0 1 -3.305 3.793c-1.278.965-2.553 1.944-3.9 2.805a21.722 21.722 0 0 1 -3.158 1.594 3.581 3.581 0 0 1 -1.154.239m5.03-14.481a3.466 3.466 0 0 1 -3.291 1.124 1.7 1.7 0 0 0 -1.794.714c-1.213 1.924-2.518 3.841-2.847 6.146-.235 1.645-.007 3.235 1.858 3.971a14.5 14.5 0 0 0 5.806-2.192 13.175 13.175 0 0 0 4.7-4.858c1.044-1.8.733-2.915-.933-4.136a2.907 2.907 0 0 0 -1.143-.423c-.729-.143-1.472-.22-2.359-.346"/><path d="m257.006 39.561a3.781 3.781 0 0 0 3.986 2.657 13.651 13.651 0 0 0 2.282-.095 59.062 59.062 0 0 1 6.983-1.043 9.829 9.829 0 0 0 1.947-.528 14.97 14.97 0 0 1 1.469-.345c.4-.065.823-.052 1.649-.094-.47.452-.627.725-.851.8q-3.353 1.132-6.723 2.207a19.44 19.44 0 0 1 -8.514 1.069c-2.932-.391-4.473-1.74-5.04-3.962a3.9 3.9 0 0 1 .727-3.766 21.946 21.946 0 0 1 8.937-6.016c.548-.223 1.04-.493 1.557-.755 1.195-.607 2.436-1.126 3.68-1.628a6.168 6.168 0 0 1 1.483-.336 2.667 2.667 0 0 1 3.027 3.078.677.677 0 0 1 -.983.428c-.521-.385-.828-1.224-1.629-1.015-1.313.343-2.669-.224-3.992.421a31.057 31.057 0 0 0 -7.988 5.259 6.662 6.662 0 0 0 -1.154 1.647 21.732 21.732 0 0 0 -.853 2.016"/></g></svg>