<svg height="93" viewBox="0 0 446 93" width="446" xmlns="http://www.w3.org/2000/svg" xmlns:xlink="http://www.w3.org/1999/xlink"><clipPath id="a"><path d="m0 0h446v93h-446z"/></clipPath><g clip-path="url(#a)" fill="#262727"><path d="m17.936 15a.3.3 0 0 0 -.28.238c-2.4 7.978-6.511 13.97-13.5 18.614a4.96 4.96 0 0 1 -2.037 1.032c-.8 0-2.078-1.547-2.078-2.3 0-.4.4-.6.919-.912a30.48 30.48 0 0 0 9.347-8.415 33.733 33.733 0 0 0 5.871-19.367c0-.873-.04-1.747-.04-2.62s.2-1.15.839-1.15a23.652 23.652 0 0 1 2.8.356c.439.079.918.119.918.517 0 .356-.478.515-.758.674a.617.617 0 0 0 -.36.6c-.04.992-.08 1.945-.08 2.937 0 .277.04.635.04.913a34.1 34.1 0 0 0 2.236 10.12 32.34 32.34 0 0 0 13.06 15.713c.32.2.8.477.8.834 0 .794-1.239 2.263-2 2.263a1.6 1.6 0 0 1 -.718-.278 31.572 31.572 0 0 1 -6.672-5.478 34.411 34.411 0 0 1 -8.029-14.049.3.3 0 0 0 -.28-.238" transform="translate(0 -.001)"/><path d="m61.02 8.175c.8 0 1.119-.317 1.119-1.11v-3.176a22.866 22.866 0 0 0 -.16-2.936c0-.119-.04-.239-.04-.358 0-.475.32-.594.719-.594.6 0 1.957.2 2.636.238.559.04 1.358.04 1.358.556 0 .278-.2.357-.559.594-.439.318-.479.913-.479 2.1v3.576c0 .794.32 1.11 1.079 1.11h7.39c1.6 0 3.2-.079 4.793-.079.919 0 .919.4.919 1.667 0 1.231-.04 1.666-.919 1.666-1.6 0-3.2-.118-4.793-.118h-7.39c-.759 0-1.079.317-1.079 1.11v5.16c0 .753.32 1.072 1.079 1.072h5.712c1.558 0 3.116-.079 4.674-.079.919 0 .919.436.919 1.666 0 1.191 0 1.628-.919 1.628-1.557 0-3.115-.119-4.674-.119h-5.712c-.759 0-1.079.318-1.079 1.111v6.866c0 .754.32 1.072 1.079 1.072h8.869c1.637 0 3.235-.079 4.832-.079.959 0 .959.436.959 1.666 0 1.191 0 1.667-.918 1.667-1.638 0-3.236-.119-4.873-.119h-23.69c-1.6 0-3.2.119-4.833.119-.878 0-.918-.4-.918-1.667s.04-1.666.918-1.666c1.638 0 3.236.079 4.833.079h9.148c.8 0 1.119-.318 1.119-1.072v-6.866c0-.794-.32-1.111-1.119-1.111h-5.592c-1.518 0-3.076.119-4.634.119-.959 0-.959-.516-.959-1.628 0-1.151 0-1.666.959-1.666 1.557 0 3.115.079 4.634.079h5.592c.8 0 1.119-.319 1.119-1.072v-5.16c0-.794-.32-1.11-1.119-1.11h-6.551a1.431 1.431 0 0 0 -1.518.913c-.559 1.11-3.475 6.549-4.634 6.549-.639 0-2.317-.794-2.317-1.548 0-.318.4-.754.6-.992a33.958 33.958 0 0 0 6.551-14.248c.08-.279.2-.636.559-.636a16.066 16.066 0 0 1 1.678.357c1.4.358 2.037.476 2.037.953 0 .357-.4.516-.638.635-.639.318-.759.715-1.079 1.866-.16.515-.32 1.151-.639 2.023a.929.929 0 0 0 -.08.318c0 .635.639.675.8.675z" transform="translate(-.054)"/><path d="m101.83 4.705c.24.119.679.318.679.635 0 .238-.12.318-.32.4-.839.4-1.039.634-1.558 1.985a40.1 40.1 0 0 0 -2.077 12.263c0 .794.16 5.676 1.039 5.676.319 0 .6-.6 1.078-1.786.2-.476.639-1.945 1.119-1.945.4 0 1.279.516 1.279.953a4.165 4.165 0 0 1 -.2.754c-.439 1.707-1.638 4.564-1.638 6.231 0 .556.04 1.11.04 1.628 0 .873-.519 1.15-1.238 1.468a4.449 4.449 0 0 1 -1.239.358c-.559 0-.919-.794-1.119-1.232a28.239 28.239 0 0 1 -2.357-12.026 47.27 47.27 0 0 1 1.882-12.743c.32-1.11.679-2.222.959-3.333.04-.277.16-.635.479-.635a25.47 25.47 0 0 1 3.2 1.35m15.938-1.151c.2.08.36.16.36.4s-.2.437-.36.635a6.158 6.158 0 0 0 -.438 2.977v.912c0 .873.08 1.469.838 1.469a31.172 31.172 0 0 0 4.224-1.036 1.5 1.5 0 0 1 .6-.158c.758 0 1 2.341 1 2.7 0 .834-1.158.992-5.193 1.589-.719.118-1.317.237-1.317 1.19 0 1.032.279 7.5.36 8.772.04.992.519 1.11 1.278 1.469 1.119.515 5.433 2.817 5.433 4.088 0 .834-1.158 2.3-1.877 2.3-.4 0-.8-.4-1.039-.636-.519-.515-2.837-2.46-3.436-2.46-.4 0-.479.318-.519.635-.479 2.778-3 3.691-5.553 3.691-2.956 0-6.431-1.349-6.431-4.8 0-3.373 3.036-4.643 5.952-4.643a15.546 15.546 0 0 1 1.918.119 1.368 1.368 0 0 0 .4.04c.559 0 .759-.278.759-.794 0-1.349-.2-5.477-.28-6.946-.04-.436.04-1.428-.919-1.428-.2 0-2.916.159-4.434.159a32.274 32.274 0 0 1 -4.034-.2c-.519-.16-.519-1.905-.519-2.421s.04-.913.559-.913a5.476 5.476 0 0 1 .8.079c1.717.159 3.555.278 5.273.278 1.757 0 2.916.079 2.916-.912s-.36-4.883-.519-5.953v-.357a.422.422 0 0 1 .479-.475 31.588 31.588 0 0 1 3.715.634m-3.435 22.265a9.179 9.179 0 0 0 -2.356-.356c-1.079 0-3.276.4-3.276 1.825 0 1.469 2.157 1.984 3.316 1.984 1.757 0 2.836-.714 2.836-2.579a.879.879 0 0 0 -.519-.873" transform="translate(-.111 -.022)"/><path d="m146.867 31.265c0 .675-1.558 2.5-2.316 2.5-.361 0-.6-.318-.8-.6a24.193 24.193 0 0 0 -6.072-5.278c-.281-.2-.639-.357-.639-.753a3.95 3.95 0 0 1 2.156-2.223c1 0 7.67 5.4 7.67 6.349" transform="translate(-.16 -.19)"/><path d="m16.3 84.51c0-.319-.12-.557-.439-.557-.12 0-.24.119-.36.159a43.287 43.287 0 0 1 -12.384 7.66 5.217 5.217 0 0 1 -1.478.437c-.72 0-1.639-1.509-1.639-2.109 0-.555.719-.753 1.279-.953a41.227 41.227 0 0 0 11.344-6.31.486.486 0 0 0 .161-.318c0-.279-.24-.358-.479-.358h-6.393c-1.558 0-3.116.079-4.674.079-.839 0-.879-.4-.879-1.468 0-1.111.04-1.508.879-1.508 1.557 0 3.115.079 4.674.079h9.427c.639 0 .919-.2.959-.872l-.12-1.508a1.618 1.618 0 0 1 -.04-.437c0-.437.32-.516.679-.516.439 0 1.039.079 1.478.119 1.4.118 2.117.078 2.117.635 0 .237-.159.317-.479.515-.439.319-.4.715-.439 1.192.04.674.321.872.959.872h9.387c1.557 0 3.115-.079 4.674-.079.839 0 .879.357.879 1.508s-.04 1.468-.879 1.468c-1.558 0-3.116-.079-4.674-.079h-6.471c-.36 0-.439.2-.439.319a.322.322 0 0 0 .16.318 47.68 47.68 0 0 0 11.145 6.389c.759.319 1.478.556 1.478 1.073 0 .594-.959 2.1-1.718 2.1-.8 0-4.674-2.1-5.553-2.62a47.066 47.066 0 0 1 -8.149-5.755.71.71 0 0 0 -.4-.159c-.4 0-.4.476-.4.517v3.969c0 1.27.08 2.539.08 3.81 0 1.231-.319 1.31-1.637 1.31-1.279 0-1.718-.04-1.718-1.231 0-1.31.08-2.579.08-3.889zm-6.633-13.258c0 .319-.24.517-.559.754-1.8 1.429-3.675 2.739-5.592 4.009-.639.4-.679.437-.719.754-.039.277-.079.675-.438.675-.481.001-2.159-2.42-2.159-2.817 0-.318.4-.437.639-.556a42.016 42.016 0 0 0 6.551-4.405 1.259 1.259 0 0 1 .678-.357c.6 0 1.6 1.389 1.6 1.944m-5.754-10.915c1 .794 2 1.667 2.957 2.54.519.437 2.156 1.747 2.156 2.381a2.512 2.512 0 0 1 -1.8 1.707c-.4 0-.679-.356-.959-.635-1.4-1.388-2.917-2.619-4.434-3.889-.241-.2-.6-.437-.6-.793a2.689 2.689 0 0 1 1.8-1.786 1.605 1.605 0 0 1 .879.475m17.856 1.39c.719 0 1.438-.04 2.157-.04 1 0 1.4.515 1.4 1.507 0 .754-.04 1.548-.04 2.3v7.185c0 .834.08 1.627.08 2.46 0 .913-.519.953-1.558.953-.679 0-1.039 0-1.358-.278-.2-.2-.32-.357-.559-.4h-7.791a.781.781 0 0 0 -.559.357c-.359.318-.678.318-1.4.318-.959 0-1.518-.04-1.518-.953 0-.834.04-1.627.04-2.46v-7.177c0-.753-.04-1.507-.04-2.262 0-.953.36-1.547 1.4-1.547.679 0 1.358.04 2 .04a1.452 1.452 0 0 0 1.478-.873 26.524 26.524 0 0 0 1.239-2.66c.08-.278.16-.556.479-.556.04 0 3.515.872 3.515 1.508 0 .277-.32.356-.518.4a.925.925 0 0 0 -.8.438c-.119.2-.439.715-.558.952a.475.475 0 0 0 -.08.318c0 .358.239.438.559.477zm.559 3.61a.921.921 0 0 0 -.959-.953h-6.749a.932.932 0 0 0 -1 .953v1.032a.931.931 0 0 0 1 .953h6.751a.92.92 0 0 0 .959-.953zm-8.709 6.47a.932.932 0 0 0 1 .953h6.751a.921.921 0 0 0 .959-.953v-1.071a.9.9 0 0 0 -.959-.953h-6.75a.91.91 0 0 0 -1 .953zm19.894 5.2c-.36 0-.679-.317-.958-.555a57.262 57.262 0 0 0 -5.633-4.525c-.28-.2-.639-.436-.639-.794 0-.634 1.039-1.865 1.678-1.865.559 0 3.316 2.182 3.914 2.659.759.6 2.477 1.985 3.116 2.62a.887.887 0 0 1 .32.6 2.806 2.806 0 0 1 -1.8 1.865m1-14.922c-.24 0-.519.278-.679.476-.8.794-4.674 4.524-5.592 4.524a2.791 2.791 0 0 1 -1.878-1.707c0-.356.479-.674.879-.992a30.461 30.461 0 0 0 4.713-4.364c.161-.159.36-.438.6-.438.319 0 2.836 1.747 2.836 2.145 0 .475-.759.356-.879.356" transform="translate(0 -.439)"/><path d="m57.352 62.033c.32.079.759.238.759.6 0 .277-.24.436-.439.594a3.891 3.891 0 0 0 -.8 2.382 95.839 95.839 0 0 0 -.879 13.533c0 3.414.08 8.335 4.753 8.335a10.767 10.767 0 0 0 7.99-4.088 11.929 11.929 0 0 0 2.436-5.914c.08-.556.161-1.232.68-1.232.758 0 2.676 1.589 2.676 2.7a14.287 14.287 0 0 1 -1.558 4.486 13.96 13.96 0 0 1 -11.984 7.54 8.281 8.281 0 0 1 -6.671-3.016c-1.717-2.3-1.877-5.914-1.877-8.692 0-4.921.36-9.842.759-14.765a23.2 23.2 0 0 0 .079-2.341c0-.555.04-.953.559-.953a24.93 24.93 0 0 1 3.516.834" transform="translate(-.061 -.466)"/><path d="m94.074 66.233c.28.079.759.2.759.556 0 .237-.16.4-.4.556-.479.4-.519.953-.639 1.666a24.977 24.977 0 0 0 -.28 3.849 24.267 24.267 0 0 0 1.4 8.97c.558 1.31 2.077 3.849 3.675 3.849 1.159 0 2.477-1.865 3-2.778.2-.357.519-.992 1-.992.678 0 2.236 1.31 2.236 1.905 0 .754-2.236 3.215-2.837 3.849a4.468 4.468 0 0 1 -3.355 1.747c-2.4 0-4.354-1.905-5.592-3.811-2.557-3.849-2.957-9.168-2.957-13.692 0-1.27.121-4.564.2-5.874 0-.357.16-.556.519-.556a27.355 27.355 0 0 1 3.276.754m16.937-.556c.8 0 3.595 2.3 5.153 4.683a20.889 20.889 0 0 1 2.877 7.938 6.421 6.421 0 0 1 .12 1.231.8.8 0 0 1 -.6.913 6.113 6.113 0 0 1 -1.918.356c-1.159 0-1.119-.515-1.2-1.269-.519-4.724-2.118-8.375-5.952-11.311a.7.7 0 0 1 -.32-.6 2.744 2.744 0 0 1 1.838-1.945" transform="translate(-.105 -.499)"/><path d="m139.909 64.865a1.739 1.739 0 0 0 -1.718.794c-.759.953-4.314 5.476-5.313 5.476-.559 0-1.958-.991-1.958-1.547 0-.4.559-.834.839-1.11a40.832 40.832 0 0 0 7.67-10.2c.12-.2.24-.437.519-.437a12.392 12.392 0 0 1 1.877.556c.839.318 1.4.437 1.4.794 0 .318-.32.437-.559.476-.519.119-.6.318-1 .913a5.639 5.639 0 0 1 -.36.594.478.478 0 0 0 -.08.319c0 .356.241.475.559.475h17.538c1.557 0 3.075-.119 4.634-.119.8 0 .839.4.839 1.549 0 1.19-.041 1.547-.839 1.547-1.558 0-3.076-.079-4.634-.079zm10.426 28.417h-.919c-1.2 0-1.878-.159-1.878-1.9 0-.557.12-1.111.759-1.111.28 0 1.678.119 2.6.119h.839c1.119 0 2.516-.079 3.075-1.072a1.152 1.152 0 0 0 .08-.358c0-.475-.439-.634-.839-.634h-15.222c-.6 0-.839.159-.959.715-.2.753-.16 1.191-.919 1.191-.559 0-2.436-.238-2.436-.992 0-.04.279-1.191.4-1.707.4-2.143 1.2-6.588 1.279-6.946v-.2a.755.755 0 0 0 -.839-.834c-1.2-.04-2.4.078-3.595.078-.8 0-.8-.516-.8-1.508 0-1.111 0-1.507.839-1.507 1.318 0 2.636.079 3.954.079a1.064 1.064 0 0 0 1.2-.992c.28-1.945.479-3.889.679-5.834.12-1.151.519-1.587 2.038-1.587.919 0 1.8.079 2.716.079h13.143c.879 0 1.758-.079 2.637-.079 1.757 0 2.156.4 2.156 2.143 0 1.231-.2 3.93-.32 5.239 0 .715.28 1.032 1 1.032 1.358.04 2.756-.079 4.114-.079.839 0 .839.436.839 1.507s0 1.508-.8 1.508c-1.477 0-2.956-.118-4.434-.078-.759 0-1.079.277-1.239 1.031q-.178 1.905-.478 3.811v.238a.786.786 0 0 0 .879.834c1.278.039 2.556-.119 3.834-.119.84 0 .879.4.879 1.547s-.039 1.508-.879 1.508c-1.317 0-2.916-.119-4.273-.079a1.18 1.18 0 0 0 -1.358.992c-1.2 4.088-3.316 3.969-7.75 3.969m-11.624-8.89c0 .079-.04.159-.04.238 0 .6.439.834.959.834h4.833c.759-.079 1.119-.278 1.239-1.032l.519-3.85v-.2c0-.6-.439-.834-.959-.834h-4.674c-.8 0-1.159.237-1.279 1.031zm1.279-8.533c0 .635.439.834 1 .834h4.634c.759 0 1.118-.238 1.238-.992l.479-3.492v-.239c0-.594-.438-.834-.958-.834h-4.635c-1.158 0-1.158.04-1.517 2.739q-.12.776-.24 1.786zm14.58 9.605c.8-.079 1.159-.278 1.279-1.032.24-1.31.4-2.58.519-3.89.08-.715-.36-.991-1-.991h-4.913c-.759 0-1.119.237-1.239 1.031l-.519 3.811v.2c0 .635.439.873.959.873zm-4.713-9.8v.2c0 .635.439.834 1 .834h4.793c.8 0 1.119-.238 1.239-1.032.04-.475.2-2.976.2-3.333 0-1.111-.32-1.192-1.358-1.192h-4.154c-.759 0-1.119.239-1.239 1.032z" transform="translate(-.153 -.441)"/><path d="m199.533 90.845c0-.556-.279-.754-.8-.754h-13.7c-.559 0-.8.2-.8.754v.635c0 .992-.32 1.111-1.758 1.111s-1.8-.119-1.8-1.111c0-1.469.12-2.976.12-4.445v-20.4c0-1.192-.08-2.382-.08-3.573 0-1.508.519-1.985 2-1.985 1.078 0 2.117.079 3.155.079h12.03c1.039 0 2.077-.079 3.075-.079 1.758 0 2.078.636 2.078 2.263 0 .834-.08 1.9-.08 3.295v20.28c0 1.508.12 3.016.12 4.486 0 .991-.4 1.071-1.8 1.071s-1.758-.079-1.758-1.071zm-1-17.106a1.055 1.055 0 0 0 1.079-1.11v-7.343a1.1 1.1 0 0 0 -1.079-1.11h-13.26a1.112 1.112 0 0 0 -1.119 1.11v7.344a1.113 1.113 0 0 0 1.119 1.11zm-14.379 12.146a1.113 1.113 0 0 0 1.119 1.115h13.262a1.055 1.055 0 0 0 1.079-1.111v-8.061a1.105 1.105 0 0 0 -1.079-1.111h-13.262a1.112 1.112 0 0 0 -1.119 1.111z" transform="translate(-.211 -.465)"/><path d="m234.539 60.147c0 .2-.159.318-.28.437-.758.476-.838.794-1.4 2.818l-.6 2.182a1.462 1.462 0 0 0 -.079.437.494.494 0 0 0 .518.476 11.352 11.352 0 0 0 1.479-.357 22.782 22.782 0 0 0 3.515-1.15 3.383 3.383 0 0 1 1.079-.319c.679 0 .639 1.588.639 2.065 0 .793-.041 1.269-.519 1.468a52.787 52.787 0 0 1 -6.552 1.588c-1.356.278-1.477.318-1.876 1.547a123.847 123.847 0 0 1 -7.51 17.741c-.479.913-.759 1.548-1.358 1.548s-2.678-1.031-2.678-1.785c0-.318.439-.873.64-1.151 2.516-3.533 6.072-11.986 7.549-16.233a1.427 1.427 0 0 0 .081-.357.555.555 0 0 0 -.6-.556c-.439 0-2.6.2-4.074.2-.919 0-1.358 0-1.6-.4a7.835 7.835 0 0 1 -.359-2.381c0-.437.12-.675.6-.675.279 0 1.878.2 3.555.2.919 0 1.8-.04 2.676-.119a1.215 1.215 0 0 0 .96-.357c.6-.675 1.677-6.39 1.718-7.5.039-.436 0-.953.439-.953.04 0 4.033.913 4.033 1.588m-1.517 25.242c1.8 1.944 4.793 2.223 7.31 2.223a17.3 17.3 0 0 0 5.513-.754.993.993 0 0 1 .319-.04c.68 0 .68 1.032.68 2.063 0 .676.039 1.389-.439 1.589-.72.356-4.834.475-5.833.475-2.557 0-6.151-.238-8.348-1.628-.559-.357-1.918-1.349-1.918-2.1 0-.555 1.438-2.381 2-2.381.239 0 .559.357.719.556m5.033-13.217c2.038 0 5.752.278 7.629 1.072a.664.664 0 0 1 .479.715 9.068 9.068 0 0 1 -.479 2.064c-.16.356-.319.556-.719.556a2.806 2.806 0 0 1 -.758-.239 17.508 17.508 0 0 0 -6.072-.913c-.519 0-1.039.04-1.559.04-.8 0-.917-.277-.917-.912 0-2.541.478-2.382 2.4-2.382m7.75-6.628c0 .556-1.239 1.548-1.758 1.548-.24 0-.4-.238-.559-.437a40.476 40.476 0 0 0 -2.716-3.136.859.859 0 0 1 -.32-.555c0-.4 1.277-1.389 1.677-1.389.439 0 3.676 3.573 3.676 3.969m3.992-2.35c0 .516-1.238 1.548-1.718 1.548-.279 0-.439-.239-.6-.437a33.247 33.247 0 0 0 -2.717-3.136c-.12-.119-.32-.317-.32-.516 0-.437 1.279-1.428 1.678-1.428.439 0 3.675 3.532 3.675 3.969" transform="translate(-.255 -.446)"/><path d="m269.792 62.986c.56.159 1.2.278 1.2.714 0 .279-.2.358-.36.477-.6.277-.839.475-1.2 1.388a35.675 35.675 0 0 0 -2.078 11.392 20.636 20.636 0 0 0 .959 6.31c.08.119.16.278.36.278.279 0 .839-1.785 1.038-2.183.48-1.309.72-2.182 1.2-2.182.321 0 1.24.476 1.24.873 0 .556-1.479 4.167-1.479 7.342v1.112c0 .912-.558 1.191-1.317 1.507a3.364 3.364 0 0 1 -1.239.318c-.559 0-.8-.4-1.159-1.032a26.221 26.221 0 0 1 -2.8-12.3 47.9 47.9 0 0 1 2.077-13.018 4.838 4.838 0 0 0 .24-1.032c.08-.318.16-.794.559-.794.28 0 2.317.715 2.756.834m13.662-1.667c.479 0 1.039.119 1.519.159 1.158.04 2.476.119 2.476.6s-.56.476-.56 1.905c0 .634.161 3.254.241 3.969.04.6.24 1.151.959 1.151.2 0 2.836-.556 3.275-.635a2.353 2.353 0 0 1 .518-.079c.72 0 .8 1.826.8 2.382 0 1.032-.558.953-3.755 1.349-.838.119-1.557.278-1.557 1.31 0 1.231.08 2.5.08 3.77a19.217 19.217 0 0 1 -5.347 13.842c-.361.4-1.039 1.151-1.6 1.151-.6 0-2.317-1.469-2.317-2.1 0-.278.12-.356.32-.515a16.161 16.161 0 0 0 3.476-4.049 15.719 15.719 0 0 0 2.2-8.97c0-2.54.08-3.611-1.038-3.611-.361 0-5.474.834-6.233.953a7.026 7.026 0 0 1 -1.279.159c-.918 0-1-1.349-1-2.064 0-1.31.239-1.23 2.077-1.35 1.439-.119 4.794-.475 6.072-.674a1.081 1.081 0 0 0 1-1.072c0-.239-.32-2.976-.36-3.453a28.221 28.221 0 0 0 -.559-3.214c0-.119-.04-.318-.04-.438 0-.356.361-.475.639-.475" transform="translate(-.308 -.467)"/><path d="m306.918 65.456c5.833-.317 11.624-.953 17.417-1.627 2.837-.357 6.392-.715 9.147-1.191a2.37 2.37 0 0 1 .52-.079c.518 0 .6.437.679.834a13.043 13.043 0 0 1 .24 2.143c0 .873-.56.873-1.559.873a22.912 22.912 0 0 0 -6.791.794 12.259 12.259 0 0 0 -7.071 5.997 15.755 15.755 0 0 0 -2.2 7.66c0 2.222.959 4.6 3.155 5.517a12.082 12.082 0 0 0 4.595.675c.518 0 1.079-.04 1.558-.04s.918 0 .918.556a8.081 8.081 0 0 1 -.558 2.579c-.24.516-.48.6-1.079.6-6.431 0-12.144-2.262-12.144-9.6a18.117 18.117 0 0 1 5.033-12.264c.559-.556.759-.715.759-.913 0-.277-.32-.356-.519-.356-.6 0-5.353.674-6.311.793-2.079.318-4.156.635-6.193 1.151a3.209 3.209 0 0 1 -.6.119c-.879 0-1.159-3.1-1.159-3.334 0-.873.518-.794 2.156-.873m24.927 6.47c.28.317 1.557 1.707 1.557 2.143 0 .556-1.277 1.508-1.8 1.508-.24 0-.4-.238-.519-.437-.8-1.111-1.718-2.183-2.637-3.254-.08-.119-.32-.357-.32-.517 0-.475 1.318-1.349 1.718-1.349s1.239 1.032 2 1.905m6.192.078c0 .517-1.279 1.509-1.8 1.509-.24 0-.4-.279-.558-.477a34.054 34.054 0 0 0 -2.6-3.214c-.12-.159-.32-.358-.32-.556 0-.437 1.317-1.35 1.757-1.35s3.516 3.692 3.516 4.088" transform="translate(-.356 -.477)"/><path d="m354.4 66.233c.279.079.759.2.759.556 0 .237-.16.4-.4.556-.478.4-.518.953-.638 1.666a24.978 24.978 0 0 0 -.281 3.849 24.267 24.267 0 0 0 1.4 8.97c.558 1.31 2.077 3.849 3.675 3.849 1.159 0 2.477-1.865 3-2.778.2-.357.518-.992 1-.992.678 0 2.236 1.31 2.236 1.905 0 .754-2.236 3.215-2.837 3.849a4.466 4.466 0 0 1 -3.355 1.747c-2.4 0-4.354-1.905-5.592-3.811-2.557-3.849-2.957-9.168-2.957-13.692 0-1.27.12-4.564.2-5.874 0-.357.16-.556.52-.556a27.428 27.428 0 0 1 3.275.754m16.937-.556c.8 0 3.6 2.3 5.153 4.683a20.87 20.87 0 0 1 2.876 7.938 6.42 6.42 0 0 1 .12 1.231.8.8 0 0 1 -.6.913 6.113 6.113 0 0 1 -1.918.356c-1.159 0-1.118-.515-1.2-1.269-.519-4.724-2.118-8.375-5.952-11.311a.7.7 0 0 1 -.32-.6 2.744 2.744 0 0 1 1.838-1.945" transform="translate(-.409 -.499)"/><path d="m398.357 66.233c.279.079.759.2.759.556 0 .237-.16.4-.4.556-.478.4-.518.953-.638 1.666a24.978 24.978 0 0 0 -.281 3.849 24.267 24.267 0 0 0 1.4 8.97c.558 1.31 2.077 3.849 3.675 3.849 1.159 0 2.477-1.865 3-2.778.2-.357.518-.992 1-.992.678 0 2.236 1.31 2.236 1.905 0 .754-2.236 3.215-2.837 3.849a4.466 4.466 0 0 1 -3.355 1.747c-2.4 0-4.354-1.905-5.592-3.811-2.557-3.849-2.957-9.168-2.957-13.692 0-1.27.12-4.564.2-5.874 0-.357.16-.556.52-.556a27.428 27.428 0 0 1 3.275.754m16.937-.556c.8 0 3.6 2.3 5.153 4.683a20.87 20.87 0 0 1 2.876 7.938 6.42 6.42 0 0 1 .12 1.231.8.8 0 0 1 -.6.913 6.113 6.113 0 0 1 -1.918.356c-1.159 0-1.118-.515-1.2-1.269-.519-4.724-2.118-8.375-5.952-11.311a.7.7 0 0 1 -.32-.6 2.744 2.744 0 0 1 1.838-1.945" transform="translate(-.46 -.499)"/><path d="m446.508 86.873a5.473 5.473 0 1 1 -5.473-5.437 5.463 5.463 0 0 1 5.473 5.437m-9.148 0a3.675 3.675 0 1 0 3.676-3.652 3.654 3.654 0 0 0 -3.676 3.652" transform="translate(-.508 -.62)"/></g></svg>